<?xml version="1.0" encoding="UTF-8"?><svg id="b" xmlns="http://www.w3.org/2000/svg" viewBox="0 0 262.8 388.46"><g id="c"><path d="m199.38,345.71c-.51,1.66-.87,3.39-.87,5.22,0,9.83,7.97,17.81,17.81,17.81s17.8-7.97,17.8-17.81c0-1.61-.28-3.13-.68-4.62,8.52-1.34,15.04-8.64,15.04-17.53,0-9.83-7.97-17.81-17.8-17.81-3.72,0-7.17,1.15-10.04,3.11,1.39-4.31,3.1-8.51,5.17-12.54l1.58-3.1h-20.59l.52,1.11c2.21,4.72,4.02,9.61,5.5,14.6-3.02-2.35-6.76-3.8-10.87-3.8-9.83,0-17.81,7.97-17.81,17.81,0,8.95,6.63,16.29,15.23,17.55Z" fill="#2d2e2d"/><path d="m29.55,346.7c-.51,1.66-.87,3.39-.87,5.22,0,9.83,7.97,17.81,17.81,17.81s17.8-7.97,17.8-17.81c0-1.61-.28-3.13-.68-4.62,8.51-1.34,15.04-8.64,15.04-17.53,0-9.83-7.97-17.81-17.8-17.81-3.72,0-7.17,1.15-10.04,3.11,1.39-4.31,3.09-8.51,5.17-12.55l1.59-3.09h-20.59l.52,1.11c2.21,4.72,4.03,9.61,5.5,14.6-3.02-2.35-6.76-3.8-10.88-3.8-9.83,0-17.8,7.97-17.8,17.81,0,8.95,6.63,16.29,15.23,17.55Z" fill="#2d2e2d"/><path d="m199.38,258.15c-.51,1.66-.87,3.39-.87,5.22,0,9.84,7.97,17.81,17.81,17.81s17.8-7.97,17.8-17.81c0-1.61-.28-3.13-.68-4.61,8.52-1.34,15.04-8.64,15.04-17.53,0-9.83-7.97-17.8-17.8-17.8-3.72,0-7.17,1.15-10.04,3.1,1.39-4.31,3.1-8.51,5.17-12.55l1.58-3.09h-20.59l.52,1.11c2.21,4.72,4.02,9.61,5.5,14.6-3.02-2.35-6.76-3.8-10.87-3.8-9.83,0-17.81,7.97-17.81,17.81,0,8.95,6.63,16.29,15.23,17.55Z" fill="#2d2e2d"/><path d="m29.55,258.64c-.51,1.66-.87,3.39-.87,5.22,0,9.83,7.97,17.81,17.81,17.81s17.8-7.97,17.8-17.81c0-1.61-.28-3.13-.68-4.62,8.51-1.33,15.04-8.64,15.04-17.53,0-9.83-7.97-17.81-17.8-17.81-3.72,0-7.17,1.15-10.04,3.11,1.39-4.31,3.09-8.51,5.17-12.55l1.59-3.09h-20.59l.52,1.11c2.21,4.72,4.03,9.61,5.5,14.6-3.02-2.35-6.76-3.8-10.88-3.8-9.83,0-17.8,7.97-17.8,17.81,0,8.95,6.63,16.29,15.23,17.55Z" fill="#2d2e2d"/><path d="m63.42,41.76c.51-1.66.87-3.39.87-5.22,0-9.83-7.97-17.8-17.8-17.8s-17.81,7.97-17.81,17.8c0,1.61.28,3.14.68,4.62-8.51,1.34-15.04,8.64-15.04,17.53,0,9.83,7.97,17.8,17.8,17.8,3.73,0,7.18-1.15,10.04-3.1-1.39,4.31-3.09,8.51-5.17,12.55l-1.59,3.09h20.59l-.52-1.11c-2.21-4.72-4.02-9.61-5.5-14.6,3.02,2.35,6.76,3.8,10.88,3.8,9.83,0,17.8-7.97,17.8-17.81,0-8.95-6.62-16.29-15.23-17.55Z" fill="#2d2e2d"/><path d="m233.26,41.76c.51-1.66.87-3.39.87-5.22,0-9.83-7.97-17.8-17.8-17.8s-17.81,7.97-17.81,17.8c0,1.61.28,3.14.68,4.62-8.51,1.34-15.04,8.64-15.04,17.53,0,9.83,7.97,17.8,17.81,17.8,3.72,0,7.17-1.15,10.03-3.1-1.39,4.31-3.09,8.51-5.17,12.55l-1.59,3.09h20.59l-.52-1.11c-2.21-4.72-4.02-9.61-5.5-14.6,3.01,2.35,6.76,3.8,10.88,3.8,9.83,0,17.8-7.97,17.8-17.81,0-8.95-6.62-16.29-15.23-17.55Z" fill="#2d2e2d"/><path d="m63.42,143.21c.51-1.66.87-3.39.87-5.22,0-9.83-7.97-17.81-17.8-17.81s-17.81,7.97-17.81,17.81c0,1.61.28,3.13.68,4.61-8.51,1.34-15.04,8.64-15.04,17.53,0,9.83,7.97,17.81,17.8,17.81,3.73,0,7.18-1.15,10.04-3.11-1.39,4.31-3.09,8.51-5.17,12.55l-1.59,3.09h20.59l-.52-1.11c-2.21-4.72-4.02-9.61-5.5-14.6,3.02,2.35,6.76,3.8,10.88,3.8,9.83,0,17.8-7.97,17.8-17.8,0-8.95-6.62-16.29-15.23-17.55Z" fill="#2d2e2d"/><path d="m114.46,303.14c-.51,1.66-.87,3.39-.87,5.22,0,9.83,7.97,17.81,17.81,17.81s17.8-7.97,17.8-17.81c0-1.61-.28-3.14-.68-4.62,8.52-1.34,15.04-8.64,15.04-17.53,0-9.83-7.97-17.81-17.8-17.81-3.73,0-7.18,1.15-10.04,3.11,1.39-4.31,3.09-8.51,5.17-12.55l1.59-3.09h-20.59l.52,1.11c2.21,4.72,4.03,9.61,5.5,14.6-3.02-2.35-6.76-3.8-10.88-3.8-9.83,0-17.8,7.97-17.8,17.81,0,8.95,6.63,16.29,15.23,17.55Z" fill="#2d2e2d"/><path d="m148.34,107.57c.52-1.66.87-3.39.87-5.22,0-9.83-7.97-17.81-17.8-17.81s-17.81,7.97-17.81,17.81c0,1.61.28,3.14.68,4.62-8.51,1.34-15.04,8.64-15.04,17.53,0,9.83,7.97,17.81,17.8,17.81,3.73,0,7.18-1.15,10.04-3.11-1.39,4.31-3.09,8.51-5.17,12.55l-1.59,3.09h20.59l-.52-1.11c-2.21-4.72-4.02-9.61-5.5-14.6,3.01,2.35,6.76,3.8,10.88,3.8,9.83,0,17.8-7.97,17.8-17.81,0-8.95-6.63-16.29-15.23-17.55Z" fill="#2d2e2d"/><path d="m233.26,142.71c.51-1.66.87-3.39.87-5.22,0-9.83-7.97-17.81-17.8-17.81s-17.81,7.97-17.81,17.81c0,1.61.28,3.14.68,4.62-8.51,1.34-15.04,8.64-15.04,17.53,0,9.83,7.97,17.8,17.81,17.8,3.72,0,7.17-1.15,10.03-3.11-1.39,4.31-3.09,8.51-5.17,12.55l-1.59,3.09h20.59l-.52-1.11c-2.21-4.72-4.02-9.61-5.5-14.6,3.01,2.35,6.76,3.8,10.88,3.8,9.83,0,17.8-7.97,17.8-17.81,0-8.95-6.62-16.29-15.23-17.55Z" fill="#2d2e2d"/><rect width="262.8" height="388.46" fill="none"/></g></svg>