<?xml version="1.0" encoding="UTF-8"?><svg id="b" xmlns="http://www.w3.org/2000/svg" viewBox="0 0 262.8 388.46"><g id="c"><path d="m182.06,173.98c-5.8,0-11.33,1.14-16.43,3.14,6.68-7.85,10.73-18,10.73-29.1,0-24.83-20.13-44.97-44.97-44.97s-44.97,20.13-44.97,44.97c0,11.11,4.05,21.26,10.73,29.1-5.09-2-10.62-3.14-16.42-3.14-24.83,0-44.97,20.13-44.97,44.97s20.13,44.96,44.97,44.96c21.66,0,39.71-15.33,43.97-35.73.6,21.11,2.03,34.46-22.48,57.23h58.35c-25.01-23.29-23.28-36.49-22.52-57.38,4.13,20.57,22.23,35.88,44.01,35.88,24.83,0,44.97-20.13,44.97-44.96s-20.13-44.97-44.97-44.97Z" fill="#010101"/><path d="m131.4,108.67c24.43,0,44.29,19.48,44.93,43.76,0-.22.03-.44.03-.67,0-24.83-20.13-44.96-44.97-44.96s-44.97,20.13-44.97,44.96c0,.22.03.44.03.67.64-24.27,20.51-43.76,44.93-43.76Z" fill="#fff"/><path d="m207.4,213.85c-.18-.57-.37-1.12-.61-1.67-2.63-6.58-7.09-11.05-10.36-10.63-3.38-5.65-8.5-10.31-15.04-13.01,2.42-1.69,7.61-.6,12.71,2.74-.44-.37-.91-.75-1.39-1.1-6.13-4.55-12.82-5.94-14.93-3.07-.03.05-.05.09-.09.14-6.65-1.99-13.49-2.11-19.94-.64.32-3.07,5.2-5.83,11.62-6.59-.58,0-1.17,0-1.78.05-7.62.46-13.61,3.7-13.4,7.25,0,.09.03.18.03.27-6.38,2.1-12.23,5.81-16.83,10.88-1.03-2.7.62-7.43,4.27-11.89-.43.41-.84.82-1.25,1.26-4.55,4.94-6.7,10.56-5.37,13.47-.94,1.26-1.83,2.59-2.61,4,0-3.84.02-7.81.02-11.84l.46-7.83s.17-20.33,8.05-31.93c3.21,2.17,7.46,3.62,13.16,3.62,11.8,0,15.89-9.84,15.73-13.31-.14-3.48-2.12-10.14-10.28-10.14s-8.78,6.96-8.78,9.38c0,.55.1,1.25.28,2-2.73.81-5.93,2.53-8.98,5.65-5.16-3.33-9.61-9.01-9.61-18.24,0-12.03-.73-16.11-1.03-17.28v-.36s-.03.09-.05.17c-.02-.08-.04-.13-.05-.17v.37c-.3,1.18-1.03,5.26-1.03,17.28,0,9.23-4.45,14.91-9.61,18.24-3.05-3.12-6.25-4.84-8.98-5.65.18-.75.27-1.45.27-2,0-2.42-.6-9.38-8.77-9.38s-10.14,6.65-10.29,10.14c-.15,3.48,3.93,13.31,15.74,13.31,5.7,0,9.95-1.45,13.16-3.62,7.88,11.61,8.04,31.93,8.04,31.93l.46,7.89c0,4,0,7.94.02,11.76-.8-1.39-1.67-2.72-2.61-3.98,1.33-2.91-.82-8.53-5.37-13.47-.41-.45-.82-.85-1.25-1.26,3.65,4.46,5.3,9.19,4.27,11.89-4.6-5.06-10.45-8.78-16.83-10.88,0-.09.04-.18.04-.27.21-3.55-5.78-6.79-13.4-7.25-.6-.05-1.19-.05-1.78-.05,6.42.76,11.3,3.52,11.62,6.59-6.45-1.47-13.29-1.35-19.96.64-.02-.05-.03-.09-.07-.14-2.11-2.86-8.8-1.48-14.93,3.07-.48.36-.94.73-1.39,1.1,5.1-3.34,10.29-4.43,12.71-2.74-6.54,2.7-11.66,7.36-15.03,13.01-3.27-.42-7.73,4.05-10.36,10.63-.23.55-.42,1.1-.6,1.67,2.56-5.42,6.31-9.06,9.26-9.03-2.9,6.42-3.64,13.76-1.78,20.88-2.78,1.92-2.54,8.43.64,14.98.27.55.55,1.07.83,1.58-2.33-5.63-2.45-10.95-.34-13.03.05.16.09.3.16.46,4.02,9.85,13.54,15.84,23.58,15.84,3.44,0,6.94-.72,10.29-2.2,2.95-1.31,5.62-3.31,7.6-5.87,4.75-6.11,5.75-13.8,2.96-20.6-1.67-4.1-4.85-7.32-8.94-9.03-4.09-1.72-8.6-1.76-12.7-.07-7.29,2.96-10.56,11.63-6.84,18.75.98,1.88,2.64,3.38,4.57,4.25,10.96,4.91,18-5.56,13.15-12.75-.51-.76-1.27-1.38-2.1-1.78-7.13-3.44-11.82,2.49-9.88,7.29.02.02.02.03.04.05.44,1.08,1.51,1.87,2.75,1.87,1.65,0,3-1.33,3-2.98s-1.35-2.99-3-2.99c-.41,0-.8.07-1.15.23.41-1.05,1.23-1.94,2.36-2.4,4.65-1.9,10.45,3.03,6.17,10.04-.49.8-1.19,1.51-2.02,1.95-7.76,4.11-18.26-4.08-11.22-16.04.66-1.12,1.58-2.1,2.69-2.77,4.18-2.52,9.1-2.83,13.47-1,3.66,1.53,6.49,4.39,7.98,8.07,1.9,4.64,1.86,9.74-.07,14.36-1.94,4.62-5.56,8.19-10.2,10.1-12.09,4.92-25.93-.89-30.87-12.97-.07-.22-.13-.41-.22-.62,2.95-.57,7.16,2.86,10.22,8.3-.23-.53-.46-1.08-.73-1.63-1.23-2.52-2.71-4.69-4.27-6.36-5.84-6.28-8.06-15.35-4.54-23.17.03-.06.06-.12.08-.18,2.52,1.69,2.86,7.22.87,13.22.25-.52.48-1.06.71-1.62,1.28-3.2,1.9-6.34,1.9-8.94-.01-7.63,4.8-14.65,11.82-17.65.17-.07.33-.14.5-.21.12-.06.27-.09.39-.14,1.03,2.81-1.55,7.52-6.27,11.5.5-.32.98-.66,1.47-1.01,1.67-1.24,3.13-2.59,4.32-3.96,5.61-6.43,13.98-10.1,22.31-8.25.1.02.2.05.3.07-1.31,2.59-6.15,4.37-12.03,4.37.57.07,1.15.12,1.76.16,2.42.15,4.71,0,6.72-.39,8.41-1.63,17.26.93,23,7.28.05.05.09.1.14.15-2.54,1.81-7.82-.2-12.51-4.73.36.45.75.89,1.15,1.34,3.27,3.55,6.99,5.9,9.95,6.53,2.96.63,5.6,2.29,6.96,4.99.19.37.37.75.55,1.14v1.87c.02,5.76.06,11.21.1,16.27-2.84-.89-5.08-5.72-5.45-11.86-.04.59-.06,1.18-.06,1.78,0,4.19.87,7.91,2.24,10.43,1.94,3.57,3.35,7.43,3.4,11.5.02,1.05.03,2.08.05,3.07-2.07-.71-3.69-4.26-3.96-8.75-.02.43-.04.87-.04,1.31,0,2.53.43,4.83,1.14,6.61,1.88,4.7,3.01,9.66,3.18,14.72.14,4.06.28,6.33.44,6.33.08,0,.15-.53.23-1.53.49-6.79,1.36-13.64,3.59-20.07.59-1.69.93-3.78.93-6.06,0-.45-.02-.88-.04-1.31-.27,4.48-1.89,8.04-3.96,8.75.02-1,.03-2.02.04-3.08.06-4.07,1.45-7.92,3.4-11.5,1.37-2.52,2.24-6.24,2.24-10.43,0-.6-.03-1.19-.06-1.78-.37,6.13-2.61,10.97-5.44,11.86.04-5.06.08-10.51.1-16.27v-1.87c.15-.34.31-.67.48-1,1.38-2.76,4.07-4.48,7.08-5.14,2.95-.65,6.64-2.99,9.89-6.52.41-.44.8-.89,1.15-1.34-4.69,4.53-9.97,6.54-12.51,4.73.05-.05.09-.1.14-.15,5.74-6.36,14.59-8.92,23-7.28,2.01.39,4.3.54,6.72.39.59-.03,1.19-.09,1.76-.16-5.88,0-10.72-1.78-12.03-4.37.1-.02.2-.05.3-.07,8.33-1.86,16.7,1.82,22.31,8.25,1.19,1.36,2.65,2.71,4.32,3.96.5.36.98.7,1.47,1.01-4.73-3.98-7.3-8.69-6.27-11.5.12.05.27.09.39.14.06.02.12.05.18.08,7.25,3.01,11.99,10.28,12.14,18.12.05,2.53.67,5.54,1.89,8.6.23.55.46,1.1.71,1.62-1.99-6.01-1.65-11.54.87-13.22.03.06.06.12.08.18,3.52,7.82,1.3,16.89-4.54,23.17-1.55,1.67-3.04,3.84-4.27,6.36-.27.55-.5,1.1-.73,1.63,3.06-5.44,7.27-8.87,10.22-8.3-.09.22-.14.41-.21.62-4.94,12.09-18.79,17.9-30.87,12.97-4.64-1.9-8.27-5.47-10.2-10.1-1.94-4.62-1.97-9.72-.07-14.36,1.49-3.68,4.32-6.54,7.98-8.07,4.38-1.84,9.33-1.52,13.52,1.03,1.1.67,2.02,1.66,2.67,2.77,6.99,11.94-3.49,20.11-11.25,16.01-.83-.44-1.53-1.14-2.02-1.94-4.28-7.01,1.52-11.94,6.17-10.05,1.14.46,1.96,1.35,2.37,2.4-.36-.16-.75-.23-1.16-.23-1.65,0-3,1.33-3,2.99s1.35,2.98,3,2.98c1.25,0,2.31-.78,2.75-1.87,0-.02.02-.04.04-.05,1.24-3.08-.23-6.61-3.32-7.85-5.84-2.4-13.03,3.35-8.9,12,.48,1.01,1.23,1.92,2.16,2.55,8.65,5.8,21.08-2.23,16.1-15.26-1.06-2.76-2.97-5.07-5.59-6.46-5.7-3.04-12.45-2.55-17.82,1.37-2.27,1.65-4.04,3.95-5.16,6.52-3.03,6.92-2.1,14.82,2.76,21.08,1.98,2.55,4.63,4.55,7.58,5.86,3.35,1.49,6.86,2.21,10.31,2.21,10.04,0,19.57-5.99,23.58-15.84.07-.16.11-.3.16-.46,2.11,2.08,1.99,7.39-.34,13.03.28-.51.57-1.03.83-1.58,3.18-6.56,3.41-13.06.64-14.98,1.86-7.12,1.12-14.47-1.78-20.88,2.95-.04,6.7,3.61,9.26,9.03Zm-56.05-67.69c.76,2.34,2.37,4.8,5.05,4.8,3.94,0,5.3-6.35-1.51-6.35-.81,0-1.76.11-2.8.35-.11-.58-.22-1.18-.22-1.87,0-7.11,5.9-8.17,8.17-8.17s8.48,1.67,8.48,9.24-6.97,10.89-13.33,10.89c-2.89,0-7.83-.99-12.37-3.71,2.28-2.57,5.08-4.45,8.53-5.18Zm1-.18c.72-.1,1.46-.17,2.24-.17,0,0,3.78-.3,3.78,2.58,0,2.41-4.56,1.99-6.03-2.41Zm-12.18,7.13c-3.35,4.27-6.24,10.52-7.73,19.44-.06-13.09-.18-24.53-.34-33.08.95,4.38,3.14,9.89,8.07,13.63Zm-32.54,1.93c-6.36,0-13.32-3.32-13.32-10.89s6.21-9.24,8.48-9.24,8.17,1.07,8.17,8.17c0,.7-.11,1.29-.22,1.87-1.04-.24-2-.35-2.81-.35-6.81,0-5.45,6.35-1.52,6.35,2.69,0,4.29-2.46,5.05-4.8,3.45.73,6.26,2.6,8.54,5.18-4.54,2.72-9.49,3.71-12.37,3.71Zm2.85-9.06c-1.47,4.41-6.03,4.82-6.03,2.41,0-2.88,3.78-2.58,3.78-2.58.78,0,1.52.07,2.24.17Zm12.18,7.13c4.94-3.75,7.12-9.26,8.07-13.64-.16,8.55-.28,20-.34,33.1-1.49-8.93-4.39-15.19-7.73-19.46Z" fill="#fff"/><path d="m131.32,114.95s0,.02.02.06v-.06h-.02Z" fill="#fff"/><path d="m131.45,114.95v.06s.02-.06.02-.06h-.02Z" fill="#fff"/><path d="m99.56,222.23c0,5.09-4.12,9.21-9.21,9.21s-9.21-4.12-9.21-9.21,4.12-9.21,9.21-9.21,9.21,4.12,9.21,9.21Z" fill="#fff"/><path d="m181.74,223.28c0,5.09-4.12,9.21-9.21,9.21s-9.21-4.12-9.21-9.21,4.12-9.21,9.21-9.21,9.21,4.12,9.21,9.21Z" fill="#fff"/><path d="m131.48,135.39s-.01-.17-.04-.49c-.26-2.5-1.95-13.9-11.03-15.45-10.21-1.74-10.3,12.12-3.82,13.78,6.48,1.66,8.3-5.89,8.3-5.89,0,0-2.74,3.31-5.56,2.27-2.82-1.03-3.24-7.59,1.25-7.01,4.48.58,10.91,12.79,10.91,12.79Z" fill="#fff"/><path d="m131.48,135.39s0-.17.04-.49c.26-2.5,1.95-13.9,11.03-15.45,10.21-1.74,10.29,12.12,3.82,13.78-6.48,1.66-8.3-5.89-8.3-5.89,0,0,2.74,3.31,5.56,2.27,2.82-1.03,3.24-7.59-1.25-7.01-4.48.58-10.91,12.79-10.91,12.79Z" fill="#fff"/><path d="m123.19,176.88c0,2.38-1.93,4.32-4.32,4.32s-4.32-1.93-4.32-4.32,1.93-4.32,4.32-4.32,4.32,1.93,4.32,4.32Z" fill="#fff"/><circle cx="72.83" cy="251.86" r="4.32" fill="#fff"/><path d="m113.14,168.43c0,1.6-1.3,2.91-2.91,2.91s-2.91-1.3-2.91-2.91,1.3-2.91,2.91-2.91,2.91,1.3,2.91,2.91Z" fill="#fff"/><path d="m62.67,244.63c0,1.6-1.3,2.91-2.91,2.91s-2.91-1.3-2.91-2.91,1.3-2.91,2.91-2.91,2.91,1.3,2.91,2.91Z" fill="#fff"/><path d="m105.96,162.12c0,1.01-.82,1.83-1.83,1.83s-1.83-.82-1.83-1.83.82-1.83,1.83-1.83,1.83.82,1.83,1.83Z" fill="#fff"/><path d="m55.4,236.25c0,1.01-.82,1.83-1.82,1.83s-1.83-.82-1.83-1.83.82-1.83,1.83-1.83,1.82.82,1.82,1.83Z" fill="#fff"/><path d="m186.23,251.86c0,2.38,1.93,4.32,4.32,4.32s4.31-1.93,4.31-4.32-1.93-4.32-4.31-4.32-4.32,1.93-4.32,4.32Z" fill="#fff"/><path d="m200.71,244.63c0,1.6,1.3,2.91,2.91,2.91s2.9-1.3,2.9-2.91-1.3-2.91-2.9-2.91-2.91,1.3-2.91,2.91Z" fill="#fff"/><path d="m207.98,236.25c0,1.01.82,1.83,1.83,1.83s1.83-.82,1.83-1.83-.82-1.83-1.83-1.83-1.83.82-1.83,1.83Z" fill="#fff"/><path d="m158.25,161.04c0,1.01-.82,1.83-1.83,1.83s-1.83-.82-1.83-1.83.82-1.83,1.83-1.83,1.83.82,1.83,1.83Z" fill="#fff"/><path d="m154.6,168.43c0,1.6-1.3,2.91-2.91,2.91s-2.91-1.3-2.91-2.91,1.3-2.91,2.91-2.91,2.91,1.3,2.91,2.91Z" fill="#fff"/><path d="m94.31,222.23c0,2.38-1.93,4.32-4.32,4.32s-4.32-1.93-4.32-4.32,1.93-4.32,4.32-4.32,4.32,1.93,4.32,4.32Z" fill="#010101"/><path d="m176.84,223.28c0,2.38-1.93,4.32-4.32,4.32s-4.32-1.93-4.32-4.32,1.93-4.32,4.32-4.32,4.32,1.93,4.32,4.32Z" fill="#010101"/><path d="m148.79,176.88c0,2.38-1.93,4.32-4.32,4.32s-4.32-1.93-4.32-4.32,1.93-4.32,4.32-4.32,4.32,1.93,4.32,4.32Z" fill="#fff"/><rect width="262.8" height="388.46" fill="none"/></g></svg>