<?xml version="1.0" encoding="UTF-8"?><svg id="b" xmlns="http://www.w3.org/2000/svg" viewBox="0 0 224.74 354.63"><g id="c"><path d="m0,315.11H0c0,14.34,12.47,27.71,24.54,35.46l6.3,4.05,6.3-4.05c12.06-7.75,24.53-20.77,24.53-35.1h0c0-.05,0-.1,0-.14v-.19s0,0,0,0c0-.18.01-.36.01-.53,0-9.08-7.36-16.43-16.43-16.43-4.64,0-8.84,1.93-11.82,5.03.55-3.53,1.71-6.95,3.48-10.08l1.28-2.25h-14.7l1.25,2.15c1.85,3.19,3.04,6.69,3.62,10.3-2.99-3.17-7.23-5.16-11.93-5.16-9.07,0-16.43,7.36-16.43,16.43,0,.17,0,.34,0,.51Z" fill="#2d2e2d"/><path d="m85.43,251.36h0c0,14.34,12.47,27.71,24.53,35.46l6.31,4.05,6.3-4.05c12.06-7.75,24.53-20.77,24.53-35.1h0c0-.05,0-.1,0-.14v-.2h0c0-.17,0-.35,0-.53,0-9.08-7.35-16.43-16.43-16.43-4.65,0-8.84,1.94-11.83,5.03.56-3.53,1.71-6.95,3.48-10.08l1.27-2.25h-14.7l1.25,2.16c1.85,3.19,3.04,6.69,3.62,10.3-3-3.17-7.23-5.16-11.94-5.16-9.08,0-16.43,7.36-16.43,16.43,0,.17,0,.34.01.51Z" fill="#2d2e2d"/><path d="m61.7,39.52h0c0-14.34-12.47-27.71-24.53-35.46L30.86,0l-6.3,4.05C12.49,11.8.02,24.82.02,39.15H.02c0,.05,0,.1,0,.14v.2s0,0,0,0c0,.18,0,.35,0,.53,0,9.08,7.36,16.43,16.43,16.43,4.64,0,8.84-1.93,11.82-5.03-.56,3.53-1.71,6.95-3.48,10.08l-1.28,2.25h14.7l-1.25-2.16c-1.85-3.19-3.04-6.69-3.62-10.3,2.99,3.17,7.23,5.16,11.93,5.16,9.08,0,16.43-7.36,16.43-16.43,0-.17,0-.34,0-.51Z" fill="#2d2e2d"/><path d="m61.7,184.96h0c0-14.34-12.47-27.71-24.53-35.46l-6.31-4.05-6.3,4.05C12.49,157.24.02,170.26.02,184.59H.02s0,.1,0,.14v.2s0,0,0,0c0,.18,0,.36,0,.54,0,9.07,7.36,16.43,16.43,16.43,4.64,0,8.84-1.93,11.82-5.03-.56,3.53-1.71,6.95-3.48,10.08l-1.28,2.25h14.7l-1.25-2.15c-1.85-3.19-3.04-6.69-3.62-10.3,2.99,3.17,7.23,5.16,11.93,5.16,9.08,0,16.43-7.36,16.43-16.43,0-.17,0-.34,0-.51Z" fill="#2d2e2d"/><path d="m163.04,315.11h0c0,14.34,12.47,27.71,24.53,35.46l6.31,4.05,6.3-4.05c12.06-7.75,24.53-20.77,24.53-35.1h0c0-.05,0-.1,0-.14v-.19h0c0-.18.01-.36.01-.53,0-9.08-7.36-16.43-16.43-16.43-4.64,0-8.84,1.93-11.83,5.03.56-3.53,1.71-6.95,3.48-10.08l1.27-2.25h-14.7l1.25,2.15c1.84,3.19,3.04,6.69,3.62,10.3-3-3.17-7.23-5.16-11.94-5.16-9.08,0-16.43,7.36-16.43,16.43,0,.17,0,.34,0,.51Z" fill="#2d2e2d"/><path d="m224.73,39.52h0c0-14.34-12.47-27.71-24.53-35.46l-6.31-4.05-6.3,4.05c-12.06,7.75-24.53,20.76-24.53,35.1h0c0,.05,0,.1,0,.14v.2h0c0,.18,0,.35,0,.53,0,9.08,7.36,16.43,16.43,16.43,4.65,0,8.84-1.93,11.83-5.03-.56,3.53-1.71,6.95-3.48,10.08l-1.28,2.25h14.7l-1.25-2.16c-1.85-3.19-3.04-6.69-3.62-10.3,3,3.17,7.23,5.16,11.94,5.16,9.08,0,16.43-7.36,16.43-16.43,0-.17,0-.34,0-.51Z" fill="#2d2e2d"/><path d="m224.73,184.96h0c0-14.34-12.47-27.71-24.53-35.46l-6.31-4.05-6.3,4.05c-12.06,7.75-24.53,20.77-24.53,35.1h0s0,.1,0,.14v.2h0c0,.18,0,.36,0,.54,0,9.07,7.36,16.43,16.43,16.43,4.65,0,8.84-1.93,11.83-5.03-.56,3.53-1.71,6.95-3.48,10.08l-1.28,2.25h14.7l-1.25-2.15c-1.85-3.19-3.04-6.69-3.62-10.3,3,3.17,7.23,5.16,11.94,5.16,9.08,0,16.43-7.36,16.43-16.43,0-.17,0-.34,0-.51Z" fill="#2d2e2d"/><path d="m147.11,111.9h0c0-14.34-12.47-27.71-24.54-35.46l-6.3-4.05-6.31,4.05c-12.06,7.75-24.53,20.77-24.53,35.1h0c0,.05,0,.1,0,.14v.19h0c0,.18-.01.36-.01.54,0,9.08,7.36,16.43,16.43,16.43,4.64,0,8.84-1.94,11.83-5.03-.56,3.53-1.71,6.95-3.48,10.08l-1.27,2.25h14.7l-1.25-2.16c-1.84-3.19-3.04-6.69-3.62-10.3,2.99,3.17,7.23,5.16,11.94,5.16,9.07,0,16.43-7.36,16.43-16.43,0-.17,0-.34,0-.51Z" fill="#2d2e2d"/></g></svg>