<?xml version="1.0" encoding="UTF-8"?><svg id="b" xmlns="http://www.w3.org/2000/svg" viewBox="0 0 262.8 388.46"><g id="c"><path d="m227.6,208.65c0,.76,0,1.52-.04,2.28v.08c-.02.72-.08,1.46-.14,2.18v.02c-.98,11.61-6.09,22.43-14.68,30.86-9.67,9.49-22.61,14.78-36.37,14.88h-.52c-14.46,0-27.35-5.85-37.02-16.02,1.58,7.09,2.92,15.6,4.91,20.97,7.59,20.56,20.16,29.31,19.32,29.31h-63.31c-.84,0,11.75-8.75,19.32-29.31,1.98-5.37,3.32-13.88,4.92-20.97-9.69,10.17-22.59,16.02-37.02,16.02h-.52c-13.78-.1-26.69-5.39-36.38-14.88-8.59-8.43-13.7-19.24-14.68-30.86v-.02l-.02-.22-.1-1.78-.02-.18v-.08c-.04-.76-.04-1.52-.04-2.28.18-22.59,15.24-34.46,34.3-49.5,3.67-2.88,7.45-5.89,11.35-9.11,26.79-22.27,50.42-54.79,50.54-54.79s23.75,32.52,50.54,54.79c3.92,3.22,7.69,6.22,11.35,9.11,19.06,15.04,34.14,26.91,34.3,49.5Z" fill="#010101"/><path d="m217.02,212.45c-.2-.64-.42-1.26-.68-1.88-2.93-7.34-7.89-12.35-11.56-11.99-.07,0-.13-.02-.17-.08-3.8-6.33-9.55-11.53-16.88-14.56,2.72-1.9,8.57-.68,14.32,3.09-.5-.42-1.02-.84-1.56-1.24-6.91-5.12-14.44-6.69-16.82-3.46-.04.06-.06.1-.1.16-7.49-2.24-15.2-2.39-22.47-.72.36-3.47,5.87-6.57,13.1-7.43-.66,0-1.32,0-2,.06-8.59.52-15.34,4.17-15.1,8.17,0,.1.04.2.04.3-7.19,2.36-13.78,6.54-18.96,12.25-1.16-3.04.7-8.37,4.81-13.4-.48.46-.94.92-1.4,1.42-5.08,5.52-7.51,11.78-6.09,15.09.02.06.02.12-.02.17-1.04,1.4-2.02,2.87-2.88,4.42,0-4.52.02-9.19.02-13.93s0-9.81-.02-14.52c0-.17.19-.24.32-.14,1.43,1.05,3.19.86,3.6-.88,2.03,1.99,5.27,2.15,6.28-.06,0-.01-.02-.03-.02-.04,4.46,2.02,11.68,2.27,14.21.21.1-.09.1-.25-.02-.33-4.13-3.08-8.9-7.61-13.37-12.52-.05-.05-.07-.13-.04-.2.54-1.42.86-2.96.86-4.57,0-6.79-5.23-12.31-11.87-12.9-.1-.01-.18-.1-.18-.2-.15-13.82-.38-24.2-.63-29.08.19.55.38,1.06.55,1.5,2.52,6.75,6.32,14.55,9.92,20.53-1.45,1.28-2.89.74-6.18-.81,1.53,4.1,8.17,5.29,9.86,2.37-4.74-6.23-11.04-18.57-14.31-28.02-.06-.18-.3-.18-.36,0-3.28,9.45-9.57,21.79-14.31,28.02,1.7,2.92,8.33,1.73,9.86-2.37-3.29,1.55-4.72,2.1-6.18.81,3.6-5.98,7.4-13.78,9.92-20.53.17-.44.35-.95.55-1.5-.26,4.89-.48,15.27-.63,29.08,0,.1-.08.19-.18.2-6.63.59-11.87,6.12-11.87,12.9,0,1.61.32,3.14.86,4.57.03.07.01.15-.04.2-4.47,4.91-9.24,9.44-13.37,12.52-.11.08-.12.24-.02.33,2.52,2.06,9.75,1.81,14.21-.22,0,.01-.02.03-.02.04,1.01,2.21,4.25,2.05,6.28.06.41,1.74,2.17,1.93,3.6.87.14-.1.32-.03.32.14-.01,4.71-.02,9.55-.02,14.52s0,9.39.02,13.91c-.88-1.53-1.85-3.01-2.88-4.4-.04-.05-.05-.11-.02-.17,1.42-3.31-1.01-9.57-6.09-15.09-.46-.5-.92-.96-1.4-1.42,4.1,5.03,5.97,10.35,4.8,13.4-5.19-5.71-11.77-9.89-18.96-12.25,0-.1.04-.2.04-.3.24-4.01-6.51-7.65-15.1-8.17-.68-.06-1.34-.06-2-.06,7.23.86,12.74,3.96,13.1,7.43-7.27-1.67-14.98-1.52-22.49.72-.02-.06-.04-.1-.08-.16-2.38-3.22-9.91-1.66-16.82,3.46-.54.4-1.06.82-1.56,1.24,5.75-3.77,11.59-4.99,14.32-3.09-7.33,3.03-13.08,8.24-16.88,14.56-.04.06-.1.09-.17.08-3.67-.37-8.63,4.65-11.56,11.99-.26.62-.48,1.24-.68,1.88,2.88-6.11,7.11-10.21,10.43-10.17-3.27,7.23-4.11,15.5-2,23.53-3.12,2.16-2.86,9.49.72,16.88.3.62.62,1.2.94,1.78-2.62-6.35-2.76-12.34-.38-14.68.06.18.1.34.18.52,4.52,11.09,15.26,17.84,26.57,17.84,3.6,0,7.27-.7,10.79-2.14,5.73-2.32,10.21-6.75,12.6-12.46,2.86-6.76,2.37-14.38-1.49-20.89-.59-1-1.32-1.94-2.15-2.74-5.82-5.68-13.75-7.16-20.65-4.32-8.18,3.32-11.88,13.04-7.74,21.04,1.16,2.25,3.18,4.01,5.5,5,12.18,5.18,19.93-6.49,14.49-14.52-.58-.86-1.43-1.55-2.36-2-8.02-3.86-13.31,2.81-11.12,8.22.02.02.02.04.04.06.5,1.22,1.7,2.1,3.1,2.1,1.86,0,3.39-1.5,3.39-3.37s-1.52-3.36-3.39-3.36c-.46,0-.9.08-1.3.26.76-1.95,2.78-3.41,5.61-3.02,2.78.38,5.18,2.61,5.67,5.37,1.03,5.74-4.36,11.72-12.34,8.75-3.13-1.17-5.66-3.78-6.55-7.01-1.74-6.34,1.5-13.15,7.74-15.69,4.13-1.68,8.67-1.64,12.78.08,4.13,1.72,7.31,4.95,8.99,9.09,2.14,5.23,2.1,10.98-.08,16.18-2.18,5.21-6.27,9.23-11.49,11.37-13.62,5.55-29.22-1-34.78-14.62-.08-.24-.14-.46-.24-.7,3.32-.64,8.07,3.22,11.51,9.35-.26-.6-.52-1.22-.82-1.84-1.38-2.84-3.06-5.29-4.81-7.17-6.58-7.07-9.08-17.29-5.12-26.11.03-.07.06-.14.09-.21,2.84,1.9,3.22,8.13.98,14.9.28-.58.54-1.2.8-1.82,1.4-3.51,2.1-6.94,2.14-9.83.1-8.8,5.54-16.91,13.67-20.29.07-.03.14-.06.21-.08.14-.06.3-.1.44-.16,1.16,3.16-1.74,8.47-7.07,12.96.56-.36,1.1-.74,1.66-1.14,1.89-1.41,3.54-2.93,4.88-4.48,6.34-7.28,15.83-11.37,25.25-9.24.07.02.14.03.21.05-1.48,2.92-6.93,4.93-13.56,4.93.64.08,1.3.14,1.98.18,2.78.17,5.4-.01,7.69-.47,8.42-1.68,17.34.01,23.55,5.93.83.79,1.63,1.61,2.39,2.47-2.86,2.04-8.81-.22-14.1-5.33.4.5.84,1,1.3,1.5,5.4,5.88,11.92,8.82,15.17,7.04.09-.05.19-.03.25.05,1.62,2.22,4.24,9.27,4.24,9.27.03,6.49.07,12.63.12,18.33-3.2-1-5.72-6.45-6.14-13.35-.04.65-.06,1.32-.06,2,0,7.76,2.66,14.13,6.12,15.3.08.03.13.1.13.18.05,4.6.1,8.83.16,12.68-2.33-.79-4.16-4.8-4.46-9.85-.03.49-.05.98-.05,1.48,0,5.68,1.92,10.36,4.44,11.29.07.03.12.1.12.17.21,12.24.49,19.7.79,19.7s.58-7.45.8-19.7c0-.08.05-.14.12-.17,2.52-.94,4.44-5.61,4.44-11.29,0-.5-.02-.99-.05-1.48-.3,5.05-2.13,9.05-4.46,9.85.06-3.86.11-8.09.16-12.68,0-.08.05-.15.13-.18,3.46-1.17,6.12-7.54,6.12-15.3,0-.68-.03-1.35-.07-2-.41,6.91-2.94,12.36-6.14,13.35.05-5.7.09-11.85.12-18.33,0,0,2.62-7.05,4.24-9.27.06-.08.16-.1.25-.05,3.26,1.79,9.77-1.16,15.17-7.04.46-.5.9-1,1.3-1.5-5.28,5.11-11.23,7.37-14.1,5.33.77-.86,1.57-1.68,2.39-2.47,6.22-5.92,15.14-7.61,23.55-5.93,2.29.46,4.92.64,7.69.47.66-.04,1.34-.1,1.98-.18-6.63,0-12.08-2-13.56-4.93.07-.02.14-.03.21-.05,9.42-2.13,18.91,1.96,25.25,9.24,1.35,1.55,2.99,3.07,4.88,4.48.56.4,1.1.79,1.66,1.14-5.33-4.48-8.23-9.79-7.07-12.96.14.06.3.1.44.16.07.03.14.05.21.08,8.13,3.38,13.57,11.48,13.68,20.29.03,2.88.73,6.32,2.14,9.83.26.62.52,1.24.8,1.82-2.24-6.77-1.86-13,.98-14.9.03.07.06.14.09.21,3.96,8.81,1.47,19.03-5.12,26.11-1.75,1.88-3.43,4.33-4.81,7.17-.3.62-.56,1.24-.82,1.84,3.45-6.13,8.19-9.99,11.51-9.35-.1.24-.16.46-.24.7-5.57,13.62-21.17,20.17-34.78,14.62-5.23-2.14-9.31-6.17-11.5-11.37-2.18-5.21-2.22-10.96-.08-16.18,1.68-4.14,4.87-7.37,8.99-9.09,4.49-1.88,9.5-1.75,13.92.44,2.12,1.05,3.83,2.84,4.91,4.94,6.64,12.84-4.75,21.43-13.25,16.95-.95-.5-1.74-1.3-2.29-2.21-4.8-7.89,1.73-13.45,6.96-11.3,1.28.52,2.2,1.52,2.66,2.7-.4-.18-.84-.26-1.3-.26-1.86,0-3.38,1.5-3.38,3.36s1.52,3.37,3.38,3.37c1.4,0,2.6-.88,3.1-2.1,0-.02.02-.04.04-.06,2.19-5.41-3.08-12.07-11.1-8.23-.94.45-1.79,1.14-2.37,2-5.44,8.03,2.29,19.7,14.46,14.54,2.34-.99,4.36-2.75,5.53-5.01,4.14-8,.45-17.73-7.74-21.05-6.88-2.83-14.78-1.37-20.61,4.28-.84.81-1.57,1.75-2.17,2.75-3.88,6.52-4.37,14.15-1.51,20.92,2.38,5.71,6.87,10.13,12.6,12.46,3.52,1.44,7.19,2.14,10.79,2.14,11.31,0,22.05-6.75,26.57-17.84.08-.18.12-.34.18-.52,2.38,2.34,2.24,8.33-.38,14.68.32-.58.64-1.16.94-1.78,3.58-7.39,3.84-14.72.72-16.88,2.1-8.03,1.26-16.3-2-23.53,3.32-.04,7.55,4.06,10.43,10.17Zm-81.8-40.72c-.33.85-1.54.84-2.65.34,0-1.12,0-2.21-.01-3.32.68-.06,1.35-.15,2-.32.17.85.34,1.7.5,2.51-.01,0-.02-.01-.03-.02.01.04.04.07.05.11.05.22.09.48.14.7Zm.87-.21c-.25-1.02-.5-2.12-.76-3.33.88-.28,1.71-.64,2.5-1.09.69,1.62,1.38,3.18,2.07,4.63-.96,1.08-1.97.82-3.8-.21Zm14.52.21c-2.22,1.11-4.43.85-8.73-.23-.06-.01-.11-.05-.14-.1-.8-1.49-1.64-3.18-2.48-5.04-.04-.08-.02-.19.06-.24,1.13-.87,2.13-1.89,2.92-3.07,2.72,3.07,5.57,6.06,8.38,8.69Zm-38.43,0c2.81-2.62,5.66-5.62,8.38-8.69.79,1.18,1.79,2.2,2.92,3.07.07.06.1.16.06.25-.85,1.86-1.68,3.55-2.48,5.04-.03.05-.08.09-.14.1-4.3,1.08-6.51,1.33-8.73.23Zm10.72,0c.69-1.45,1.38-3.01,2.07-4.63.78.45,1.62.81,2.5,1.09-.26,1.2-.52,2.31-.77,3.33-1.82,1.03-2.83,1.29-3.8.21Zm4.66,0c.05-.22.09-.48.14-.71.01-.04.04-.07.05-.11-.01,0-.02.01-.03.02.17-.8.34-1.65.5-2.5.65.16,1.32.26,2,.32,0,1.11,0,2.2-.01,3.32-1.12.51-2.32.51-2.66-.34Z" fill="#fff"/><path d="m96.59,220.57c0,6.79-5.51,12.3-12.31,12.3s-12.3-5.51-12.3-12.3,5.51-12.31,12.3-12.31,12.31,5.51,12.31,12.31Z" fill="#fff"/><path d="m191.05,220.57c0,6.79-5.51,12.3-12.3,12.3s-12.3-5.51-12.3-12.3,5.51-12.31,12.3-12.31,12.3,5.51,12.3,12.31Z" fill="#fff"/><path d="m131.4,131.81s-4.31,6.06-9.99,6.97c-5.67.91-6.84-.66-6.84-.66l16.82-29.24,15.14,28.9s-3.31,2.13-7.95,0c-4.69-2.16-7.19-5.97-7.19-5.97Z" fill="#fff"/><path d="m134.36,162.06c0,1.63-1.32,2.96-2.96,2.96s-2.96-1.33-2.96-2.96,1.32-2.96,2.96-2.96,2.96,1.32,2.96,2.96Z" fill="#010101"/><path d="m88.34,220.57c0,2.24-1.82,4.06-4.06,4.06s-4.06-1.82-4.06-4.06,1.82-4.07,4.06-4.07,4.06,1.82,4.06,4.07Z" fill="#010101"/><path d="m182.81,220.57c0,2.24-1.82,4.06-4.06,4.06s-4.06-1.82-4.06-4.06,1.82-4.07,4.06-4.07,4.06,1.82,4.06,4.07Z" fill="#010101"/><path d="m133.74,153.84c0,1.29-1.04,2.33-2.33,2.33s-2.34-1.04-2.34-2.33,1.05-2.33,2.34-2.33,2.33,1.04,2.33,2.33Z" fill="#010101"/><path d="m132.93,146.8c0,.84-.68,1.53-1.52,1.53s-1.53-.68-1.53-1.53.68-1.52,1.53-1.52,1.52.68,1.52,1.52Z" fill="#010101"/><circle cx="114.91" cy="214.58" r="4.65" fill="#fff"/><circle cx="118.07" cy="229.35" r="3.15" fill="#fff"/><path d="m114.37,240.43c0,1.44-1.17,2.62-2.62,2.62s-2.61-1.17-2.61-2.62,1.17-2.61,2.61-2.61,2.62,1.17,2.62,2.61Z" fill="#fff"/><path d="m142.16,214.58c0,2.56,2.08,4.65,4.65,4.65s4.65-2.08,4.65-4.65-2.08-4.65-4.65-4.65-4.65,2.08-4.65,4.65Z" fill="#fff"/><path d="m140.5,229.35c0,1.74,1.41,3.15,3.15,3.15s3.15-1.41,3.15-3.15-1.41-3.15-3.15-3.15-3.15,1.41-3.15,3.15Z" fill="#fff"/><path d="m147.35,240.43c0,1.44,1.17,2.62,2.62,2.62s2.61-1.17,2.61-2.62-1.17-2.61-2.61-2.61-2.62,1.17-2.62,2.61Z" fill="#fff"/><path d="m106.78,133.64s-7.47,20.3-16.19,25.46c-8.72,5.17-20.67,8-20.67,8,0,0,38.6,9.12,36.86-33.47Z" fill="#fff"/><path d="m154.2,133.64s7.47,20.3,16.19,25.46c8.72,5.17,20.67,8,20.67,8,0,0-38.6,9.12-36.86-33.47Z" fill="#fff"/><rect width="262.8" height="388.46" fill="none"/></g></svg>