<?xml version="1.0" encoding="UTF-8"?><svg id="b" xmlns="http://www.w3.org/2000/svg" viewBox="0 0 262.8 388.46"><g id="c"><path d="m85.44,34.24h0c0-.2.01-.39.01-.59,0-9.95-7.55-18.01-16.87-18.01-6.38,0-11.94,3.79-14.8,9.37-2.86-5.59-8.42-9.37-14.8-9.37-9.31,0-16.87,8.07-16.87,18.01,0,.19,0,.37.01.56h0c0,15.72,12.8,30.38,25.18,38.88l6.47,4.44,6.47-4.44c12.38-8.5,25.18-22.77,25.18-38.48h0c0-.06,0-.11,0-.16v-.21Z" fill="#e92327"/><path d="m240.67,34.24h0c0-.2,0-.39,0-.59,0-9.95-7.55-18.01-16.87-18.01-6.38,0-11.94,3.79-14.8,9.37-2.86-5.59-8.42-9.37-14.8-9.37-9.31,0-16.87,8.07-16.87,18.01,0,.19,0,.37,0,.56h0c0,15.72,12.8,30.38,25.18,38.88l6.47,4.44,6.47-4.44c12.38-8.5,25.18-22.77,25.18-38.48h0c0-.06,0-.11,0-.16v-.21Z" fill="#e92327"/><path d="m85.44,181.89h0c0-.19.01-.39.01-.59,0-9.95-7.55-18.02-16.87-18.02-6.38,0-11.94,3.79-14.8,9.38-2.86-5.59-8.42-9.38-14.8-9.38-9.31,0-16.87,8.07-16.87,18.02,0,.19,0,.37.01.56h0c0,15.72,12.8,30.38,25.18,38.88l6.47,4.44,6.47-4.44c12.38-8.5,25.18-22.77,25.18-38.48h0c0-.06,0-.11,0-.16v-.21Z" fill="#e92327"/><path d="m163.06,107.51h0c0-.19.01-.39.01-.59,0-9.95-7.55-18.02-16.86-18.02-6.39,0-11.94,3.79-14.8,9.37-2.87-5.59-8.42-9.37-14.8-9.37-9.31,0-16.86,8.07-16.86,18.02,0,.19,0,.37,0,.56h0c0,15.72,12.8,30.39,25.18,38.88l6.47,4.44,6.47-4.44c12.38-8.5,25.18-22.77,25.18-38.48h0c0-.06,0-.11,0-.16v-.21Z" fill="#e92327"/><path d="m99.75,282.79h0c0,.19,0,.39,0,.59,0,9.95,7.55,18.02,16.86,18.02,6.38,0,11.94-3.79,14.8-9.38,2.87,5.59,8.42,9.38,14.8,9.38,9.31,0,16.86-8.07,16.86-18.02,0-.19,0-.37,0-.56h0c0-15.72-12.8-30.38-25.18-38.88l-6.47-4.44-6.47,4.44c-12.38,8.5-25.18,22.77-25.18,38.48h0c0,.06,0,.11,0,.16v.21Z" fill="#e92327"/><path d="m240.67,181.89h0c0-.19,0-.39,0-.59,0-9.95-7.55-18.02-16.87-18.02-6.38,0-11.94,3.79-14.8,9.38-2.86-5.59-8.42-9.38-14.8-9.38-9.31,0-16.87,8.07-16.87,18.02,0,.19,0,.37,0,.56h0c0,15.72,12.8,30.38,25.18,38.88l6.47,4.44,6.47-4.44c12.38-8.5,25.18-22.77,25.18-38.48h0c0-.06,0-.11,0-.16v-.21Z" fill="#e92327"/><path d="m177.36,354.22h0c0,.19-.01.39-.01.59,0,9.95,7.55,18.02,16.87,18.02,6.38,0,11.94-3.79,14.8-9.37,2.87,5.59,8.42,9.37,14.8,9.37,9.32,0,16.87-8.07,16.87-18.02,0-.19,0-.37,0-.56h0c0-15.72-12.8-30.39-25.18-38.88l-6.47-4.44-6.47,4.44c-12.38,8.5-25.18,22.77-25.18,38.48h0c0,.06,0,.11,0,.16v.21Z" fill="#e92327"/><path d="m22.13,354.22h0c0,.19-.01.39-.01.59,0,9.95,7.55,18.02,16.87,18.02,6.38,0,11.94-3.79,14.8-9.37,2.87,5.59,8.42,9.37,14.8,9.37,9.32,0,16.87-8.07,16.87-18.02,0-.19,0-.37-.01-.56h0c0-15.72-12.8-30.39-25.18-38.88l-6.47-4.44-6.47,4.44c-12.38,8.5-25.18,22.77-25.18,38.48h0c0,.06,0,.11,0,.16v.21Z" fill="#e92327"/><rect width="262.8" height="388.46" fill="none"/></g></svg>