<?xml version="1.0" encoding="UTF-8"?><svg id="b" xmlns="http://www.w3.org/2000/svg" viewBox="0 0 262.8 388.46"><g id="c"><path d="m178.39,110.42c-35.46-3.74-46.9,19.4-49.79,27.02-2.89-7.62-14.33-30.76-49.79-27.02-33.09,6.12-44.09,35.37-39.79,63.31,6.84,44.32,74.65,73.53,89,101l.59,1.08.58-1.08c14.35-27.47,82.17-56.68,89-101,4.3-27.94-6.7-57.19-39.79-63.31Z" fill="#e21f26"/><circle cx="84.3" cy="170.88" r="8.59" fill="#fff"/><path d="m181.93,170.88c0,4.75-3.85,8.59-8.59,8.59s-8.59-3.85-8.59-8.59,3.85-8.59,8.59-8.59,8.59,3.85,8.59,8.59Z" fill="#fff"/><path d="m79.15,116.1c35.46-3.74,46.9,19.4,49.79,27.02,2.89-7.62,14.33-30.76,49.79-27.02,28.27,5.23,40.41,27.34,40.67,51.09.42-24.5-11.61-47.72-40.67-53.09-35.46-3.74-46.9,19.4-49.79,27.02-2.89-7.62-14.33-30.76-49.79-27.02-29.06,5.38-41.08,28.59-40.67,53.09.26-23.75,12.4-45.86,40.67-51.09Z" fill="#fff"/><path d="m202.21,146.89c-3.8-6.37-9.57-11.62-16.94-14.66,2.72-1.9,8.57-.68,14.32,3.08-.5-.42-1.02-.84-1.56-1.24-6.91-5.12-14.44-6.69-16.82-3.46-.04.06-.06.1-.1.16-7.49-2.24-15.2-2.38-22.47-.72.36-3.46,5.87-6.57,13.1-7.43-.66,0-1.32,0-2,.06-8.59.52-15.34,4.16-15.1,8.17,0,.1.04.2.04.3-7.19,2.36-13.78,6.55-18.96,12.26-1.16-3.04.7-8.37,4.81-13.4-.48.46-.94.92-1.4,1.42-3.75,4.07-6.05,8.55-6.43,11.95-.3,2.71-1.2,5.31-2.53,7.69l-.03.05c-.4.69-.78,1.37-1.13,2.08v-.98l-.06.97-.06-.98v.97c-.35-.72-.72-1.41-1.12-2.09l-.03-.05c-1.36-2.33-2.25-4.9-2.52-7.58-.35-3.41-2.66-7.93-6.44-12.03-.46-.5-.92-.96-1.4-1.42,4.1,5.03,5.97,10.35,4.8,13.4-5.19-5.71-11.77-9.89-18.96-12.26,0-.1.04-.2.04-.3.24-4-6.51-7.65-15.1-8.17-.68-.06-1.34-.06-2-.06,7.23.86,12.74,3.97,13.1,7.43-7.27-1.66-14.98-1.52-22.49.72-.02-.06-.04-.1-.08-.16-2.38-3.22-9.91-1.66-16.82,3.46-.54.4-1.06.82-1.56,1.24,5.75-3.76,11.59-4.99,14.32-3.08-7.37,3.04-13.14,8.29-16.94,14.66-3.68-.48-8.71,4.56-11.67,11.97-.26.62-.48,1.24-.68,1.88,2.88-6.11,7.11-10.21,10.43-10.17-3.26,7.23-4.1,15.5-2,23.53-3.12,2.16-2.87,9.49.72,16.88.3.62.62,1.2.94,1.78-2.62-6.35-2.76-12.33-.38-14.68.06.18.1.34.18.52,4.52,11.09,15.26,17.84,26.57,17.84,3.6,0,7.27-.7,10.79-2.14,5.73-2.32,10.21-6.75,12.59-12.46,2.4-5.68,2.44-11.95.11-17.67-1.27-3.12-3.26-5.85-5.97-7.86-5.53-4.08-12.37-4.92-18.43-2.42-7.73,3.14-11.46,11.99-8.35,19.71,1.3,3.22,4.06,5.69,7.35,6.81,10.54,3.6,17.35-5.55,14.29-13.08-.89-2.19-2.72-3.82-4.97-4.56-7.12-2.34-11.58,3.81-9.54,8.86.02.02.02.04.04.06.5,1.22,1.7,2.11,3.11,2.11,1.86,0,3.38-1.5,3.38-3.37s-1.52-3.36-3.38-3.36c-.46,0-.9.08-1.3.26.46-1.18,1.38-2.18,2.66-2.7,5.06-2.07,11.34,3.05,7.39,10.54-.81,1.53-2.13,2.81-3.75,3.45-8.12,3.23-18.04-4.62-12.73-16.39,1.32-2.92,3.62-5.29,6.6-6.5,4.11-1.67,8.64-1.62,12.74.1,4.12,1.72,7.31,4.95,8.99,9.09,2.14,5.23,2.1,10.97-.08,16.18-2.18,5.21-6.27,9.23-11.49,11.38-13.62,5.55-29.22-1-34.78-14.62-.08-.24-.14-.46-.24-.7,3.32-.64,8.07,3.22,11.51,9.35-.26-.6-.52-1.22-.82-1.84-1.38-2.84-3.06-5.29-4.81-7.17-6.58-7.08-9.08-17.29-5.12-26.11.03-.07.06-.14.09-.2,2.84,1.9,3.22,8.13.98,14.9.28-.58.54-1.2.8-1.82,1.4-3.5,2.1-6.94,2.14-9.83.1-8.8,5.54-16.91,13.67-20.29.07-.03.14-.06.21-.09.14-.06.3-.1.44-.16,1.16,3.16-1.74,8.47-7.07,12.96.56-.36,1.1-.74,1.66-1.14,1.89-1.41,3.54-2.93,4.88-4.48,6.34-7.28,15.83-11.37,25.25-9.25.07.02.14.03.21.05-1.48,2.92-6.93,4.93-13.56,4.93.64.08,1.3.14,1.98.18,2.78.17,5.41-.01,7.7-.47,8.42-1.68,17.36.02,23.57,5.95.82.78,1.61,1.6,2.37,2.45-2.86,2.04-8.81-.22-14.1-5.33.4.5.84,1,1.3,1.5,3.66,3.98,7.83,6.62,11.15,7.35,3.4.75,6.44,2.7,7.99,5.81.18.36.35.73.52,1.1.02.06.06.1.08.16.24.5.46,1.02.68,1.54.03.08.1.12.15.18l-1.08,18.49c-3.07-1.22-5.45-6.59-5.85-13.3-.04.66-.07,1.32-.07,2,0,7.44,2.44,13.65,5.69,15.19l-.08,1.35s-.04,4.44-.85,10.44c-1.5-1.71-2.59-4.88-2.82-8.66-.03.49-.05.98-.05,1.48,0,1.36.11,2.67.31,3.88,1.08,6.41,1.07,13.03-1.22,19.12-.04.12-.09.23-.13.35-1.51,3.93-5.89,5.9-9.94,4.73-2.31-.67-4.96-1.05-7.98-1.05-12.63,0-17,10.53-16.83,14.24.16,3.73,2.27,10.85,11.01,10.85s9.39-7.45,9.39-10.03c0-.59-.1-1.34-.29-2.14,2.91-.87,6.35-2.7,9.61-6.04,5.52,3.57,10.28,9.63,10.28,19.51,0,12.86.78,17.23,1.1,18.49v.39s.03-.1.06-.18c.02.08.04.14.06.18v-.39c.32-1.25,1.11-5.62,1.11-18.49,0-2.09.25-3.98.64-5.74l1.48-4.48c.16-.35.33-.68.5-1.01l.83-1.46c1.84-2.91,4.24-5.16,6.82-6.83,3.26,3.34,6.69,5.17,9.61,6.04-.19.8-.3,1.56-.3,2.14,0,2.59.65,10.03,9.39,10.03s10.85-7.12,11-10.85c.17-3.72-4.2-14.24-16.83-14.24-3.03,0-5.67.38-7.98,1.05-4.05,1.17-8.43-.8-9.94-4.73-.04-.12-.09-.23-.13-.35-2.29-6.09-2.3-12.7-1.22-19.12.2-1.21.32-2.51.32-3.88,0-.5-.02-.99-.05-1.48-.23,3.78-1.31,6.95-2.82,8.66-.81-6-.85-10.45-.85-10.45l-.08-1.34c3.26-1.53,5.69-7.74,5.69-15.19,0-.68-.03-1.35-.07-2-.4,6.71-2.79,12.08-5.85,13.3l-1.08-18.49c.05-.07.13-.11.16-.19.22-.52.44-1.04.68-1.54.02-.06.06-.1.08-.16.17-.37.34-.73.52-1.09,1.55-3.12,4.59-5.07,7.99-5.82,3.32-.73,7.49-3.37,11.15-7.35.46-.5.9-1,1.3-1.5-5.28,5.11-11.23,7.37-14.1,5.33.77-.86,1.56-1.68,2.39-2.46,6.22-5.92,15.14-7.62,23.56-5.94,2.29.46,4.91.64,7.69.47.66-.04,1.34-.1,1.98-.18-6.63,0-12.08-2-13.55-4.93.07-.02.14-.03.21-.05,9.41-2.13,18.91,1.96,25.25,9.24,1.34,1.54,2.99,3.07,4.88,4.48.56.4,1.1.78,1.66,1.14-5.33-4.49-8.23-9.79-7.07-12.96.14.06.3.1.44.16.07.03.14.06.21.09,8.13,3.38,13.57,11.48,13.67,20.29.03,2.88.73,6.32,2.14,9.83.26.62.52,1.24.8,1.82-2.24-6.77-1.86-12.99.98-14.9.03.07.06.14.09.2,3.96,8.82,1.46,19.03-5.12,26.11-1.75,1.88-3.43,4.33-4.81,7.17-.3.62-.56,1.24-.82,1.84,3.44-6.13,8.19-9.99,11.51-9.35-.1.24-.16.46-.24.7-5.57,13.62-21.17,20.16-34.78,14.62-5.23-2.14-9.31-6.17-11.49-11.38-2.18-5.2-2.22-10.95-.08-16.18,1.68-4.15,4.87-7.37,8.99-9.09,4.11-1.72,8.65-1.76,12.78-.08,6.73,2.75,9.98,10.46,7.22,17.2-.9,2.2-2.69,3.98-4.84,5-9.25,4.36-15.47-3.2-13.17-9.57.55-1.53,2.46-3.26,4.01-3.75,3.51-1.12,6.04.48,6.92,2.72-.4-.18-.84-.26-1.3-.26-1.86,0-3.39,1.5-3.39,3.36s1.52,3.37,3.39,3.37c1.4,0,2.6-.88,3.1-2.11,0-.02.02-.04.04-.06,2.19-5.41-3.1-12.11-11.15-8.2-.92.44-1.74,1.12-2.32,1.96-5.46,8.03,2.29,19.73,14.48,14.55,2.31-.99,4.32-2.73,5.48-4.96,4.17-8.01.48-17.76-7.72-21.08-6.89-2.83-14.8-1.36-20.62,4.29-.83.81-1.56,1.74-2.15,2.74-3.88,6.52-4.38,14.15-1.51,20.93,2.38,5.71,6.87,10.13,12.59,12.46,3.52,1.44,7.19,2.14,10.79,2.14,11.32,0,22.05-6.75,26.57-17.84.08-.18.12-.34.18-.52,2.38,2.34,2.24,8.33-.38,14.68.32-.58.64-1.16.94-1.78,3.59-7.39,3.84-14.72.72-16.88,2.1-8.03,1.26-16.3-2-23.53,3.32-.04,7.55,4.06,10.43,10.17-.2-.64-.42-1.26-.68-1.88-2.96-7.41-7.99-12.46-11.67-11.97Zm-94.6,76.45c-.82-2.5-2.53-5.13-5.41-5.13-4.21,0-5.66,6.8,1.62,6.8.86,0,1.89-.12,3.01-.38.12.62.23,1.26.23,2.01,0,7.6-6.32,8.74-8.75,8.74s-9.07-1.79-9.07-9.89,7.45-11.65,14.25-11.65c3.09,0,8.38,1.06,13.24,3.97-2.44,2.75-5.44,4.76-9.13,5.54Zm-1.06.19c-.78.11-1.57.18-2.4.18,0,0-4.05.32-4.05-2.76,0-2.58,4.88-2.14,6.45,2.58Zm47.83-9.7c6.8,0,14.26,3.56,14.26,11.65s-6.64,9.89-9.06,9.89-8.74-1.14-8.74-8.74c0-.75.11-1.38.23-2.01,1.12.26,2.14.38,3,.38,7.29,0,5.83-6.8,1.62-6.8-2.87,0-4.59,2.63-5.4,5.13-3.69-.78-6.69-2.79-9.13-5.54,4.86-2.91,10.15-3.96,13.23-3.96Zm-3.04,9.7c1.57-4.71,6.44-5.16,6.44-2.58,0,3.08-4.05,2.76-4.05,2.76-.83,0-1.63-.07-2.4-.18Zm-21.7-30.75c-.23.07-.46.14-.7.14s-.47-.07-.7-.14c.4-2.98.61-6.29.7-9.81.09,3.52.3,6.83.7,9.81Z" fill="#fff"/><polygon points="128.85 151.82 128.88 152.21 128.88 151.82 128.85 151.82" fill="#fff"/><path d="m128.88,256.73v-.06s-.02.06-.02.06h.02Z" fill="#fff"/><polygon points="128.99 151.82 128.99 152.22 129.01 151.82 128.99 151.82" fill="#fff"/><path d="m129.01,256.73s0-.02-.02-.06v.06h.02Z" fill="#fff"/><path d="m132.67,218.63c0,2.06-1.67,3.74-3.74,3.74s-3.74-1.67-3.74-3.74,1.67-3.74,3.74-3.74,3.74,1.67,3.74,3.74Z" fill="#e21f26"/><path d="m131.51,208.59c0,1.42-1.15,2.57-2.57,2.57s-2.57-1.15-2.57-2.57,1.15-2.57,2.57-2.57,2.57,1.15,2.57,2.57Z" fill="#e21f26"/><path d="m130.68,200.7c0,.96-.78,1.74-1.74,1.74s-1.74-.78-1.74-1.74.78-1.74,1.74-1.74,1.74.78,1.74,1.74Z" fill="#e21f26"/><path d="m118.62,217.8s5.73,10.04,7.74,22.99c1.63,10.48,2.49,19.92,2.49,19.92,0,0,.85-8.55,2.65-20.34,1.8-11.79,3.3-18.68,8.53-22.58,5.23-3.9-6.97,3.4-6.97,3.4l-4.46,3.39-5.59-4.64-4.4-2.16Z" fill="#fff"/><path d="m87.7,170.58c0,1.87-1.52,3.39-3.39,3.39s-3.4-1.52-3.4-3.39,1.52-3.39,3.4-3.39,3.39,1.52,3.39,3.39Z" fill="#e21f26"/><path d="m176.73,170.58c0,1.87-1.52,3.39-3.4,3.39s-3.39-1.52-3.39-3.39,1.52-3.39,3.39-3.39,3.4,1.52,3.4,3.39Z" fill="#e21f26"/><rect width="262.8" height="388.46" fill="none"/></g></svg>