<?xml version="1.0" encoding="UTF-8"?><svg id="b" xmlns="http://www.w3.org/2000/svg" viewBox="0 0 262.8 388.46"><g id="c"><polygon points="41.14 16.92 9.36 55.8 9.37 55.8 9.36 55.81 41.14 93.28 73.46 56.1 41.14 16.92" fill="#e92327"/><polygon points="221.03 16.92 189.25 55.8 189.26 55.8 189.25 55.81 221.03 93.28 253.34 56.1 221.03 16.92" fill="#e92327"/><polygon points="41.14 295.19 9.36 334.06 9.37 334.06 9.36 334.08 41.14 371.55 73.46 334.37 41.14 295.19" fill="#e92327"/><polygon points="41.14 156.05 9.36 194.93 9.37 194.93 9.36 194.94 41.14 232.41 73.46 195.24 41.14 156.05" fill="#e92327"/><polygon points="221.03 156.05 189.25 194.93 189.26 194.93 189.25 194.94 221.03 232.41 253.34 195.24 221.03 156.05" fill="#e92327"/><polygon points="221.12 295.19 189.34 334.06 189.35 334.06 189.34 334.08 221.12 371.55 253.44 334.37 221.12 295.19" fill="#e92327"/><rect width="262.8" height="388.46" fill="none"/></g></svg>