<?xml version="1.0" encoding="UTF-8"?><svg id="b" xmlns="http://www.w3.org/2000/svg" viewBox="0 0 262.8 388.46"><g id="c"><polygon points="41.14 16.92 9.36 55.8 9.37 55.8 9.36 55.81 41.14 93.28 73.46 56.1 41.14 16.92" fill="#e92327"/><polygon points="221.02 16.92 189.25 55.8 189.25 55.8 189.25 55.81 221.02 93.28 253.35 56.1 221.02 16.92" fill="#e92327"/><polygon points="41.14 295.18 9.36 334.07 9.37 334.07 9.36 334.07 41.14 371.55 73.46 334.37 41.14 295.18" fill="#e92327"/><polygon points="41.14 107.29 9.36 146.17 9.37 146.17 9.36 146.18 41.14 183.65 73.46 146.48 41.14 107.29" fill="#e92327"/><polygon points="131.13 156.05 99.35 194.93 99.36 194.93 99.35 194.94 131.13 232.41 163.45 195.24 131.13 156.05" fill="#e92327"/><polygon points="41.14 203.19 9.36 242.07 9.37 242.07 9.36 242.08 41.14 279.55 73.46 242.37 41.14 203.19" fill="#e92327"/><polygon points="221.12 107.29 189.34 146.17 189.35 146.17 189.34 146.18 221.12 183.65 253.44 146.48 221.12 107.29" fill="#e92327"/><polygon points="221.12 203.19 189.34 242.07 189.35 242.07 189.34 242.08 221.12 279.55 253.44 242.37 221.12 203.19" fill="#e92327"/><polygon points="221.12 295.05 189.34 333.93 189.35 333.93 189.34 333.94 221.12 371.41 253.44 334.23 221.12 295.05" fill="#e92327"/><rect width="262.8" height="388.46" fill="none"/></g></svg>