<?xml version="1.0" encoding="UTF-8"?><svg id="b" xmlns="http://www.w3.org/2000/svg" viewBox="0 0 262.8 388.46"><g id="c"><path d="m190.78,194.23c-19.79,19.31-46.19,57.94-59.38,86.92-13.19-28.97-39.59-67.6-59.38-86.92,19.8-19.32,46.19-57.94,59.38-86.92,13.2,28.97,39.59,67.6,59.38,86.92Z" fill="#e21f26"/><path d="m123.69,166.39c5,2.51,7.33,26.66,7.39,28.07l.15.02c.08-1.38,2.4-24.96,7.88-28.03-6.82-2.76-7.61-13.13-7.61-13.13,0,0-.96,10.36-7.82,13.07Zm9.75,1.75c-.12,2.06-2.04,14.34-2.04,14.34,0,0-1.99-12.3-2.08-14.36-.08-2.05,2.07-1.98,2.07-1.98,0,0,2.18-.06,2.05,1.99Z" fill="#fff"/><path d="m111.6,165.54c6.01,4.09,2.75,8.9,2.75,8.9,0,0,11.81,4.25,14.46,16.69,0,0,.59-19.87-17.21-25.59Z" fill="#fff"/><path d="m151.2,165.54c-17.81,5.72-17.22,25.59-17.22,25.59,2.65-12.43,14.47-16.69,14.47-16.69,0,0-3.26-4.82,2.75-8.9Zm-6.58,8.14s.02-.07.04-.1c0,.03,0,.04.02.07-.02,0-.04.02-.06.02Z" fill="#fff"/><path d="m153.66,191.24c-1.47,2.53-15.65,3.7-16.47,3.74v.08c.8.04,14.63,1.21,16.44,3.99,1.62-3.45,7.7-3.85,7.7-3.85,0,0-6.08-.49-7.67-3.95Zm-1.03,4.93c-1.21-.06-8.41-1.03-8.41-1.03,0,0,7.22-1,8.42-1.05,1.2-.04,1.16,1.05,1.16,1.05,0,0,.03,1.1-1.17,1.03Z" fill="#fff"/><path d="m111.64,199.5c1.47-2.53,15.65-3.71,16.47-3.74v-.08c-.8-.04-14.63-1.21-16.44-3.99-1.62,3.45-7.7,3.85-7.7,3.85,0,0,6.08.49,7.67,3.95Zm1.03-4.93c1.2.06,8.41,1.03,8.41,1.03,0,0-7.22,1-8.42,1.05-1.2.04-1.16-1.05-1.16-1.05,0,0-.03-1.1,1.17-1.04Z" fill="#fff"/><path d="m126.75,145.12c-1.77,3.39-4.87,2.24-4.87,2.24,0,0-1.3,6.29-8.21,8.83,0,0,11.52-1.66,13.08-11.07Z" fill="#fff"/><path d="m137.18,145.2c1.69,9.4,13.23,10.91,13.23,10.91-6.95-2.46-8.33-8.73-8.33-8.73,0,0-3.08,1.18-4.9-2.18Zm4.11,4.02s-.03-.02-.05-.03c.02,0,.02,0,.04,0,0,.01,0,.02,0,.03Z" fill="#fff"/><path d="m126.75,244.64c-1.77-3.39-4.87-2.24-4.87-2.24,0,0-1.3-6.29-8.21-8.83,0,0,11.52,1.66,13.08,11.07Z" fill="#fff"/><path d="m142.08,242.37s1.38-6.27,8.33-8.73c0,0-11.54,1.52-13.23,10.92,1.81-3.37,4.9-2.19,4.9-2.19Zm-.8-1.81s-.03,0-.04,0c.02,0,.03-.02.05-.03,0,0,0,.02,0,.03Z" fill="#fff"/><path d="m96.57,194.09c0,1.96-1.71,3.55-3.83,3.55s-3.83-1.59-3.83-3.55,1.71-3.55,3.83-3.55,3.83,1.59,3.83,3.55Z" fill="#fff"/><path d="m172.94,194.09c0,1.96-1.71,3.55-3.83,3.55s-3.83-1.59-3.83-3.55,1.71-3.55,3.83-3.55,3.83,1.59,3.83,3.55Z" fill="#fff"/><path d="m131.5,238.03s.79-10.37,7.61-13.13c-5.49-3.08-7.81-26.66-7.88-28.03l-.15.02c-.06,1.41-2.39,25.56-7.39,28.07,6.86,2.71,7.82,13.07,7.82,13.07Zm-.11-12.83s-2.15.07-2.07-1.98c.1-2.06,2.08-14.36,2.08-14.36,0,0,1.92,12.29,2.04,14.34.13,2.05-2.05,1.99-2.05,1.99Z" fill="#fff"/><path d="m111.6,225.81c6.01-4.08,2.75-8.9,2.75-8.9,0,0,11.81-4.25,14.46-16.69,0,0,.59,19.86-17.21,25.59Z" fill="#fff"/><path d="m148.45,216.91s-11.81-4.25-14.47-16.69c0,0-.59,19.86,17.22,25.59-6.01-4.08-2.75-8.9-2.75-8.9Zm-3.78.79s-.01.04-.02.07c-.01-.03-.03-.06-.04-.1.02,0,.04.02.06.02Z" fill="#fff"/><path d="m126.69,132.36l-44.13,60.96,44.13,60.96,2.76-19.02v29.84c-14.7-26.15-33.82-53.11-50.97-71.79,17.15-18.68,36.27-45.63,50.97-71.78v29.85l-2.76-19.02Z" fill="#fff"/><path d="m136.12,132.36l44.13,60.96-44.13,60.96-2.76-19.02v29.84c14.7-26.15,33.82-53.11,50.97-71.79-17.15-18.68-36.27-45.63-50.97-71.78v29.85l2.76-19.02Z" fill="#fff"/><rect width="262.8" height="388.46" fill="none"/></g></svg>