<?xml version="1.0" encoding="UTF-8"?><svg id="b" xmlns="http://www.w3.org/2000/svg" xmlns:xlink="http://www.w3.org/1999/xlink" viewBox="0 0 151 256"><defs><pattern id="d" x="0" y="0" width="12" height="16" patternTransform="translate(.5 -2.5)" patternUnits="userSpaceOnUse" viewBox="0 0 12 16"><rect width="12" height="16" fill="none"/><line x1="12" y1="16" x2="24" y2="32" fill="none" stroke="#fff" stroke-miterlimit="10"/><line x1="24" y1="16" x2="12" y2="32" fill="none" stroke="#fff" stroke-miterlimit="10"/><line y1="16" x2="12" y2="32" fill="none" stroke="#fff" stroke-miterlimit="10"/><line x1="12" y1="16" y2="32" fill="none" stroke="#fff" stroke-miterlimit="10"/><line x1="-12" y1="16" y2="32" fill="none" stroke="#fff" stroke-miterlimit="10"/><line y1="16" x2="-12" y2="32" fill="none" stroke="#fff" stroke-miterlimit="10"/><line x1="12" x2="24" y2="16" fill="none" stroke="#fff" stroke-miterlimit="10"/><line x1="24" x2="12" y2="16" fill="none" stroke="#fff" stroke-miterlimit="10"/><rect width="12" height="16" fill="#c00000"/><line x2="12" y2="16" fill="none" stroke="#fff" stroke-miterlimit="10"/><line x1="12" y2="16" fill="none" stroke="#fff" stroke-miterlimit="10"/><line x1="-12" y2="16" fill="none" stroke="#fff" stroke-miterlimit="10"/><line x2="-12" y2="16" fill="none" stroke="#fff" stroke-miterlimit="10"/><line x1="12" y1="-16" x2="24" fill="none" stroke="#fff" stroke-miterlimit="10"/><line x1="24" y1="-16" x2="12" fill="none" stroke="#fff" stroke-miterlimit="10"/><line y1="-16" x2="12" fill="none" stroke="#fff" stroke-miterlimit="10"/><line x1="12" y1="-16" fill="none" stroke="#fff" stroke-miterlimit="10"/><line x1="-12" y1="-16" fill="none" stroke="#fff" stroke-miterlimit="10"/><line y1="-16" x2="-12" fill="none" stroke="#fff" stroke-miterlimit="10"/></pattern></defs><g id="c"><rect x=".5" y=".5" width="150" height="225" rx="5.2" ry="5.2" fill="url(#d)" stroke="#d4d4d4" stroke-miterlimit="10"/><rect x=".5" y="3.5" width="150" height="225" rx="5.2" ry="5.2" fill="url(#d)" stroke="#d4d4d4" stroke-miterlimit="10"/><rect x=".5" y="6.5" width="150" height="225" rx="5.2" ry="5.2" fill="url(#d)" stroke="#d4d4d4" stroke-miterlimit="10"/><rect x=".5" y="9.5" width="150" height="225" rx="5.2" ry="5.2" fill="url(#d)" stroke="#d4d4d4" stroke-miterlimit="10"/><rect x=".5" y="12.5" width="150" height="225" rx="5.2" ry="5.2" fill="url(#d)" stroke="#d4d4d4" stroke-miterlimit="10"/><rect x=".5" y="15.5" width="150" height="225" rx="5.2" ry="5.2" fill="url(#d)" stroke="#d4d4d4" stroke-miterlimit="10"/><rect x=".5" y="18.5" width="150" height="225" rx="5.2" ry="5.2" fill="url(#d)" stroke="#d4d4d4" stroke-miterlimit="10"/><rect x=".5" y="21.5" width="150" height="225" rx="5.2" ry="5.2" fill="url(#d)" stroke="#d4d4d4" stroke-miterlimit="10"/><rect x=".5" y="24.5" width="150" height="225" rx="5.2" ry="5.2" fill="url(#d)" stroke="#d4d4d4" stroke-miterlimit="10"/><rect x=".5" y="27.5" width="150" height="225" rx="5.2" ry="5.2" fill="url(#d)" stroke="#d4d4d4" stroke-miterlimit="10"/><rect x=".5" y="30.5" width="150" height="225" rx="5.2" ry="5.2" fill="url(#d)" stroke="#d4d4d4" stroke-miterlimit="10"/></g></svg>