<?xml version="1.0" encoding="UTF-8"?><svg id="b" xmlns="http://www.w3.org/2000/svg" xmlns:xlink="http://www.w3.org/1999/xlink" viewBox="0 0 212 287"><defs><pattern id="d" x="0" y="0" width="12" height="16" patternTransform="translate(24 24)" patternUnits="userSpaceOnUse" viewBox="0 0 12 16"><rect width="12" height="16" fill="none"/><line x1="12" y1="16" x2="24" y2="32" fill="none" stroke="#fff" stroke-miterlimit="10"/><line x1="24" y1="16" x2="12" y2="32" fill="none" stroke="#fff" stroke-miterlimit="10"/><line y1="16" x2="12" y2="32" fill="none" stroke="#fff" stroke-miterlimit="10"/><line x1="12" y1="16" y2="32" fill="none" stroke="#fff" stroke-miterlimit="10"/><line x1="-12" y1="16" y2="32" fill="none" stroke="#fff" stroke-miterlimit="10"/><line y1="16" x2="-12" y2="32" fill="none" stroke="#fff" stroke-miterlimit="10"/><line x1="12" x2="24" y2="16" fill="none" stroke="#fff" stroke-miterlimit="10"/><line x1="24" x2="12" y2="16" fill="none" stroke="#fff" stroke-miterlimit="10"/><rect width="12" height="16" fill="#c00000"/><line x2="12" y2="16" fill="none" stroke="#fff" stroke-miterlimit="10"/><line x1="12" y2="16" fill="none" stroke="#fff" stroke-miterlimit="10"/><line x1="-12" y2="16" fill="none" stroke="#fff" stroke-miterlimit="10"/><line x2="-12" y2="16" fill="none" stroke="#fff" stroke-miterlimit="10"/><line x1="12" y1="-16" x2="24" fill="none" stroke="#fff" stroke-miterlimit="10"/><line x1="24" y1="-16" x2="12" fill="none" stroke="#fff" stroke-miterlimit="10"/><line y1="-16" x2="12" fill="none" stroke="#fff" stroke-miterlimit="10"/><line x1="12" y1="-16" fill="none" stroke="#fff" stroke-miterlimit="10"/><line x1="-12" y1="-16" fill="none" stroke="#fff" stroke-miterlimit="10"/><line y1="-16" x2="-12" fill="none" stroke="#fff" stroke-miterlimit="10"/></pattern><filter id="e" filterUnits="userSpaceOnUse"><feOffset dx="7" dy="7"/><feGaussianBlur result="f" stdDeviation="10"/><feFlood flood-color="#000" flood-opacity=".25"/><feComposite in2="f" operator="in"/><feComposite in="SourceGraphic"/></filter></defs><g id="c"><rect x="24" y="24" width="150" height="225" rx="5.2" ry="5.2" fill="url(#d)" filter="url(#e)" stroke="#d4d4d4" stroke-miterlimit="10"/><rect x="24" y="27" width="150" height="225" rx="5.2" ry="5.2" fill="url(#d)" stroke="#d4d4d4" stroke-miterlimit="10"/><rect x="24" y="30" width="150" height="225" rx="5.2" ry="5.2" fill="url(#d)" stroke="#d4d4d4" stroke-miterlimit="10"/><rect x="24" y="33" width="150" height="225" rx="5.2" ry="5.2" fill="url(#d)" stroke="#d4d4d4" stroke-miterlimit="10"/><rect x="24" y="36" width="150" height="225" rx="5.2" ry="5.2" fill="url(#d)" stroke="#d4d4d4" stroke-miterlimit="10"/><rect x="24" y="39" width="150" height="225" rx="5.2" ry="5.2" fill="url(#d)" stroke="#d4d4d4" stroke-miterlimit="10"/><rect x="24" y="42" width="150" height="225" rx="5.2" ry="5.2" fill="url(#d)" stroke="#d4d4d4" stroke-miterlimit="10"/><rect x="24" y="45" width="150" height="225" rx="5.2" ry="5.2" fill="url(#d)" stroke="#d4d4d4" stroke-miterlimit="10"/><rect x="24" y="48" width="150" height="225" rx="5.2" ry="5.2" fill="url(#d)" stroke="#d4d4d4" stroke-miterlimit="10"/><rect x="24" y="51" width="150" height="225" rx="5.2" ry="5.2" fill="url(#d)" stroke="#d4d4d4" stroke-miterlimit="10"/><rect x="24" y="54" width="150" height="225" rx="5.2" ry="5.2" fill="url(#d)" stroke="#d4d4d4" stroke-miterlimit="10"/></g></svg>