<?xml version="1.0" encoding="UTF-8"?><svg id="a" xmlns="http://www.w3.org/2000/svg" xmlns:xlink="http://www.w3.org/1999/xlink" viewBox="0 0 253.4 354.97"><defs><clipPath id="b"><rect x="0" y="0" width="253.4" height="354.97" fill="none"/></clipPath><clipPath id="c"><path d="m159.62,60.29l-26.02,11.5s-23.75,5.6-42.85,4.7c0,0-45.46,27.27-58.36,82.88v98.79s39.21,32.57,63.58,38.73l26.02-11.49s23.75-5.6,42.85-4.7c0,0,45.46-27.27,58.36-82.88v-98.79s-39.21-32.58-63.58-38.73Z"/></clipPath><clipPath id="d"><path d="m102.17,67.82s32.54,6.84,51.15-14.37l4.24,10.61s-27.14,27.47-66.81,12.42l11.41-8.66Z" fill="#222b62"/></clipPath><clipPath id="e"><path d="m153.43,289.36s-32.54-6.84-51.15,14.36l-4.24-10.6s27.13-27.47,66.81-12.42l-11.42,8.66Z" fill="#222b62"/></clipPath><clipPath id="f"><path d="m224.11,179v-79.96s-39.4-32.72-63.88-38.91l-26.14,11.55s-23.86,5.62-43.05,4.72c0,0-45.67,27.39-58.63,83.25v18.24h-1.28v79.96s39.4,32.72,63.88,38.9l26.14-11.54s23.86-5.62,43.05-4.72c0,0,45.67-27.39,58.63-83.25v-18.24h1.28Z" fill="none"/></clipPath></defs><g clip-path="url(#a)"><path d="m64.75,101.02l-5.45,5.09s0-22.9,9.45-40.34C78.2,48.32,89.67,12.75,87.02-.9l3.74-.04v71.78l-26.01,30.19Z"/><path d="m89.04-.68s.67,38.42-7.27,54.8c-7.93,16.37-17.02,46.9-17.02,46.9l38.49-28.05s2.22-4.3,2.58-8.29c.37-4,.37-4.72.37-4.72,0,0-10.42-5.91-10.48-18.22,0,0-.79-10.21-1.88-15.26s-2.85-11.92-1.61-27.21l-3.18.05Z" fill="#c32029"/><path d="m190.85,256.15l5.45-5.09s0,22.9-9.45,40.34c-9.45,17.45-20.92,53.02-18.27,66.67l-3.74.04v-71.78l26.01-30.19Z"/><path d="m166.56,357.85s-.67-38.42,7.27-54.79c7.93-16.38,17.02-46.91,17.02-46.91l-38.49,28.05s-2.22,4.3-2.58,8.3c-.37,4-.37,4.72-.37,4.72,0,0,10.42,5.91,10.48,18.22,0,0,.79,10.21,1.88,15.26,1.09,5.05,2.86,11.92,1.61,27.2l3.18-.05Z" fill="#c32029"/><path d="m159.62,60.29l-26.02,11.5s-23.75,5.6-42.85,4.7c0,0-45.46,27.27-58.36,82.88v98.79s39.21,32.57,63.58,38.73l26.02-11.49s23.75-5.6,42.85-4.7c0,0,45.46-27.27,58.36-82.88v-98.79s-39.21-32.58-63.58-38.73Z"/><g clip-path="url(#c)"><path d="m191.36,200.95s-57.1-.5-79.77-62.76c0,0,23.65,1.89,67.55-19.65l15.85-.43-3.63,82.83Z" fill="#fdd315"/><path d="m194.6,118.49l-3.59,82.09c-2.29-.08-15.54-.88-30.91-8-9.89-4.58-18.71-10.82-26.24-18.58-9.29-9.58-16.6-21.49-21.74-35.41.25,0,.6.02,1.03.02,6.08,0,28.8-1.42,66.08-19.7l15.37-.41m.38-.38l-15.85.43c-37.36,18.33-60.06,19.69-65.99,19.69-1.04,0-1.56-.04-1.56-.04,22.67,62.26,79.77,62.76,79.77,62.76l3.63-82.83h0Z"/><path d="m197.2,198s-57.06,2.23-82.68-58.88c0,0,23.72.75,66.54-22.85l15.8-1.18.34,82.91Z"/><path d="m196.51,115.48l.33,82.16h-.4c-3.94,0-18.07-.58-34.42-8.05-9.45-4.32-17.96-10.21-25.33-17.5-8.91-8.83-16.18-19.8-21.61-32.61,3.71-.06,26.99-1.32,66.09-22.86l15.34-1.15m.36-.39l-15.8,1.18c-40.25,22.19-63.62,22.85-66.28,22.85h-.25c23.87,56.96,75.06,58.89,81.91,58.89.5,0,.77-.01.77-.01l-.34-82.91h0Z"/><path d="m231.82,177.55s-55.66,12.75-92.14-42.56c0,0,23.45-3.65,61.16-34.77l15.31-4.09,15.67,81.42Z" fill="#c32029"/><path d="m178.78,186.02c-.21-.23-.38-.48-.53-.75-.94.36-1.98.94-3.1,1.58-1.99,1.12-4.46,2.53-5.7,1.92-.81-.4-1.16-2.79-1.44-4.7-.39-2.71-.79-5.51-2.52-6.51-1.51-.87-3.83.04-6.28,1.02-2.09.83-4.45,1.76-5.42,1.11-.83-.56-.83-3.06-.82-5.07,0-2.78,0-5.4-1.49-6.58-1.4-1.12-3.86-.56-6.47.03-2.15.49-4.6,1.04-5.4.27-.75-.71-.32-3.2.03-5.21.46-2.7.9-5.25-.32-6.66-1.18-1.35-3.71-1.26-6.39-1.17-2.09.07-4.69.16-5.33-.73-.6-.85.33-3.21,1.07-5.11.69-1.76,1.35-3.44,1.39-4.85-.43-.06-.85-.12-1.28-.18-.11-.03-.21-.06-.32-.1.05,1.13-.65,2.92-1.29,4.54-1.03,2.61-1.99,5.07-.89,6.62,1.14,1.61,3.84,1.51,6.69,1.41,2.08-.07,4.44-.15,5.12.62.72.83.31,3.21-.05,5.33-.47,2.75-.92,5.34.45,6.64,1.43,1.36,4.07.76,6.86.13,2.03-.46,4.33-.97,5.12-.34.88.71.88,3.16.88,5.33,0,2.75,0,5.36,1.53,6.4,1.67,1.13,4.33.08,6.9-.94,1.81-.71,4.05-1.6,4.89-1.12,1.05.61,1.42,3.13,1.74,5.35.38,2.64.74,5.13,2.31,5.91,2,.98,4.64-.51,7.2-1.96,1.11-.63,2.4-1.36,3.32-1.62-.17-.19-.34-.38-.48-.6Z" fill="#fff"/><path d="m170.16,190.16c-.46,0-.88-.1-1.25-.28-1.4-.69-1.75-3.09-2.11-5.64-.35-2.41-.71-4.91-1.92-5.61-.22-.12-.48-.19-.82-.19-1.13,0-2.86.68-4.38,1.29-1.75.69-3.56,1.41-5,1.4-.63,0-1.14-.14-1.56-.42-1.38-.93-1.37-3.44-1.37-6.1,0-2.36,0-4.8-1.02-5.61-.31-.25-.79-.37-1.44-.37-1.11,0-2.64.34-3.99.64-1.56.35-3.03.68-4.27.68-1.01,0-1.75-.24-2.26-.72-1.23-1.17-.8-3.67-.34-6.32.4-2.29.8-4.67-.03-5.63-.48-.55-1.5-.79-3.41-.79-.66,0-1.34.02-2.01.04-.72.03-1.41.05-2.08.05-1.67,0-3.49-.17-4.3-1.31-.99-1.39-.05-3.76.93-6.28.56-1.43,1.19-3.01,1.29-4.2l.14.02.72.1c-.12,1.31-.74,2.88-1.34,4.41-.99,2.52-1.69,4.52-1.03,5.45.46.65,1.55.93,3.66.93.66,0,1.36-.02,1.97-.04.72-.03,1.39-.05,2.05-.05,1.54,0,3.22.14,4.05,1.09,1.12,1.28.69,3.74.24,6.36-.46,2.66-.74,4.75.08,5.53.34.32.88.47,1.64.48,1.15,0,2.72-.35,4.09-.66,1.52-.34,2.96-.67,4.16-.66.88,0,1.54.19,2.01.56,1.35,1.08,1.35,3.62,1.35,6.3s.07,4.75.99,5.37c.28.19.63.28,1.08.29,1.24,0,2.98-.69,4.67-1.36,1.74-.69,3.4-1.34,4.7-1.34.5,0,.91.1,1.26.3,1.58.91,1.97,3.62,2.35,6.24.38,2.63.72,4.52,1.63,4.98.24.12.54.18.87.18,1.43,0,3.42-1.12,5.17-2.11.94-.53,1.9-1.08,2.77-1.45.12.19.25.36.4.52.04.07.09.14.15.21-.9.35-1.98.97-2.88,1.48-1.94,1.1-3.95,2.24-5.6,2.23m0,.36c1.75,0,3.79-1.15,5.78-2.28,1.11-.63,2.4-1.36,3.32-1.62-.17-.19-.34-.38-.48-.6-.21-.23-.38-.48-.53-.75-.94.36-1.98.94-3.1,1.58-1.66.94-3.66,2.07-4.99,2.06-.26,0-.5-.04-.7-.15-.81-.4-1.16-2.79-1.44-4.7-.39-2.71-.79-5.51-2.52-6.51-.42-.24-.91-.35-1.44-.35-1.38,0-3.07.67-4.84,1.37-1.6.63-3.37,1.33-4.54,1.33-.35,0-.65-.07-.88-.22-.83-.56-.83-3.06-.82-5.07,0-2.78,0-5.4-1.49-6.58-.58-.46-1.35-.64-2.23-.64-1.24,0-2.72.33-4.24.67-1.39.31-2.9.65-4.01.65-.61,0-1.11-.11-1.39-.38-.75-.71-.32-3.2.03-5.21.46-2.7.9-5.25-.32-6.66-.87-.99-2.47-1.21-4.32-1.21-.66,0-1.36.02-2.06.04-.63.02-1.3.05-1.96.05-1.52,0-2.92-.15-3.37-.78-.6-.85.33-3.21,1.07-5.11.69-1.76,1.35-3.44,1.39-4.85-.43-.06-.85-.12-1.28-.18-.11-.03-.21-.06-.32-.1.05,1.13-.65,2.92-1.29,4.54-1.03,2.61-1.99,5.07-.89,6.62.85,1.2,2.58,1.45,4.59,1.46.68,0,1.38-.02,2.1-.04.66-.02,1.34-.05,1.99-.04,1.41,0,2.67.13,3.13.67.72.83.31,3.21-.05,5.33-.47,2.75-.92,5.34.45,6.64.63.6,1.5.81,2.51.82,1.28,0,2.79-.33,4.35-.69,1.36-.3,2.84-.64,3.91-.64.53,0,.95.09,1.21.3.88.71.88,3.16.88,5.33,0,2.75,0,5.36,1.53,6.4.51.34,1.11.48,1.76.49,1.51,0,3.35-.72,5.14-1.43,1.45-.57,3.19-1.26,4.25-1.26.26,0,.48.04.64.14,1.05.61,1.42,3.13,1.74,5.35.38,2.64.74,5.13,2.31,5.91.44.22.92.31,1.41.32h0Z"/><path d="m188.15,157.71s-21.44-6.54-35.98-27.26c0,0,25.71-10.41,32.85-18.11,7.13-7.7,3.14,45.37,3.14,45.37Z" fill="#fdd315"/><path d="m113.16,140.32c-1.64,0-3.28-.04-4.91-.1-27.59-1.16-49.78-12.12-63.54-21.12-14.9-9.74-23.21-19.11-23.55-19.5l3.55-3.12c.08.1,8.32,9.37,22.74,18.77,13.24,8.64,34.59,19.16,61.06,20.25,37.54,1.55,75.33-15.73,112.35-51.36l3.28,3.41c-36.41,35.04-73.72,52.78-110.97,52.78Z" fill="#fdd315"/><path d="m220.85,84.65l2.77,2.88c-36.24,34.79-73.4,52.42-110.46,52.42-1.62,0-3.27-.03-4.9-.1-27.5-1.15-49.63-12.09-63.35-21.05-13.66-8.93-21.74-17.52-23.23-19.17l3.01-2.64c1.46,1.6,9.46,10.02,22.56,18.56,13.29,8.66,34.7,19.22,61.24,20.31,1.55.06,3.11.1,4.66.1,36,0,72.23-17.26,107.7-51.31m0-.52c-35.5,34.17-71.71,51.46-107.71,51.46-1.55,0-3.1-.03-4.64-.1-26.46-1.09-47.81-11.62-61.06-20.25-14.42-9.4-22.66-18.67-22.74-18.77l-3.55,3.12c.34.4,8.64,9.76,23.55,19.5,13.76,9,35.95,19.96,63.54,21.12,1.64.07,3.28.1,4.91.1,37.26,0,74.56-17.74,110.97-52.78l-3.28-3.41h0Z"/><path d="m197.6,61.76c-74.87,88.52-146.29,24.84-146.29,24.84L68.2,5.25s34.89,111.55,112.67,7.63l16.72,48.87"/><path d="m112,108.94c-17.56,0-32.36-5.38-42.06-10.18-11.69-5.78-18.69-11.97-18.76-12.03l-.08-.07.02-.1L68.17,4.53l.21.67c.04.11,3.69,11.65,11.07,23.69,6.8,11.09,18.26,24.88,34.19,27.61,20.22,3.46,42.79-11.24,67.1-43.72l.2-.28.11.33,16.75,48.97-.06.08c-24.61,29.1-51.45,44.86-79.74,46.86-2.03.14-4.03.21-5.99.21Zm-60.5-22.41c.8.7,7.63,6.49,18.61,11.92,10.74,5.31,27.77,11.34,47.86,9.92,28.17-1.98,54.89-17.68,79.42-46.65l-16.58-48.45c-21.98,29.29-42.58,44.08-61.33,44.09-1.99,0-3.96-.17-5.91-.5-16.07-2.75-27.6-16.63-34.44-27.78-6.4-10.45-10.01-20.51-10.89-23.12l-16.74,80.57Z"/><path d="m192.32,50.41l.85,2.9.81,2.89c.54,1.94,1.07,3.89,1.59,5.85l1.52-1.74.76-.87.74-.89,2.96-3.57c-3.12-1.47-6.21-2.99-9.24-4.57Z" fill="#fff"/><path d="m192.91,51.12c2.66,1.37,5.37,2.7,8.08,3.98l-2.67,3.21-.73.88-.76.87-1.07,1.22c-.46-1.74-.93-3.48-1.41-5.19l-.82-2.9-.61-2.08m-.59-.71l.85,2.9.81,2.89c.54,1.94,1.07,3.89,1.59,5.85l1.52-1.74.76-.87.74-.89,2.97-3.57c-3.12-1.47-6.21-2.99-9.24-4.57h0Z"/><path d="m186.5,57c1.01,3.89,1.97,7.85,2.84,11.81,1.08-1.08,2.11-2.21,3.15-3.34l1.56-1.69,1.53-1.73c-1.53-.81-3.05-1.62-4.56-2.46-1.52-.85-3.02-1.71-4.52-2.59Z" fill="#fff"/><path d="m187.07,57.75c1.25.73,2.51,1.45,3.77,2.15,1.26.7,2.62,1.44,4.16,2.25l-1.21,1.38-1.56,1.69-.53.58c-.7.75-1.41,1.53-2.14,2.28-.72-3.22-1.53-6.62-2.48-10.32m-.57-.75c1.01,3.89,1.97,7.85,2.84,11.81,1.08-1.08,2.11-2.21,3.15-3.34l1.56-1.69,1.53-1.73c-1.53-.81-3.05-1.62-4.56-2.46-1.52-.85-3.02-1.71-4.52-2.59h0Z"/><path d="m180.47,63.26c.85,3.93,1.66,7.94,2.38,11.96,1.11-1.03,2.19-2.11,3.28-3.16.55-.52,1.08-1.07,1.61-1.62l1.6-1.64c-1.5-.89-2.99-1.8-4.47-2.72-1.47-.91-2.94-1.85-4.4-2.83Z" fill="#fff"/><path d="m181.01,64.05c1.15.76,2.36,1.53,3.67,2.34,1.34.84,2.72,1.68,4.08,2.49l-1.28,1.31c-.47.49-1.04,1.07-1.6,1.61-.38.37-.76.73-1.14,1.1-.54.53-1.09,1.06-1.65,1.59-.6-3.31-1.3-6.81-2.07-10.44m-.54-.8c.85,3.93,1.66,7.94,2.38,11.96,1.11-1.03,2.19-2.11,3.28-3.16.55-.52,1.08-1.07,1.61-1.62l1.6-1.64c-1.5-.89-2.99-1.8-4.47-2.72-1.47-.91-2.94-1.85-4.4-2.83h0Z"/><path d="m174.21,69.13c.69,3.97,1.31,8.01,1.87,12.1l3.42-2.95,3.35-3.06c-2.95-1.97-5.82-4-8.64-6.09Z" fill="#fff"/><path d="m174.72,69.96c2.44,1.79,4.97,3.58,7.54,5.31l-3,2.74-2.92,2.51c-.49-3.54-1.03-7.09-1.63-10.56m-.51-.83c.69,3.97,1.31,8.01,1.87,12.1l3.42-2.95,3.35-3.06c-2.95-1.97-5.82-4-8.64-6.09h0Z"/><path d="m167.72,74.55c.52,4.03.95,8.08,1.31,12.21,1.18-.9,2.38-1.79,3.55-2.71l3.49-2.83c-2.85-2.16-5.65-4.39-8.36-6.67Z" fill="#fff"/><path d="m168.2,75.43c2.42,2.01,4.86,3.96,7.29,5.81l-3.12,2.53c-.78.6-1.57,1.21-2.34,1.79-.23.18-.46.35-.69.52-.33-3.71-.71-7.21-1.14-10.65m-.48-.88c.52,4.03.95,8.08,1.31,12.21,1.18-.9,2.38-1.79,3.55-2.71l3.49-2.83c-2.85-2.16-5.65-4.39-8.36-6.67h0Z"/><path d="m161.01,79.5c.33,4.05.56,8.14.71,12.29,1.23-.82,2.46-1.62,3.69-2.44,1.21-.86,2.43-1.7,3.63-2.58-2.75-2.35-5.43-4.79-8.03-7.27Z" fill="#fff"/><path d="m161.45,80.41c2.34,2.22,4.69,4.34,7,6.33-.67.48-1.35.96-2.02,1.43-.41.29-.82.58-1.23.87-.81.55-1.65,1.09-2.45,1.62-.23.15-.46.3-.7.46-.14-3.67-.35-7.26-.61-10.71m-.44-.92c.33,4.05.56,8.14.71,12.29,1.23-.82,2.46-1.62,3.69-2.44,1.21-.86,2.43-1.7,3.63-2.58-2.75-2.35-5.43-4.79-8.03-7.27h0Z"/><path d="m154.08,83.89c.11,4.05.14,8.19.04,12.31,1.29-.68,2.55-1.42,3.83-2.13,1.26-.75,2.51-1.52,3.76-2.29-2.64-2.58-5.18-5.2-7.64-7.9Z" fill="#fff"/><path d="m154.46,84.86c2.11,2.29,4.34,4.59,6.66,6.86l-.55.34c-.92.56-1.87,1.15-2.8,1.7-.44.24-.88.5-1.32.74-.64.37-1.3.74-1.96,1.09.07-3.37.05-6.98-.03-10.74m-.39-.96c.11,4.05.14,8.19.04,12.31,1.29-.68,2.55-1.42,3.83-2.13,1.26-.75,2.51-1.52,3.76-2.29-2.64-2.58-5.18-5.2-7.64-7.9h0Z"/><path d="m146.94,87.69c-.11,4.07-.32,8.2-.65,12.29,2.66-1.12,5.26-2.42,7.84-3.77-1.24-1.39-2.46-2.79-3.66-4.2l-1.78-2.13-1.75-2.18Z" fill="#fff"/><path d="m147.28,88.69l1.13,1.42,1.78,2.13c1.09,1.29,2.22,2.59,3.36,3.86-2.6,1.35-4.79,2.42-6.85,3.3.27-3.38.46-6.98.58-10.72m-.34-1c-.11,4.07-.32,8.2-.65,12.29,2.66-1.12,5.26-2.42,7.84-3.77-1.24-1.39-2.46-2.79-3.66-4.2l-1.78-2.13-1.75-2.18h0Z"/><path d="m139.62,90.84c-.34,4.08-.81,8.1-1.39,12.2,1.35-.47,2.71-.9,4.05-1.44l2.01-.77,1.99-.85c-1.16-1.49-2.29-2.98-3.4-4.5-1.11-1.54-2.2-3.08-3.26-4.64Z" fill="#fff"/><path d="m139.89,91.88c.88,1.28,1.78,2.55,2.69,3.81.99,1.35,2.01,2.71,3.12,4.14l-1.54.66-2.02.78c-.96.38-1.95.72-2.91,1.05-.19.06-.38.13-.56.19.52-3.78.92-7.27,1.22-10.62m-.27-1.04c-.34,4.08-.81,8.1-1.39,12.2,1.35-.47,2.71-.9,4.05-1.44l2.01-.77,1.99-.85c-1.16-1.49-2.29-2.98-3.4-4.5-1.11-1.54-2.2-3.08-3.26-4.64h0Z"/><path d="m132.15,93.3c-.6,3.97-1.31,8.04-2.15,12.02,1.39-.28,2.76-.69,4.14-1.04.69-.18,1.37-.4,2.05-.61.68-.21,1.37-.39,2.05-.64-1.06-1.57-2.11-3.21-3.12-4.83-1.02-1.63-2-3.25-2.96-4.91Z" fill="#fff"/><path d="m132.35,94.37c.73,1.25,1.53,2.55,2.45,4.03,1.1,1.76,2.02,3.19,2.87,4.45-.29.09-.59.18-.88.27-.24.07-.47.14-.7.21-.24.07-.48.14-.71.21-.44.13-.88.27-1.32.39-.44.11-.88.23-1.33.35-.74.2-1.5.4-2.25.57.67-3.21,1.3-6.72,1.88-10.47m-.2-1.07c-.6,3.97-1.31,8.04-2.15,12.02,1.39-.28,2.76-.69,4.14-1.04.69-.18,1.37-.4,2.05-.61.68-.21,1.37-.39,2.05-.64-1.06-1.57-2.11-3.21-3.12-4.83-1.02-1.63-2-3.25-2.96-4.91h0Z"/><path d="m124.55,95.02c-.21.99-.43,1.97-.66,2.96-.23.98-.46,1.95-.71,2.93-.49,1.96-1.01,3.92-1.55,5.89l2.1-.3,1.05-.15,1.05-.19,2.09-.38,2.08-.46c-.96-1.69-1.9-3.39-2.8-5.1-.91-1.73-1.79-3.47-2.64-5.21Z" fill="#fff"/><path d="m124.69,96.11c.71,1.43,1.44,2.87,2.18,4.28.82,1.55,1.69,3.12,2.57,4.68l-1.58.35-2.09.38-1.03.19-1.05.15-1.55.22c.49-1.78.96-3.58,1.41-5.36.25-1,.49-1.99.71-2.94.15-.64.29-1.3.44-1.95m-.13-1.1c-.21.99-.43,1.97-.66,2.96-.23.98-.46,1.95-.71,2.93-.49,1.96-1.01,3.92-1.55,5.89l2.1-.3,1.05-.15,1.05-.19,2.09-.38,2.08-.46c-.96-1.69-1.9-3.39-2.8-5.1-.91-1.73-1.79-3.47-2.64-5.21h0Z"/><path d="m116.88,95.97c-.55,1.91-1.13,3.84-1.75,5.75-.61,1.89-1.26,3.79-1.94,5.69,2.82-.05,5.63-.3,8.44-.61-.85-1.79-1.67-3.59-2.46-5.38-.4-.9-.79-1.8-1.17-2.71-.38-.91-.75-1.82-1.12-2.74Z" fill="#fff"/><path d="m116.94,97.08c.24.59.48,1.19.73,1.77.35.82.73,1.71,1.17,2.71.72,1.64,1.48,3.3,2.25,4.94-2.91.32-5.23.49-7.37.54.61-1.73,1.21-3.48,1.76-5.21.48-1.5.96-3.07,1.46-4.75m-.06-1.11c-.55,1.91-1.13,3.84-1.75,5.75-.61,1.89-1.26,3.79-1.94,5.69,2.82-.05,5.63-.3,8.44-.61-.85-1.79-1.67-3.59-2.46-5.38-.4-.9-.79-1.8-1.17-2.71-.38-.91-.75-1.82-1.12-2.74h0Z"/><path d="m109.17,96.15c-.68,1.85-1.38,3.7-2.12,5.55-.74,1.84-1.51,3.65-2.3,5.47,2.81.24,5.63.29,8.45.24-.74-1.84-1.44-3.74-2.11-5.61-.67-1.88-1.31-3.74-1.92-5.65Z" fill="#fff"/><path d="m109.15,97.26c.46,1.42.98,2.93,1.6,4.66.69,1.93,1.31,3.61,1.91,5.13-.49,0-.96.01-1.43.01-2.17,0-4.13-.07-5.96-.21.76-1.75,1.46-3.39,2.11-5.02.61-1.51,1.2-3.04,1.76-4.57m.02-1.11c-.68,1.85-1.38,3.7-2.12,5.55-.74,1.84-1.51,3.65-2.3,5.47,2.16.19,4.33.26,6.49.26.66,0,1.3,0,1.96-.02-.74-1.84-1.44-3.74-2.11-5.61-.67-1.88-1.31-3.74-1.92-5.65h0Z"/><path d="m101.48,95.54c-.79,1.78-1.62,3.55-2.48,5.32-.85,1.75-1.74,3.49-2.65,5.23,2.79.52,5.59.85,8.4,1.08-.61-1.91-1.19-3.86-1.73-5.8-.54-1.95-1.06-3.86-1.54-5.83Z" fill="#fff"/><path d="m101.38,96.65c.37,1.45.79,3.01,1.29,4.82.52,1.86,1.05,3.64,1.57,5.3-2.71-.24-5.12-.55-7.34-.95.84-1.61,1.66-3.22,2.43-4.8.7-1.44,1.39-2.91,2.05-4.37m.1-1.11c-.79,1.78-1.62,3.55-2.48,5.32-.85,1.75-1.74,3.49-2.65,5.23,2.79.52,5.59.85,8.4,1.08-.61-1.91-1.19-3.86-1.73-5.8-.54-1.95-1.06-3.86-1.54-5.83h0Z"/><path d="m93.84,94.17c-1.83,3.41-3.75,6.72-5.8,10.01,2.74.77,5.51,1.4,8.3,1.91-.48-1.97-.93-3.98-1.34-5.96-.42-1.98-.81-3.96-1.16-5.96Z" fill="#fff"/><path d="m93.67,95.26c.3,1.63.62,3.29.98,4.95.43,2.03.83,3.81,1.21,5.42-2.44-.46-4.87-1.02-7.25-1.67,1.83-2.95,3.49-5.81,5.06-8.7m.18-1.09c-1.83,3.41-3.75,6.72-5.8,10.01,2.74.77,5.51,1.4,8.3,1.91-.48-1.97-.93-3.98-1.34-5.96-.42-1.98-.81-3.96-1.16-5.96h0Z"/><path d="m86.3,92.05c-1.02,1.62-2.05,3.18-3.12,4.76-1.07,1.58-2.17,3.12-3.29,4.66,2.69,1.03,5.4,1.94,8.15,2.71-.35-2.03-.67-4.05-.96-6.07-.29-2.02-.55-4.05-.78-6.06Z" fill="#fff"/><path d="m86.06,93.11c.21,1.8.43,3.46.66,5.06.26,1.82.55,3.67.86,5.51-2.36-.68-4.75-1.48-7.11-2.38,1.07-1.47,2.06-2.88,3.01-4.28.97-1.44,1.81-2.7,2.58-3.91m.24-1.06c-1.02,1.62-2.05,3.18-3.12,4.76-1.07,1.58-2.17,3.12-3.29,4.66,2.69,1.03,5.4,1.94,8.15,2.71-.35-2.03-.67-4.05-.96-6.07-.29-2.02-.55-4.05-.78-6.06h0Z"/><path d="m78.92,89.21c-2.23,3.01-4.55,5.94-6.97,8.79,2.61,1.28,5.27,2.44,7.95,3.47-.22-2.04-.42-4.09-.58-6.14-.16-2.04-.3-4.08-.4-6.12Z" fill="#fff"/><path d="m78.61,90.23c.09,1.66.21,3.34.35,5.12.14,1.85.32,3.71.51,5.56-2.33-.91-4.67-1.93-6.95-3.04,2.1-2.48,4.14-5.04,6.08-7.64m.31-1.03c-2.23,3.01-4.55,5.94-6.97,8.79,2.61,1.28,5.27,2.44,7.95,3.47-.22-2.04-.42-4.09-.58-6.14-.16-2.04-.3-4.08-.4-6.12h0Z"/><path d="m71.73,85.68c-1.2,1.4-2.43,2.78-3.68,4.12-1.25,1.36-2.52,2.68-3.81,3.99,2.53,1.52,5.1,2.93,7.71,4.21-.19-4.12-.27-8.23-.22-12.31Z" fill="#fff"/><path d="m71.35,86.67c-.02,3.54.05,7.14.21,10.73-2.27-1.13-4.53-2.37-6.74-3.68,1.25-1.26,2.39-2.46,3.5-3.67,1.02-1.1,2.04-2.24,3.04-3.38m.37-.99c-1.2,1.4-2.43,2.78-3.68,4.12-1.25,1.36-2.52,2.68-3.81,3.99,2.53,1.52,5.1,2.93,7.71,4.21-.19-4.12-.27-8.23-.22-12.31h0Z"/><path d="m64.78,81.49c-2.57,2.55-5.22,5-7.99,7.35,2.44,1.78,4.92,3.43,7.45,4.95.06-4.13.24-8.24.54-12.3Z" fill="#fff"/><path d="m64.35,82.43c-.24,3.53-.4,7.12-.46,10.72-2.16-1.32-4.34-2.77-6.5-4.34,2.36-2.02,4.7-4.16,6.97-6.39m.43-.94c-2.57,2.55-5.22,5-7.99,7.35,2.44,1.78,4.92,3.43,7.45,4.95.06-4.13.24-8.24.54-12.3h0Z"/><path d="m58.17,76.64c-1.36,1.13-2.75,2.24-4.17,3.3-.71.53-1.43,1.04-2.16,1.55-.37.25-.73.49-1.11.73-.38.23-.74.49-1.19.65l.5.48.46.41.89.79c.59.51,1.19,1.01,1.78,1.5,1.19.97,2.4,1.9,3.61,2.79.33-4.12.78-8.2,1.38-12.19Z" fill="#fff"/><path d="m57.68,77.53c-.49,3.36-.89,6.93-1.19,10.62-1.03-.77-2.06-1.57-3.07-2.39-.59-.49-1.19-.99-1.77-1.49l-.89-.79-.45-.41-.11-.11c.16-.09.32-.19.46-.28.09-.06.18-.11.27-.17.39-.25.77-.5,1.12-.73.71-.49,1.42-1,2.17-1.55,1.13-.85,2.27-1.74,3.46-2.7m.5-.88c-1.36,1.13-2.75,2.24-4.17,3.3-.71.53-1.43,1.04-2.16,1.55-.37.25-.73.49-1.11.73-.38.23-.74.49-1.19.65l.5.48.46.41.89.79c.59.51,1.19,1.01,1.78,1.5,1.19.97,2.4,1.9,3.61,2.79.33-4.12.78-8.2,1.38-12.19h0Z"/><path d="m62.81,156.47s57.1.5,79.77,62.76c0,0-23.65-1.89-67.55,19.65l-15.84.43,3.62-82.83Z" fill="#fdd315"/><path d="m63.15,156.84c2.29.08,15.51.88,30.88,7.99,9.89,4.57,18.73,10.82,26.25,18.58,9.29,9.58,16.61,21.5,21.76,35.43-.25,0-.6-.02-1.03-.02-6.08,0-28.8,1.42-66.08,19.7l-15.37.41,3.59-82.09m-.35-.37l-3.62,82.83,15.84-.43c37.37-18.33,60.06-19.69,65.99-19.69,1.04,0,1.56.04,1.56.04-22.67-62.26-79.77-62.76-79.77-62.76h0Z"/><path d="m56.97,159.42s57.06-2.23,82.67,58.88c0,0-23.71-.75-66.54,22.85l-15.8,1.19-.33-82.91Z"/><path d="m57.73,159.41v.37c3.94,0,18.07.58,34.42,8.05,9.45,4.32,17.96,10.21,25.33,17.5,8.91,8.83,16.18,19.8,21.61,32.61-3.71.06-26.99,1.32-66.09,22.86l-15.34,1.15-.33-82.17h.4v-.37m0,0c-.5,0-.77.01-.77.01l.33,82.91,15.8-1.19c40.25-22.19,63.62-22.85,66.29-22.85h.25c-23.87-56.96-75.05-58.89-81.91-58.89h0Z"/><path d="m22.35,179.87s55.66-12.75,92.14,42.56c0,0-23.44,3.65-61.16,34.77l-15.31,4.09-15.67-81.42Z" fill="#c32029"/><path d="m133.24,221.37c-.43-1.02-3-1.49-5.06-1.87-2.62-.48-5.09-.93-5.97-2.48-.91-1.62.03-4.02,1.01-6.56.74-1.9,1.66-4.27,1.06-5.11-.64-.9-3.24-.8-5.33-.72-2.68.1-5.21.2-6.39-1.14-1.23-1.4-.8-3.96-.35-6.66.34-2,.76-4.5,0-5.21-.81-.77-3.25-.21-5.4.29-2.61.6-5.07,1.17-6.47.06-1.49-1.18-1.5-3.8-1.51-6.58,0-2.01-.01-4.5-.85-5.06-.96-.65-3.33.29-5.41,1.13-2.45.98-4.77,1.91-6.28,1.04-1.73-.99-2.14-3.79-2.54-6.5-.29-1.92-.64-4.3-1.46-4.7-1.23-.6-3.7.81-5.69,1.94-2.23,1.27-4.16,2.38-5.59,1.79-3.09-1.26-3.42-4.18-3.69-6.53-.25-2.21-.48-3.59-1.93-4l.44-1.54c2.56.72,2.84,3.19,3.09,5.36.26,2.22.49,4.32,2.7,5.22.72.3,2.64-.81,4.2-1.7,2.55-1.46,5.19-2.96,7.19-1.99,1.58.77,1.94,3.26,2.34,5.9.33,2.22.7,4.73,1.76,5.34.84.48,3.08-.42,4.88-1.14,2.57-1.03,5.23-2.09,6.9-.97,1.54,1.03,1.55,3.63,1.55,6.39,0,2.17.02,4.62.9,5.32.8.63,3.09.11,5.12-.36,2.79-.64,5.42-1.24,6.86.11,1.38,1.29.94,3.89.48,6.64-.35,2.11-.76,4.5-.03,5.33.68.77,3.04.69,5.12.6,2.86-.11,5.55-.21,6.7,1.39,1.11,1.55.15,4.01-.86,6.62-.77,1.99-1.65,4.24-1.11,5.2.5.9,2.82,1.31,4.86,1.68,2.83.52,5.49,1,6.26,2.83l-1.48.62Z" fill="#fff"/><path d="m66.07,163.44c2,.77,2.24,2.89,2.48,4.94.26,2.23.52,4.54,2.93,5.52.12.05.26.07.42.07.95,0,2.62-.95,4.1-1.8,1.94-1.11,3.94-2.25,5.59-2.25.46,0,.88.09,1.25.27,1.41.69,1.76,3.09,2.14,5.63.36,2.41.72,4.91,1.94,5.61.22.12.49.18.82.18,1.13,0,2.86-.69,4.38-1.3,1.75-.7,3.56-1.42,5-1.42.63,0,1.14.14,1.56.42,1.38.93,1.38,3.43,1.39,6.09,0,2.36.02,4.8,1.04,5.61.32.25.79.37,1.44.37,1.11,0,2.64-.35,3.99-.66,1.55-.36,3.03-.69,4.27-.69,1.01,0,1.75.23,2.26.71,1.23,1.16.81,3.66.37,6.31-.38,2.3-.79,4.67.06,5.63.48.55,1.5.78,3.41.78.66,0,1.34-.03,2-.05.73-.03,1.41-.06,2.08-.06,1.67,0,3.49.16,4.31,1.29.99,1.39.07,3.76-.91,6.28-.84,2.16-1.7,4.4-1.09,5.51.59,1.04,2.88,1.46,5.11,1.87,2.53.46,4.94.9,5.81,2.29l-.83.35c-.79-.98-3.09-1.39-5.14-1.77-2.54-.46-4.93-.9-5.72-2.3-.82-1.47.08-3.8,1.04-6.26.81-2.08,1.73-4.45,1.01-5.45-.46-.64-1.56-.92-3.67-.92-.67,0-1.36.03-1.97.05-.72.03-1.39.05-2.05.05-1.54,0-3.21-.13-4.05-1.07-1.12-1.27-.71-3.74-.27-6.36.45-2.66.72-4.75-.1-5.53-.34-.31-.88-.47-1.64-.47-1.16,0-2.71.36-4.09.67-1.52.35-2.96.68-4.16.68-.88,0-1.54-.18-2.01-.55-1.35-1.07-1.36-3.61-1.37-6.29,0-2.66-.09-4.75-1.01-5.37-.28-.19-.63-.28-1.08-.28-1.24,0-2.97.69-4.66,1.37-1.75.7-3.4,1.36-4.7,1.36-.5,0-.92-.1-1.26-.3-1.58-.91-1.98-3.62-2.37-6.23-.39-2.63-.74-4.52-1.65-4.97-.25-.12-.54-.18-.87-.18-1.43,0-3.41,1.13-5.16,2.13-1.79,1.02-3.33,1.9-4.55,1.9-.27,0-.51-.04-.73-.13-2.89-1.17-3.2-3.86-3.47-6.23-.22-1.9-.41-3.57-1.85-4.19l.24-.85m-.25-.46l-.44,1.54c1.45.41,1.68,1.79,1.93,4,.27,2.35.61,5.27,3.69,6.53.27.11.56.16.87.16,1.31,0,2.92-.92,4.73-1.95,1.66-.95,3.65-2.09,4.98-2.09.26,0,.5.05.71.15.82.4,1.17,2.78,1.46,4.7.4,2.71.81,5.5,2.54,6.5.42.24.91.35,1.45.35,1.38,0,3.07-.68,4.84-1.39,1.6-.64,3.36-1.34,4.53-1.34.35,0,.65.06.88.22.83.56.84,3.06.85,5.06.01,2.78.02,5.4,1.51,6.58.58.46,1.35.63,2.24.63,1.24,0,2.72-.34,4.24-.69,1.39-.32,2.9-.66,4.01-.66.61,0,1.1.11,1.39.38.75.71.33,3.2,0,5.21-.45,2.7-.88,5.25.35,6.66.87.99,2.47,1.2,4.32,1.2.66,0,1.36-.03,2.07-.05.63-.02,1.3-.05,1.96-.05,1.52,0,2.92.14,3.37.77.6.84-.32,3.21-1.06,5.11-.99,2.54-1.92,4.95-1.01,6.56.87,1.55,3.35,2,5.97,2.48,2.07.38,4.63.85,5.06,1.87l1.48-.62c-.76-1.83-3.43-2.31-6.26-2.83-2.04-.37-4.35-.79-4.86-1.68-.54-.96.34-3.21,1.11-5.2,1.01-2.61,1.97-5.07.86-6.62-.85-1.2-2.58-1.44-4.6-1.44-.67,0-1.38.03-2.1.05-.65.03-1.34.05-1.99.05-1.41,0-2.67-.12-3.13-.65-.73-.83-.33-3.22.03-5.33.46-2.75.9-5.35-.48-6.64-.63-.59-1.5-.81-2.51-.81-1.28,0-2.79.35-4.35.7-1.36.31-2.83.65-3.9.65-.53,0-.95-.08-1.21-.29-.89-.7-.89-3.15-.9-5.32,0-2.76-.02-5.36-1.55-6.39-.51-.34-1.11-.48-1.76-.48-1.51,0-3.35.73-5.14,1.45-1.45.58-3.18,1.27-4.24,1.27-.26,0-.48-.04-.64-.13-1.06-.61-1.43-3.12-1.76-5.34-.39-2.64-.76-5.13-2.34-5.9-.44-.22-.92-.31-1.41-.31-1.75,0-3.79,1.17-5.78,2.3-1.38.79-3.06,1.75-3.91,1.75-.11,0-.2-.02-.28-.05-2.21-.89-2.45-2.99-2.7-5.22-.25-2.18-.53-4.64-3.09-5.36h0Z"/><path d="m80.83,179.66c0,1.19-.97,2.16-2.16,2.16s-2.16-.96-2.16-2.16.97-2.16,2.16-2.16,2.16.97,2.16,2.16Z" fill="#fff"/><path d="m94.89,187.16c0,1.19-.97,2.16-2.16,2.16s-2.16-.96-2.16-2.16.96-2.16,2.16-2.16,2.16.96,2.16,2.16Z" fill="#fff"/><path d="m107.58,197.19c0,1.19-.97,2.16-2.16,2.16s-2.16-.97-2.16-2.16.97-2.16,2.16-2.16,2.16.97,2.16,2.16Z" fill="#fff"/><path d="m118.81,209.95c0,1.19-.97,2.16-2.16,2.16s-2.16-.96-2.16-2.16.97-2.16,2.16-2.16,2.16.96,2.16,2.16Z" fill="#fff"/><path d="m64.38,171.54c0,1.19-.97,2.16-2.16,2.16s-2.16-.96-2.16-2.16.96-2.16,2.16-2.16,2.16.96,2.16,2.16Z" fill="#fff"/><path d="m66.02,199.71s21.44,6.54,35.98,27.26c0,0-25.71,10.41-32.85,18.11-7.14,7.7-3.14-45.37-3.14-45.37Z" fill="#fdd315"/><path d="m142.44,216.86c1.64,0,3.28.04,4.92.1,27.58,1.15,49.78,12.12,63.53,21.12,14.91,9.75,23.21,19.11,23.55,19.5l-3.55,3.12c-.08-.09-8.32-9.37-22.74-18.77-13.25-8.64-34.6-19.16-61.06-20.26-37.53-1.55-75.33,15.73-112.35,51.36l-3.28-3.4c36.41-35.04,73.72-52.78,110.97-52.78Z" fill="#fdd315"/><path d="m142.44,217.22c1.62,0,3.27.03,4.9.1,27.5,1.15,49.63,12.09,63.35,21.06,13.66,8.93,21.74,17.52,23.23,19.17l-3.01,2.64c-1.46-1.59-9.46-10.02-22.56-18.56-13.29-8.66-34.7-19.22-61.24-20.31-1.54-.07-3.11-.1-4.66-.1-36,0-72.23,17.26-107.7,51.3l-2.77-2.88c36.23-34.79,73.39-52.42,110.46-52.42m0-.36c-37.26,0-74.56,17.74-110.97,52.78l3.28,3.4c35.5-34.16,71.71-51.46,107.71-51.46,1.55,0,3.1.03,4.64.1,26.46,1.09,47.81,11.62,61.06,20.26,14.42,9.4,22.66,18.67,22.74,18.77l3.55-3.12c-.34-.39-8.64-9.76-23.55-19.5-13.76-9-35.95-19.96-63.53-21.12-1.64-.07-3.28-.1-4.92-.1h0Z"/><path d="m58.01,295.42c74.87-88.52,146.29-24.84,146.29-24.84l-16.9,81.34s-34.89-111.55-112.67-7.64l-16.72-48.87"/><path d="m187.43,352.65l-.21-.67c-.04-.11-3.69-11.65-11.07-23.69-6.8-11.09-18.26-24.88-34.19-27.61-20.21-3.46-42.79,11.25-67.1,43.72l-.21.27-16.87-49.29.06-.08c24.62-29.1,51.45-44.86,79.74-46.85,20.17-1.42,37.27,4.64,48.05,9.97,11.69,5.77,18.69,11.97,18.77,12.03l.08.07-17.07,82.13Zm-51.31-52.82c1.99,0,3.96.16,5.91.5,16.07,2.76,27.6,16.63,34.44,27.79,6.4,10.44,10.01,20.51,10.89,23.12l16.74-80.57c-.8-.69-7.63-6.49-18.61-11.91-10.74-5.31-27.76-11.34-47.86-9.93-28.17,1.99-54.89,17.68-79.42,46.65l16.58,48.45c21.98-29.29,42.58-44.09,61.33-44.09Z"/><path d="m63.28,306.78l-.85-2.9-.82-2.89c-.54-1.94-1.07-3.88-1.58-5.85l-1.52,1.74-.76.87-.74.89-2.97,3.57c3.12,1.47,6.21,2.99,9.24,4.57Z" fill="#fff"/><path d="m59.85,295.89c.46,1.73.93,3.48,1.41,5.19l.82,2.9.61,2.08c-2.66-1.37-5.37-2.71-8.08-3.98l2.67-3.21.73-.88.76-.87,1.07-1.22m.18-.75l-1.52,1.74-.76.87-.74.89-2.97,3.57c3.12,1.47,6.21,2.99,9.24,4.57l-.85-2.9-.82-2.89c-.54-1.94-1.07-3.88-1.58-5.85h0Z"/><path d="m69.1,300.18c-1.01-3.89-1.97-7.85-2.84-11.81-1.07,1.08-2.11,2.22-3.15,3.34l-1.56,1.69-1.53,1.73c1.53.8,3.05,1.62,4.56,2.46,1.52.85,3.02,1.71,4.51,2.58Z" fill="#fff"/><path d="m66.05,289.1c.72,3.23,1.53,6.62,2.48,10.32-1.25-.72-2.51-1.45-3.77-2.15-1.26-.7-2.62-1.43-4.16-2.24l1.21-1.38,1.56-1.69.53-.58c.7-.76,1.41-1.53,2.14-2.28m.21-.73c-1.07,1.08-2.11,2.22-3.15,3.34l-1.56,1.69-1.53,1.73c1.53.8,3.05,1.62,4.56,2.46,1.52.85,3.02,1.71,4.51,2.58-1.01-3.89-1.97-7.85-2.84-11.81h0Z"/><path d="m75.13,293.92c-.85-3.93-1.66-7.94-2.38-11.97-1.11,1.04-2.18,2.11-3.28,3.16-.55.52-1.08,1.07-1.62,1.62l-1.6,1.64c1.51.89,2.99,1.8,4.47,2.72,1.47.92,2.94,1.86,4.4,2.83Z" fill="#fff"/><path d="m72.51,282.68c.6,3.31,1.3,6.81,2.08,10.44-1.15-.76-2.36-1.53-3.66-2.34-1.35-.84-2.71-1.67-4.08-2.49l1.28-1.31c.48-.49,1.04-1.06,1.6-1.6.38-.37.76-.74,1.14-1.11.54-.53,1.09-1.07,1.64-1.59m.24-.73c-1.11,1.04-2.18,2.11-3.28,3.16-.55.52-1.08,1.07-1.62,1.62l-1.6,1.64c1.51.89,2.99,1.8,4.47,2.72,1.47.92,2.94,1.86,4.4,2.83-.85-3.93-1.66-7.94-2.38-11.97h0Z"/><path d="m81.39,288.05c-.69-3.97-1.31-8.01-1.87-12.1l-3.42,2.95-3.35,3.06c2.95,1.97,5.82,4,8.64,6.09Z" fill="#fff"/><path d="m79.25,276.66c.49,3.54,1.03,7.08,1.63,10.55-2.44-1.79-4.97-3.57-7.54-5.3l3-2.74,2.91-2.51m.27-.71l-3.42,2.95-3.35,3.06c2.95,1.97,5.82,4,8.64,6.09-.69-3.97-1.31-8.01-1.87-12.1h0Z"/><path d="m87.88,282.62c-.52-4.02-.95-8.08-1.31-12.21-1.19.9-2.38,1.79-3.56,2.71l-3.49,2.83c2.85,2.16,5.65,4.39,8.36,6.67Z" fill="#fff"/><path d="m86.26,271.1c.33,3.71.71,7.21,1.14,10.65-2.42-2.01-4.86-3.96-7.29-5.81l3.12-2.53c.78-.61,1.57-1.21,2.35-1.79.23-.17.46-.35.68-.52m.3-.69c-1.19.9-2.38,1.79-3.56,2.71l-3.49,2.83c2.85,2.16,5.65,4.39,8.36,6.67-.52-4.02-.95-8.08-1.31-12.21h0Z"/><path d="m94.6,277.68c-.33-4.05-.56-8.13-.71-12.29-1.23.82-2.46,1.62-3.69,2.44-1.21.86-2.43,1.7-3.63,2.58,2.75,2.35,5.43,4.79,8.03,7.27Z" fill="#fff"/><path d="m93.55,266.05c.14,3.67.35,7.26.61,10.71-2.34-2.22-4.69-4.34-7-6.33.67-.48,1.35-.97,2.02-1.43.42-.29.83-.58,1.23-.87.82-.55,1.65-1.1,2.46-1.63.23-.15.46-.3.69-.46m.34-.66c-1.23.82-2.46,1.62-3.69,2.44-1.21.86-2.43,1.7-3.63,2.58,2.75,2.35,5.43,4.79,8.03,7.27-.33-4.05-.56-8.13-.71-12.29h0Z"/><path d="m101.53,273.28c-.11-4.04-.14-8.19-.05-12.31-1.29.68-2.55,1.42-3.83,2.13-1.26.75-2.51,1.52-3.77,2.29,2.64,2.57,5.18,5.19,7.64,7.89Z" fill="#fff"/><path d="m101.1,261.58c-.06,3.37-.05,6.98.04,10.74-2.11-2.29-4.34-4.59-6.66-6.87l.55-.34c.92-.56,1.87-1.15,2.8-1.7.44-.24.88-.5,1.33-.74.64-.36,1.29-.73,1.95-1.09m.38-.61c-1.29.68-2.55,1.42-3.83,2.13-1.26.75-2.51,1.52-3.77,2.29,2.64,2.57,5.18,5.19,7.64,7.89-.11-4.04-.14-8.19-.05-12.31h0Z"/><path d="m108.66,269.49c.11-4.07.32-8.2.66-12.29-2.66,1.13-5.26,2.41-7.84,3.77,1.24,1.39,2.46,2.79,3.66,4.2l1.78,2.13,1.75,2.19Z" fill="#fff"/><path d="m108.91,257.77c-.27,3.38-.46,6.98-.57,10.72l-1.14-1.42-1.78-2.13c-1.09-1.29-2.22-2.59-3.36-3.86,2.59-1.35,4.79-2.42,6.85-3.3m.41-.57c-2.66,1.13-5.26,2.41-7.84,3.77,1.24,1.39,2.46,2.79,3.66,4.2l1.78,2.13,1.75,2.19c.11-4.07.32-8.2.66-12.29h0Z"/><path d="m115.98,266.34c.34-4.08.81-8.1,1.39-12.2-1.35.47-2.72.9-4.05,1.44l-2.01.78-1.99.85c1.16,1.49,2.29,2.98,3.4,4.5,1.11,1.54,2.2,3.08,3.26,4.64Z" fill="#fff"/><path d="m116.93,254.68c-.52,3.78-.92,7.27-1.22,10.62-.88-1.28-1.78-2.56-2.69-3.81-.99-1.35-2.01-2.71-3.12-4.13l1.54-.66,2.02-.78c.95-.39,1.95-.72,2.91-1.05.19-.06.38-.12.56-.19m.44-.54c-1.35.47-2.72.9-4.05,1.44l-2.01.78-1.99.85c1.16,1.49,2.29,2.98,3.4,4.5,1.11,1.54,2.2,3.08,3.26,4.64.34-4.08.81-8.1,1.39-12.2h0Z"/><path d="m123.45,263.88c.6-3.98,1.31-8.05,2.15-12.02-1.39.28-2.76.69-4.14,1.03-.69.19-1.37.4-2.05.61-.68.21-1.37.4-2.05.64,1.06,1.57,2.11,3.21,3.12,4.83,1.02,1.63,2,3.25,2.96,4.91Z" fill="#fff"/><path d="m125.13,252.33c-.67,3.21-1.3,6.72-1.89,10.47-.73-1.25-1.52-2.55-2.45-4.03-1.1-1.76-2.02-3.18-2.87-4.44.29-.1.59-.18.88-.27.24-.07.47-.14.7-.21.24-.07.48-.14.72-.22.43-.13.88-.27,1.32-.38.44-.11.88-.23,1.33-.35.74-.2,1.5-.4,2.25-.57m.47-.47c-1.39.28-2.76.69-4.14,1.03-.69.19-1.37.4-2.05.61-.68.21-1.37.4-2.05.64,1.06,1.57,2.11,3.21,3.12,4.83,1.02,1.63,2,3.25,2.96,4.91.6-3.98,1.31-8.05,2.15-12.02h0Z"/><path d="m131.05,262.17c.21-.99.43-1.98.66-2.96.23-.98.46-1.95.71-2.94.49-1.95,1.01-3.92,1.55-5.89l-2.1.3-1.05.15-1.04.19-2.09.38-2.08.46c.96,1.69,1.9,3.39,2.8,5.1.91,1.73,1.79,3.46,2.64,5.21Z" fill="#fff"/><path d="m133.47,250.82c-.49,1.78-.96,3.58-1.41,5.36-.25,1-.49,1.99-.71,2.94-.15.65-.29,1.3-.44,1.95-.71-1.43-1.44-2.87-2.18-4.28-.82-1.55-1.68-3.12-2.57-4.68l1.59-.35,2.09-.38,1.03-.19,1.05-.15,1.55-.22m.5-.44l-2.1.3-1.05.15-1.04.19-2.09.38-2.08.46c.96,1.69,1.9,3.39,2.8,5.1.91,1.73,1.79,3.46,2.64,5.21.21-.99.43-1.98.66-2.96.23-.98.46-1.95.71-2.94.49-1.95,1.01-3.92,1.55-5.89h0Z"/><path d="m138.72,261.21c.55-1.91,1.14-3.84,1.75-5.75.61-1.9,1.26-3.79,1.94-5.69-2.82.05-5.63.3-8.44.61.85,1.79,1.67,3.59,2.46,5.39.4.9.79,1.8,1.17,2.71.38.91.75,1.82,1.12,2.74Z" fill="#fff"/><path d="m141.89,250.14c-.61,1.73-1.2,3.47-1.76,5.21-.48,1.5-.96,3.06-1.46,4.75-.24-.59-.48-1.19-.73-1.77-.35-.83-.72-1.69-1.17-2.71-.72-1.65-1.48-3.3-2.25-4.94,2.91-.32,5.23-.49,7.37-.55m.52-.37c-2.82.05-5.63.3-8.44.61.85,1.79,1.67,3.59,2.46,5.39.4.9.79,1.8,1.17,2.71.38.91.75,1.82,1.12,2.74.55-1.91,1.14-3.84,1.75-5.75.61-1.9,1.26-3.79,1.94-5.69h0Z"/><path d="m146.43,261.03c.68-1.85,1.38-3.7,2.12-5.55.74-1.83,1.51-3.65,2.3-5.47-2.81-.24-5.63-.28-8.45-.24.73,1.84,1.44,3.74,2.11,5.61.67,1.88,1.31,3.74,1.92,5.65Z" fill="#fff"/><path d="m144.36,250.11c2.17,0,4.13.07,5.96.21-.77,1.75-1.46,3.4-2.11,5.02-.6,1.51-1.19,3.04-1.76,4.57-.46-1.42-.98-2.93-1.6-4.66-.69-1.92-1.31-3.61-1.91-5.13.49,0,.96,0,1.42,0m0-.37c-.65,0-1.3,0-1.96.02.73,1.84,1.44,3.74,2.11,5.61.67,1.88,1.31,3.74,1.92,5.65.68-1.85,1.38-3.7,2.12-5.55.74-1.83,1.51-3.65,2.3-5.47-2.16-.19-4.33-.26-6.49-.26h0Z"/><path d="m154.12,261.64c.8-1.78,1.62-3.55,2.48-5.32.85-1.75,1.74-3.49,2.66-5.23-2.79-.52-5.59-.85-8.41-1.09.61,1.92,1.19,3.86,1.73,5.8.54,1.95,1.06,3.86,1.54,5.83Z" fill="#fff"/><path d="m151.37,250.41c2.71.24,5.12.55,7.34.95-.84,1.61-1.66,3.22-2.43,4.8-.7,1.44-1.39,2.91-2.05,4.37-.37-1.46-.79-3.01-1.29-4.82-.52-1.86-1.05-3.63-1.57-5.29m-.51-.41c.61,1.92,1.19,3.86,1.73,5.8.54,1.95,1.06,3.86,1.54,5.83.8-1.78,1.62-3.55,2.48-5.32.85-1.75,1.74-3.49,2.66-5.23-2.79-.52-5.59-.85-8.41-1.09h0Z"/><path d="m161.76,263.01c1.82-3.41,3.75-6.72,5.8-10.01-2.74-.77-5.51-1.4-8.3-1.91.48,1.97.93,3.97,1.34,5.95.42,1.98.81,3.97,1.16,5.97Z" fill="#fff"/><path d="m159.75,251.55c2.44.46,4.87,1.02,7.25,1.67-1.83,2.95-3.49,5.81-5.06,8.7-.3-1.63-.62-3.29-.97-4.95-.43-2.04-.83-3.81-1.21-5.42m-.48-.46c.48,1.97.93,3.97,1.34,5.95.42,1.98.81,3.97,1.16,5.97,1.82-3.41,3.75-6.72,5.8-10.01-2.74-.77-5.51-1.4-8.3-1.91h0Z"/><path d="m169.3,265.13c1.02-1.62,2.05-3.19,3.12-4.76,1.07-1.58,2.16-3.12,3.29-4.65-2.69-1.03-5.4-1.94-8.15-2.72.35,2.03.67,4.05.96,6.07.29,2.02.54,4.05.78,6.07Z" fill="#fff"/><path d="m168.02,253.51c2.36.69,4.75,1.48,7.11,2.38-1.07,1.47-2.06,2.88-3.01,4.28-.98,1.44-1.81,2.7-2.58,3.9-.21-1.8-.43-3.47-.66-5.05-.26-1.82-.55-3.67-.86-5.51m-.46-.51c.35,2.03.67,4.05.96,6.07.29,2.02.54,4.05.78,6.07,1.02-1.62,2.05-3.19,3.12-4.76,1.07-1.58,2.16-3.12,3.29-4.65-2.69-1.03-5.4-1.94-8.15-2.72h0Z"/><path d="m176.68,267.97c2.22-3.01,4.55-5.94,6.97-8.78-2.61-1.29-5.27-2.44-7.95-3.47.22,2.04.41,4.09.57,6.14.16,2.04.3,4.07.4,6.12Z" fill="#fff"/><path d="m176.13,256.27c2.34.91,4.67,1.94,6.94,3.04-2.09,2.48-4.13,5.04-6.08,7.63-.09-1.66-.21-3.34-.35-5.12-.14-1.84-.31-3.71-.51-5.55m-.42-.55c.22,2.04.41,4.09.57,6.14.16,2.04.3,4.07.4,6.12,2.22-3.01,4.55-5.94,6.97-8.78-2.61-1.29-5.27-2.44-7.95-3.47h0Z"/><path d="m183.87,271.5c1.2-1.4,2.43-2.77,3.68-4.12,1.25-1.36,2.52-2.68,3.81-3.99-2.53-1.52-5.1-2.93-7.71-4.21.19,4.12.27,8.23.22,12.31Z" fill="#fff"/><path d="m184.04,259.78c2.27,1.13,4.53,2.37,6.74,3.68-1.25,1.26-2.39,2.46-3.5,3.66-1.02,1.11-2.04,2.24-3.04,3.38.02-3.54-.05-7.14-.21-10.73m-.39-.6c.19,4.12.27,8.23.22,12.31,1.2-1.4,2.43-2.77,3.68-4.12,1.25-1.36,2.52-2.68,3.81-3.99-2.53-1.52-5.1-2.93-7.71-4.21h0Z"/><path d="m190.82,275.69c2.57-2.55,5.22-5,7.99-7.34-2.43-1.78-4.91-3.43-7.45-4.95-.06,4.13-.24,8.24-.54,12.29Z" fill="#fff"/><path d="m191.72,264.03c2.16,1.31,4.34,2.77,6.5,4.34-2.36,2.02-4.7,4.16-6.97,6.38.24-3.52.4-7.12.46-10.72m-.36-.64c-.06,4.13-.24,8.24-.54,12.29,2.57-2.55,5.22-5,7.99-7.34-2.43-1.78-4.91-3.43-7.45-4.95h0Z"/><path d="m197.43,280.54c1.36-1.14,2.75-2.24,4.17-3.3.71-.53,1.43-1.05,2.16-1.55.37-.25.74-.49,1.11-.73.38-.23.73-.49,1.19-.65l-.5-.48-.45-.41-.9-.79c-.59-.51-1.18-1.01-1.78-1.5-1.19-.97-2.4-1.9-3.61-2.79-.33,4.12-.78,8.2-1.38,12.19Z" fill="#fff"/><path d="m199.12,269.02c1.03.77,2.06,1.57,3.07,2.39.6.48,1.19.99,1.77,1.49l.89.79.45.41.12.11c-.16.09-.32.18-.46.28-.09.05-.18.11-.28.17-.39.25-.77.5-1.12.74-.7.48-1.43,1.01-2.17,1.55-1.14.85-2.28,1.74-3.45,2.71.49-3.36.89-6.93,1.19-10.63m-.31-.68c-.33,4.12-.78,8.2-1.38,12.19,1.36-1.14,2.75-2.24,4.17-3.3.71-.53,1.43-1.05,2.16-1.55.37-.25.74-.49,1.11-.73.38-.23.73-.49,1.19-.65l-.5-.48-.45-.41-.9-.79c-.59-.51-1.18-1.01-1.78-1.5-1.19-.97-2.4-1.9-3.61-2.79h0Z"/><path d="m136.84,148.07c0,1.3-1.06,2.36-2.36,2.36s-2.36-1.06-2.36-2.36,1.06-2.36,2.36-2.36,2.36,1.05,2.36,2.36Z" fill="#fff"/><path d="m148.05,161.49c0,1.31-1.06,2.36-2.36,2.36s-2.36-1.06-2.36-2.36,1.05-2.36,2.36-2.36,2.36,1.05,2.36,2.36Z" fill="#fff"/><path d="m160.74,171.82c0,1.31-1.05,2.36-2.36,2.36s-2.36-1.05-2.36-2.36,1.06-2.36,2.36-2.36,2.36,1.06,2.36,2.36Z" fill="#fff"/><path d="m175.34,180.8c0,1.3-1.05,2.36-2.36,2.36s-2.36-1.05-2.36-2.36,1.06-2.36,2.36-2.36,2.36,1.06,2.36,2.36Z" fill="#fff"/><path d="m76.13,264.27c0,3.73-3.02,6.74-6.74,6.74s-6.74-3.02-6.74-6.74,3.02-6.74,6.74-6.74,6.74,3.02,6.74,6.74Z" fill="#c32029"/><rect x="66.55" y="261.21" width="5.38" height="5.39" fill="#fdd315"/><path d="m78.23,114.1c0,3.72-3.02,6.74-6.74,6.74s-6.74-3.02-6.74-6.74,3.02-6.74,6.74-6.74,6.74,3.02,6.74,6.74Z" fill="#c32029"/><rect x="68.66" y="111.05" width="5.38" height="5.38" fill="#fdd315"/><path d="m104.94,122.22c0,3.72-3.02,6.74-6.74,6.74s-6.74-3.02-6.74-6.74,3.02-6.74,6.74-6.74,6.74,3.02,6.74,6.74Z" fill="#c32029"/><rect x="95.36" y="119.16" width="5.38" height="5.38" fill="#fdd315"/><path d="m137.65,121.77c0,3.73-3.02,6.74-6.74,6.74s-6.74-3.02-6.74-6.74,3.02-6.74,6.74-6.74,6.74,3.02,6.74,6.74Z" fill="#c32029"/><rect x="128.07" y="118.72" width="5.38" height="5.38" fill="#fdd315"/><path d="m167.59,111.01c0,3.72-3.02,6.74-6.74,6.74s-6.74-3.02-6.74-6.74,3.02-6.74,6.74-6.74,6.74,3.02,6.74,6.74Z" fill="#c32029"/><rect x="158.02" y="107.95" width="5.38" height="5.38" fill="#fdd315"/><path d="m195.33,94.28c0,3.72-3.02,6.74-6.74,6.74s-6.74-3.02-6.74-6.74,3.02-6.74,6.74-6.74,6.74,3.02,6.74,6.74Z" fill="#c32029"/><rect x="185.75" y="91.23" width="5.38" height="5.38" fill="#fdd315"/><path d="m101.14,247.81c0,3.72-3.02,6.74-6.74,6.74s-6.74-3.02-6.74-6.74,3.02-6.74,6.74-6.74,6.74,3.02,6.74,6.74Z" fill="#c32029"/><rect x="91.57" y="244.75" width="5.38" height="5.38" fill="#fdd315"/><path d="m131.5,237.91c0,3.73-3.02,6.74-6.74,6.74s-6.74-3.02-6.74-6.74,3.02-6.74,6.74-6.74,6.74,3.02,6.74,6.74Z" fill="#c32029"/><rect x="121.92" y="234.86" width="5.38" height="5.38" fill="#fdd315"/><circle cx="157.65" cy="237.18" r="6.74" fill="#c32029"/><rect x="154.82" y="234.12" width="5.39" height="5.38" fill="#fdd315"/><path d="m191.75,245.41c0,3.72-3.02,6.74-6.74,6.74s-6.74-3.02-6.74-6.74,3.02-6.74,6.74-6.74,6.74,3.02,6.74,6.74Z" fill="#c32029"/><rect x="182.17" y="242.35" width="5.38" height="5.38" fill="#fdd315"/></g><path d="m143.65,28.1s-.03,1.07-.18,3.01c-.16,1.94-.41,4.78-1.32,8.17-.47,1.69-1.09,3.52-2.11,5.33-.5.91-1.1,1.8-1.78,2.7-.68.89-1.41,1.8-2.22,2.68-3.23,3.52-7.39,7.03-12.48,9.61-1.27.63-2.64,1.21-4.11,1.65-1.46.44-3.03.73-4.62.74-.4,0-.8-.03-1.2-.06-.4-.06-.8-.1-1.19-.21-.4-.08-.77-.22-1.15-.35-.19-.07-.37-.16-.55-.24-.19-.08-.37-.17-.56-.28-.74-.41-1.49-.83-2.24-1.26-.72-.47-1.45-.94-2.17-1.42-2.82-2.02-5.37-4.56-7.02-7.62-1.67-3.06-2.39-6.53-2.69-9.96-.17-1.72-.23-3.43-.37-5.14-.14-1.7-.37-3.38-.66-5-.56-3.27-1.38-6.35-1.98-9.26-1.29-5.82-1.21-11.03-1.14-14.87.11-3.85.28-6.1.32-7.04.05-.93-.02-.56-.16.86-.13,1.42-.32,3.89-.4,7.14-.06,3.25-.1,7.3.65,11.79.71,4.49,2.34,9.79,2.86,15.73.26,2.96.26,6.09.83,9.23.11.79.33,1.57.51,2.35.24.77.45,1.55.77,2.3.16.38.28.77.48,1.13l.55,1.1c.18.38.43.71.64,1.07.22.35.42.71.69,1.03,1.95,2.7,4.56,4.93,7.38,6.72.68.48,1.44.86,2.15,1.28.71.41,1.44.84,2.25,1.09,1.59.56,3.3.62,4.92.48,1.63-.16,3.17-.58,4.64-1.1,1.46-.52,2.83-1.16,4.12-1.84,2.58-1.38,4.81-2.97,6.75-4.53,1.93-1.57,4.01-3.5,5.92-5.79.95-1.15,1.88-2.35,2.68-3.69.8-1.33,1.42-2.76,1.92-4.22.97-2.92,1.44-5.93,1.67-8.72.23-2.8.23-5.4.2-7.61-.04-2.21-.13-4.04-.13-5.29,0-.63.01-1.11.04-1.42.03-.32.06-.44.03-.45-.01,0-.11.14-.19.51-.08.37-.15.97-.19,1.79-.09,1.65-.03,4.22-.17,7.88Z"/><path d="m142.78,25.72c-12.58,0-20.03-6.68-24.12-12.48-4.71-6.67-6.11-13.67-6.12-13.74l.9-.17c.02.07,1.39,6.9,5.99,13.42,6.15,8.7,14.83,12.73,25.81,11.98l.06.91c-.86.06-1.7.09-2.51.09Z"/><path d="m144.5,24.36c-12.5,0-19.83-6.36-23.84-11.91-4.62-6.39-5.9-12.91-5.95-13.18l.9-.17c.01.06,1.29,6.61,5.81,12.84,6.03,8.32,14.65,12.16,25.63,11.41l.06.91c-.9.06-1.76.09-2.61.09Z"/><path d="m146.23,22.99c-12.44,0-19.75-6.12-23.74-11.45-4.63-6.17-5.91-12.46-5.96-12.73l.89-.18c.01.06,1.29,6.38,5.81,12.38,6.03,8.02,14.65,11.71,25.63,10.96l.06.91c-.93.06-1.82.1-2.7.1Z"/><path d="m147.92,21.63c-12.34,0-19.49-5.75-23.38-10.76-4.52-5.83-5.68-11.8-5.73-12.05l.9-.17c.01.06,1.18,6.03,5.58,11.69,5.88,7.57,14.42,11.03,25.41,10.28l.06.91c-.98.06-1.92.1-2.84.1Z"/><path d="m149.59,20.26c-12.23,0-19.21-5.37-22.99-10.08-4.41-5.5-5.46-11.14-5.51-11.38l.9-.16c.01.06,1.07,5.68,5.35,11,5.73,7.12,14.2,10.35,25.18,9.61l.06.91c-1.03.07-2.03.1-2.99.1Z"/><path d="m151.24,18.9c-12.1,0-18.92-5-22.58-9.4-4.3-5.17-5.25-10.48-5.29-10.7l.9-.16c0,.05.95,5.33,5.11,10.31,5.5,6.57,14.12,9.66,24.96,8.92l.06.91c-1.09.07-2.15.11-3.17.11Z"/><path d="m92.72,20.29l-.22-.74C102.65,16.26,108.92-.2,108.98-.36l.7.25c-.25.68-6.44,16.99-16.96,20.41Z"/><path d="m92.23,17.39l-.22-.73C100.61,13.78,106.7-.25,106.75-.39l.69.28c-.25.58-6.26,14.51-15.22,17.5Z"/><path d="m92.01,14.44l.11-.76c5.89-1.26,12.13-13.98,12.19-14.11l.67.31c-.26.53-6.72,13.2-12.98,14.55Z"/><path d="m91.69,12.16l.04-.91c5.96-2.9,9.71-11.57,9.75-11.66l.69.27c-.15.36-4.24,9.25-10.48,12.3Z"/><path d="m91.76,9.88v-.88c5.22-3.23,7.29-9.34,7.31-9.4l.71.22c-.09.26-2.56,6.67-8.02,10.06Z"/><path d="m91.84,6.88l.07-.8c3.25-1.29,5.35-6.45,5.37-6.5l.7.26c-.09.22-2.57,5.62-6.14,7.04Z"/><path d="m91.88,5.39l.04-1.11c2.24-2.07,3.56-4.52,3.57-4.55l.68.3c-.06.12-1.93,3.18-4.28,5.36Z"/><path d="m92.34,2.8l.02-.74c1.1-1.04,1.41-2.16,1.42-2.18l.66.33c-.03.06-.91,1.45-2.1,2.58Z"/><path d="m108,43.56s-.1-.16-.18-.48c-.08-.32-.12-.8-.03-1.39.16-1.2.78-2.81,1.4-4.68.63-1.86,1.36-4.48,1.48-7.01.06-1.27-.05-2.5-.31-3.56-.25-1.06-.68-1.94-1.07-2.55-.4-.62-.76-.9-.93-1-.2-.11-.1-.02.08.18.2.2.5.57.78,1.09.29.52.56,1.19.76,1.97.18.79.29,1.75.29,2.81-.04.53-.03,1.08-.12,1.63-.04.28-.07.56-.11.85-.06.28-.12.56-.17.84-.48,2.26-1.34,4.43-1.99,6.03-.32.8-.7,1.85-.85,2.98-.07.57-.09,1.17.07,1.74.14.57.49,1.09.88,1.38.79.58,1.4.55,1.4.48.01-.05-.12-.14-.38-.3-.26-.17-.69-.44-.99-1.01Z"/><path d="m116.39,43.74s.22-.15.28-.52c.07-.36.02-.83-.2-1.27-.11-.22-.3-.5-.57-.73-.28-.23-.66-.38-1.01-.39-.71-.01-1.19.31-1.54.37-.35.08-.39.19-.21.18.16,0,.49-.03.85-.08.35-.06.88-.12,1.28.16.4.27.57.78.59,1.17,0,.2.03.42.03.6,0,.09,0,.16-.02.2v.02s-.02,0,.02.01c.04.02.08.05.08.05.01.02-.02-.02,0-.02,0,.02,0,.03.02.12v.04h0s0-.1,0-.1h0s0,.01,0,.01c0,.01,0,.02,0,.04-.01.05-.01.11.05.16.06.05.19.1.36-.02Z"/><path d="m114.12,43.4s-.21,0-.45-.05c-.13-.02-.24-.06-.38-.12-.14-.05-.35-.12-.6-.14-.25-.03-.55,0-.85.07-.29.08-.58.19-.85.3-.14.06-.26.12-.41.21-.04.02-.08.04-.14.1-.02.02-.03.02-.05.06-.02.04-.04.07-.05.12-.03.14.04.24.1.29.17.11.22.09.29.11.27.04.47.06.63.12.64.22.2-.18-.49-.4-.04-.02-.08-.03-.13-.05-.02,0-.04-.02-.05-.03,0,0-.02-.01-.02-.01,0,0,0,0-.01.01,0,0-.01.01-.03.02,0,0,0,0,0,0,0,0,.03,0,.04.02.02.03.01,0,.02,0,.02,0,.04-.02.06-.03.05-.01.1-.03.15-.05.22-.06.47-.12.71-.16.5-.09.98-.03,1.33.18.17.1.48.2.82.16.33-.04.58-.18.75-.29.32-.26.28-.44-.39-.45Z"/><path d="m117.33,49.19s-.46-.11-1.1-.34c-.32-.12-.69-.27-1.11-.44-.1-.05-.2-.09-.31-.14l-.17-.07c-.08-.02-.15-.05-.23-.07-.3-.1-.64-.18-1.07-.17-.39,0-.98.11-1.45.51-.06.05-.11.1-.16.15-.04.05-.12.12-.13.14l-.07.1s0,.02-.01.03c0,.02,0,.05,0,.09,0,.04-.04.05-.06.06-.02,0-.03,0-.05,0-.02,0-.08-.03-.12-.04-.38-.16-.87-.31-1.39-.27-.53.03-1.01.3-1.31.61-.15.15-.28.31-.39.47-.09.14-.17.27-.26.4-.31.44-.72.73-1.07.82-.35.09-.53.13-.58.18-.03.03-.02.12.14.16.29.08,1.09.03,1.84-.62.37-.33.65-.83,1.15-1.02.24-.1.5-.12.78-.04.14.03.27.09.41.15.07.04.13.06.21.12l.25.16c.18.11.36.23.55.27.21.05.41-.06.54-.2.07-.06.13-.15.2-.23.06-.08.13-.19.18-.24l.08-.09.07-.05s.1-.06.14-.08c.39-.15.91.02,1.29.27.43.26,1.11.54,1.81.64.7.12,1.47.05,2.02-.17.56-.22.87-.58.79-.77-.17-.11-.63-.08-1.41-.28Z"/><path d="m116.18,50.75s-.27.18-.72.42c-.22.13-.48.3-.77.44-.15.08-.3.17-.45.26-.16.08-.32.16-.49.26-.68.36-1.59.79-2.5.87-.9.12-1.76-.12-2.21-.48-.45-.37-.5-.38-.38-.16.14.21.55.63,1.13.88.59.26,1.47.38,2.34.24.88-.12,1.74-.51,2.39-.73.64-.26,1.6-.95,2.06-1.62.49-.62.54-.93-.4-.38Z"/><path d="m105.1,68.96l-.41-.2c1.57-3.81,1.23-8.38,1.23-8.43l.45-.04c.02.2.35,4.75-1.27,8.67Z"/><path d="m131.37,71.15c-.1-.34-2.5-8.3,3.94-17.05,6.22-8.44,6.68-16.92,6.69-17l.91.04c-.02.36-.47,8.83-6.86,17.5-6.16,8.36-3.83,16.16-3.81,16.24l-.87.27Z"/><path d="m132.74,72.06c-.1-.33-2.5-8.3,3.95-17.05,6.22-8.44,6.68-16.92,6.68-17.01l.91.04c-.01.35-.47,8.83-6.86,17.5-6.16,8.36-3.83,16.16-3.81,16.24l-.87.27Z"/><path d="m134.1,72.97c-.1-.34-2.5-8.3,3.95-17.05,6.22-8.44,6.68-16.92,6.68-17.01l.91.04c-.02.36-.47,8.83-6.86,17.5-6.16,8.36-3.83,16.16-3.8,16.24l-.87.28Z"/><path d="m135.47,73.89c-.1-.34-2.5-8.31,3.95-17.05,6.22-8.44,6.68-16.92,6.68-17l.91.04c-.02.36-.46,8.83-6.86,17.51-6.16,8.36-3.83,16.16-3.81,16.24l-.87.28Z"/><path d="m136.84,74.8c-.11-.34-2.51-8.3,3.95-17.05,6.22-8.44,6.68-16.92,6.68-17l.91.04c-.01.36-.46,8.83-6.86,17.5-6.16,8.36-3.83,16.16-3.81,16.24l-.87.28Z"/><path d="m138.21,75.71c-.11-.33-2.5-8.3,3.94-17.05,6.22-8.44,6.68-16.92,6.68-17l.91.04c-.02.36-.47,8.83-6.86,17.5-6.16,8.36-3.83,16.16-3.81,16.24l-.87.27Z"/><path d="m138.74,70.84c-.19-.24-1.62-2.58,4.78-11.27,6.23-8.46,6.68-16.92,6.68-17.01l.91.04c-.02.35-.47,8.82-6.86,17.5-5.93,8.04-4.79,10.17-4.78,10.19l-.73.54Z"/><path d="m140.11,71.75c-.19-.24-1.62-2.57,4.78-11.27,6.23-8.46,6.68-16.92,6.69-17.01l.91.04c-.01.36-.47,8.83-6.86,17.5-5.93,8.05-4.79,10.17-4.78,10.19l-.74.53Z"/><path d="m141.48,72.66c-.18-.24-1.62-2.58,4.78-11.27,6.23-8.46,6.68-16.92,6.69-17l.91.04c-.02.36-.47,8.83-6.86,17.51-5.93,8.04-4.79,10.17-4.78,10.19l-.74.54Z"/><path d="m142.84,73.57c-.18-.24-1.62-2.58,4.78-11.27,6.23-8.46,6.68-16.92,6.69-17l.91.04c-.02.36-.47,8.83-6.86,17.5-5.93,8.04-4.79,10.17-4.78,10.19l-.74.54Z"/><path d="m102.17,67.82s32.54,6.84,51.15-14.37l4.24,10.61s-27.14,27.47-66.81,12.42l11.41-8.66Z" fill="#222b62"/><g clip-path="url(#d)"><path d="m94.27,71.87l-.58-.16-1.01,3.55.58.16c1.41.4,2.88.75,4.49,1.08l.59.12,1-4.88c1.01.2,2.04.37,3.05.52l-.17,1.28c-.29-.04-.57-.09-.84-.13-.25-.04-.49-.08-.74-.12l-.58-.09-.62,3.63.6.09c1.43.23,2.96.47,4.53.63l.6.06.54-4.94c.98.1,2.01.18,3.13.24l-.06,1.29s-.03,0-.05,0c-.5-.03-1.03-.05-1.53-.1l-.61-.06-.29,3.69.6.05c1.46.12,3.01.2,4.61.22h.6s.1-4.96.1-4.96c1.09,0,2.11,0,3.11-.04l.05,1.28s-.07,0-.1,0c-.49.02-.99.04-1.47.03h-.62s.05,3.69.05,3.69h.59c.54.01,1.08,0,1.6-.03.23,0,.46-.02.69-.03.65-.02,1.31-.06,1.95-.11l.95-.07-.37-4.96.52-.04,1.29-.14c.43-.05.87-.09,1.31-.15l.17,1.27c-.45.06-.91.11-1.36.15l-.82.09.39,3.67.8-.08c.69-.07,1.4-.15,2.1-.26.26-.04.53-.08.79-.11.49-.07.99-.14,1.49-.24l.58-.11-.84-4.9,1.53-.28,1.49-.34.3,1.25-2.13.48.74,3.62,2.81-.63c.37-.08.74-.17,1.13-.28l1.68-.45-1.31-4.8.5-.13,1.02-.32c.24-.08.48-.16.72-.23.24-.08.49-.15.74-.23l.42,1.21c-.24.08-.5.16-.76.24-.25.08-.51.16-.76.24l-.56.19,1.09,3.52.58-.19c.25-.08.51-.16.76-.24.47-.14.96-.3,1.43-.47l2.72-.99-1.79-4.66c.24-.1.48-.2.7-.3.24-.1.47-.2.71-.3l1.01-.42.41-.2.54,1.17-.43.2-1.58.66,1.44,3.4,1.62-.68,1.03-.49c.24-.11.48-.23.72-.34.45-.21.89-.42,1.33-.64l.55-.27-2.25-4.46c.22-.11.43-.23.65-.34.69-.37,1.4-.74,2.09-1.15l.65,1.1c-.45.27-.91.54-1.36.77l-.56.28,1.78,3.24.52-.27c.61-.31,1.2-.66,1.77-1.01l.25-.15c.23-.14.46-.27.69-.41.42-.25.86-.51,1.28-.78l.5-.32-2.67-4.21,1.29-.86c.1-.07.2-.14.3-.2.2-.13.4-.26.6-.41l.37-.27.75,1.04-.41.3c-.18.14-.37.26-.56.38-.12.08-.22.15-.34.22l-.49.34,2.08,3.05.5-.34c.11-.08.22-.14.32-.22.22-.14.43-.28.63-.44l3.24-2.39-3.77-4.86-11.14,7.07-11.75,4.52-12.44,2.14-12.69-.22-12.23-2.53-.31,1.16.87.29h0c.25.08.52.16.79.23l.21.06c.44.12.91.25,1.46.39l-.3,1.25c-.56-.14-1.05-.28-1.51-.4Zm58.76-12.35l2.34,3.02-2.25,1.66c-.13.1-.27.2-.41.29l-.72-1.06c.14-.1.29-.2.43-.3l1.37-1.01-1.53-2.1.77-.49Zm-5.41,3.44l2.18,3.44c-.24.15-.49.3-.73.44-.24.14-.47.27-.7.41l-.25.15c-.39.23-.79.47-1.19.69l-.62-1.13c.39-.22.77-.45,1.15-.67l.77-.46-1.41-2.38.79-.5Zm-6.36,3.67l.84-.33,1.73,3.42c-.26.12-.51.24-.77.37-.24.11-.49.23-.73.34l-1,.47-.49.21-.5-1.18.48-.2,1.54-.73-1.1-2.37Zm-5.11,1.96l1.47,3.81-1.58.57c-.45.17-.92.31-1.38.46-.07.02-.13.04-.2.06l-.38-1.23c.06-.02.12-.04.18-.06.45-.14.92-.29,1.38-.45l.55-.2-.91-2.63.86-.34Zm-6.05,2.19l1.01,3.7-.52.14c-.37.1-.72.19-1.07.26l-1.62.37-.26-1.26,2.17-.49-.61-2.56.9-.16Zm-7.22,1.24l.92-.16.69,4.04c-.29.04-.57.08-.85.12-.27.04-.54.08-.81.12-.54.08-1.09.15-1.64.21l-.14-1.28c.54-.06,1.09-.12,1.63-.21l.58-.1-.38-2.74Zm-6.38.79l.91.02.28,3.82c-.54.04-1.09.08-1.64.09-.24,0-.47.02-.71.03-.31.01-.63.02-.95.03v-1.28c.3,0,.61-.02.91-.03.23-.01.46-.02.7-.03l.61-.02-.11-2.63Zm-6.58,2.66l.13-2.77.94.02-.08,4.06c-1.14-.03-2.26-.08-3.33-.16l.1-1.28c.33.02.65.04.97.06.22.01.43.02.65.04l.61.03Zm-6.67-.59l.36-2.59.9.19-.42,3.81c-1.12-.13-2.22-.29-3.26-.46l.22-1.27s.1.02.14.02c.48.08.97.16,1.47.23l.59.07Zm-7.17-1.3l.59.14.66-2.73.91.19-.82,4.01c-1.14-.24-2.21-.5-3.24-.78l.35-1.24c.46.12.97.25,1.56.4Z" fill="#fdd315"/><path d="m96.23,68.5c.89.22,1.93.48,2.99.69,1.96.4,3.99.72,6.04.95l.14.02c2.49.27,4.99.41,7.47.41,1.65,0,3.3-.06,4.93-.18h.05c4-.28,8.07-.97,12.1-2.06h.52v-.14c3.87-1.09,7.59-2.53,11.05-4.28l.05-.02c3.61-1.83,7.13-4.06,10.44-6.62l-.69-.98-10.32,6.54-11.29,4.33-11.97,2.05-12.24-.22-11.59-2.39-.31,1.16,1.19.37c.46.14.95.27,1.44.4Z" fill="#fdd315"/><path d="m157.42,64.1l-11.93,7.56-13.15,5.04-13.87,2.37-14.04-.26-13.95-2.94-.33,1.15c.33.12.59.2.87.29l.96.29c.59.18,1.19.34,1.75.49,1.03.26,2.26.56,3.5.81,2.28.46,4.64.83,7.03,1.1h.07c2.85.31,5.71.47,8.56.47,1.9,0,3.79-.07,5.66-.21h.03s.02,0,.02,0c4.66-.32,9.39-1.13,14.04-2.4l.09-.02c4.65-1.28,9.12-2.99,13.29-5.1l.05-.03c4.18-2.12,8.24-4.69,12.06-7.64l-.69-.99Z" fill="#fdd315"/></g><path d="m155.29,33.3s7.12-6.17,19.41-5.94c0,0-20.6-17.51-7.81-28.47h-43l31.4,34.41Z" fill="#fdd315"/><path d="m153.97,32.73s1.77-2.53,6.79-2.99c0,0-5.77-1.28-7.67.96l2.45-3.96-4.34,1.13s3.63-4.74,3.17-7.82c0,0-2.42,5.97-5.08,6.01l4.68,6.68Z"/><path d="m153.97,33.04l-5.03-7.17h.34c2.52-.04,4.89-5.84,4.92-5.9l.25-.62.1.66c.38,2.62-2.03,6.31-2.91,7.54l4.29-1.12-2.14,3.45c2.39-1.34,6.79-.38,7-.34l1.14.26-1.16.1c-4.86.44-6.64,2.89-6.66,2.91l-.15.21Zm-3.01-4.93l3.02,4.31c.49-.56,2.12-2.12,5.55-2.71-1.77-.24-5.01-.42-6.3,1.1l-.29-.21,2.21-3.58-4.19,1.09Zm-1.34-1.91l1.25,1.79.18-.24s3.02-3.98,3.17-6.92c-.71,1.54-2.53,5.01-4.61,5.37Z"/><path d="m147.13,21.33s1.78-2.54,6.79-2.99c0,0-5.77-1.28-7.67.96l2.45-3.96-4.34,1.13s3.63-4.73,3.17-7.81c0,0-2.41,5.97-5.09,6.01l4.68,6.68Z"/><path d="m147.13,21.64l-5.02-7.17h.34c2.52-.04,4.89-5.84,4.92-5.9l.25-.62.1.66c.39,2.61-2.03,6.3-2.91,7.54l4.29-1.12-2.14,3.46c2.39-1.34,6.79-.38,7-.34l1.14.25-1.16.11c-4.86.44-6.64,2.89-6.66,2.91l-.15.21Zm-3.01-4.93l3.02,4.31c.48-.56,2.11-2.12,5.55-2.71-1.76-.23-5-.42-6.3,1.1l-.29-.21,2.21-3.57-4.19,1.09Zm-1.34-1.91l1.26,1.79.18-.24s3.02-3.98,3.17-6.92c-.71,1.54-2.53,5-4.61,5.37Z"/><path d="m139.38,9.93s1.77-2.54,6.79-2.99c0,0-5.77-1.28-7.67.96l2.45-3.96-4.34,1.13s3.63-3.26,3.17-6.33c0,0-2.41,4.48-5.08,4.52l4.68,6.68Z"/><path d="m139.38,10.24l-3.39-4.83-.06.02.04-.04-1.62-2.31h.34c2.53-.04,4.9-4.39,4.93-4.43l.26-.48.08.54c.37,2.46-1.74,4.98-2.74,6.02l4.12-1.07-2.14,3.45c2.39-1.34,6.79-.38,7-.33l1.14.25-1.16.11c-4.86.44-6.64,2.89-6.66,2.91l-.15.21Zm-3.01-4.93l3.02,4.31c.48-.56,2.11-2.12,5.55-2.71-1.76-.24-5-.42-6.3,1.1l-.29-.21,2.21-3.58-4.19,1.09Zm-1.33-1.9l1.21,1.73.24-.22s3.11-2.82,3.15-5.59c-.71,1.14-2.53,3.79-4.61,4.07Z"/><path d="m120.01-.36s6.64,12.51,11.61,21.54c4.96,9.03,11.81,17.84,15.45,26.43,3.65,8.59,10.49,24.55,10.49,24.55l2.05-4.33-3.8-17.14L123.89-.94l-3.88.58Z" fill="#222b62"/><path d="m157.56,72.6l-.16-.37c-.07-.16-6.88-16.06-10.49-24.55-2.19-5.17-5.48-10.31-8.95-15.75-2.22-3.48-4.52-7.07-6.49-10.66C126.55,12.34,119.92-.15,119.85-.28l-.12-.23,4.25-.63.06.1,31.95,51.64v.03s3.82,17.2,3.82,17.2l-2.25,4.75ZM120.29-.22c.93,1.74,6.95,13.05,11.5,21.31,1.97,3.58,4.26,7.17,6.48,10.64,3.49,5.46,6.78,10.61,8.98,15.8,3.3,7.77,9.28,21.73,10.33,24.18l1.86-3.91-3.78-17.05L123.8-.74l-3.51.52Z" fill="#222b62"/><path d="m122.4-.59s9.07,18.06,20.07,34.46c11,16.39,17.15,33.96,17.15,33.96l35.06,7.94s-36.33-33.52-42.99-44.67c-6.67-11.15-22.58-32.03-22.58-32.03l-6.71.35Z" fill="#c32029"/><polygon points="151.26 37.91 124.18 -1.29 131.58 -1.27 156.53 34.31 151.26 37.91" fill="#222b62"/><path d="m151.21,38.16l-.1-.15L123.83-1.47l7.84.02.06.08,25.05,35.73-5.57,3.81ZM124.53-1.11l26.78,38.77,4.97-3.4L131.48-1.09l-6.96-.02Z" fill="#222b62"/><path d="m168.55,26.5h.13s-15.38-14.82-7.59-25.88h0c-6.66-.23-11,6.91-7.73,12.71l4.14,7.35c2.22,3.94,6.54,6.16,11.05,5.81Z" fill="#222b62"/><path d="m94.34,22.48s.05-.06.09-.11c.25-.35.83-.91,1.62-1.21.77-.33,1.91-.6,3.12-.62.6-.04,1.21.04,1.77.11.56.11,1.08.25,1.5.44.42.21.96.4,1.49.54.54.15,1.07.29,1.48.31.81.06,1.18-.22-.03-1.2,0,0-.35-.29-.97-.64-.64-.3-1.54-.71-2.64-.79-1.09-.12-2.59.04-3.96.43-1.38.37-2.57,1.13-3.19,1.88-.33.36-.41.7-.4.85,0,.1.03.14.06.1.02-.02.04-.05.06-.09Z"/><path d="m95.95,24.62c.19-.16.4-.33.61-.5.23-.15.47-.31.72-.46.13-.06.27-.12.4-.18.13-.06.27-.13.41-.16.56-.2,1.17-.22,1.72-.18.55.08,1.05.22,1.43.44.79.38,1.89,1.14,2.6,1.57.33.2.59.3.64.25.12.06.25.11.4.13.18.02.37,0,.54-.06.16-.06.3-.15.39-.24.2-.18.24-.35.2-.4-.07-.03-.23.08-.56.15,0,0-.05.01-.13.02-.08.01-.2,0-.33-.03-.25-.06-.54-.28-.87-.58-.4-.37-1.05-.7-1.66-.92-.03-.01-.05-.02-.08-.03-.48-.3-1.04-.6-1.77-.76-.55-.1-1.22-.16-1.89,0l-.26.05-.25.08c-.16.06-.33.11-.49.18-.3.18-.63.3-.9.52-.14.1-.27.2-.41.3-.13.1-.24.22-.36.32-.23.21-.45.42-.65.61-.4.36-.82.58-1.15.69-.33.1-.52.13-.59.16-.05.02-.04.05.09.06.25.02.93-.1,1.65-.59.17-.12.36-.28.55-.44Z"/><path d="m106.59,23.59c-.08-.1-.07-.02-.03.14.04.16.11.43.12.77.02.34-.1.78-.44,1.05-.24.22-.61.37-1.01.53-.05.02-.09.03-.14.04-.18.04-.39.12-.58.07l-.13-.06c-.51-.24-1.14-.62-1.82-1.01,0-.01,0-.02,0-.03h-.03c-.39-.21-.78-.43-1.21-.62-.18-.07-.37-.12-.55-.18v-.02s-.03,0-.03,0c-.43-.14-.87-.24-1.31-.23-.16,0-.32.04-.47.06-.15.04-.3.1-.44.14-.13.08-.26.15-.39.22-.11.07-.22.14-.32.2-.4.26-.91.57-1.41.85-.5.28-1.01.49-1.34.54-.35.06-.41-.04-.43.07-.05,0-.07.07.03.17.11.1.37.2.75.18,0,0,.11,0,.31-.04.19-.04.47-.12.79-.25.1.11.16.19.32.34,0,0,.08.07.24.19.08.06.18.13.3.22.12.08.26.15.42.24.64.35,1.64.71,2.81.69,1.17,0,2.66-.41,3.92-1.01.32-.15.62-.3.92-.44.28-.14.6-.28.86-.5.26-.21.46-.49.54-.79.09-.29.08-.56.05-.78-.07-.45-.2-.68-.27-.76Zm-6.94,3.38c-.2-.06-.42-.12-.66-.19-.26-.37-.39-.71-.29-.97.1-.27.38-.46.7-.62-.11.21-.2.45-.2.73,0,.44.18.81.45,1.06Zm-2.69-1.03c.23-.11.45-.21.7-.37.41-.24.85-.65,1.21-.81.18-.1.42-.14.66-.15-.53.21-1.07.53-1.26,1.03-.11.28-.07.58.05.9-.04-.02-.08-.02-.12-.04-.46-.18-.88-.39-1.24-.56Zm3.84,1.15c.35-.23.59-.66.59-1.18,0-.47-.21-.86-.5-1.1.24.08.48.16.71.26.18.07.35.16.52.25.38,1.32-.37,1.67-.4,1.68l.02.06c-.34.03-.64.04-.95.03Zm.95-.03h0l-.02-.06.02.06Zm.69-.11c.19-.28.27-.77.17-1.4.16.08.32.15.47.23.46.23.87.46,1.32.62-.42.16-.84.32-1.29.45-.22.07-.44.07-.67.11Z"/><path d="m98.54,28.36c-.34-.04-.81-.05-1.28-.11-.47-.06-.93-.17-1.17-.33-.26-.15-.57-.35-.78-.45-.2-.09-.45-.11-.35.29,0,0,.04.11.21.28.18.15.49.35.94.44.44.1,1.05.11,1.6.09.55-.02,1.04-.05,1.35,0,.64.09.17-.12-.5-.2Z"/><path d="m127.3,19.98s-.06-.06-.1-.1c-.28-.32-.91-.83-1.73-1.04-.79-.26-1.96-.41-3.16-.31-.6.02-1.2.16-1.75.28-.55.16-1.05.36-1.45.58-.39.25-.91.49-1.43.69-.52.2-1.04.39-1.44.46-.81.14-1.19-.11-.09-1.2,0,0,.32-.32.91-.73.6-.36,1.46-.86,2.54-1.05,1.07-.22,2.58-.21,3.99.04,1.41.23,2.67.87,3.35,1.56.36.33.48.65.48.8,0,.11-.02.14-.05.11-.02-.01-.05-.04-.07-.08Z"/><path d="m125.91,22.26c-.21-.14-.43-.29-.66-.44-.25-.12-.5-.26-.76-.38-.14-.05-.28-.1-.42-.14-.14-.05-.28-.1-.43-.12-.58-.14-1.19-.1-1.73,0-.54.14-1.02.33-1.38.58-.75.45-1.76,1.32-2.44,1.82-.31.23-.56.35-.62.31-.11.07-.23.14-.38.17-.18.04-.38.04-.55,0-.17-.04-.31-.12-.41-.2-.21-.16-.28-.33-.23-.38.06-.04.23.06.57.1,0,0,.05,0,.14,0,.08,0,.2-.02.32-.06.25-.09.51-.33.82-.67.36-.4.97-.8,1.56-1.08.03-.02.05-.02.08-.04.45-.35.97-.69,1.68-.93.53-.15,1.2-.28,1.89-.19l.26.02.26.06c.17.04.34.08.51.13.32.14.66.24.95.43.14.08.29.17.44.25.14.09.26.2.39.29.24.19.48.37.7.54.44.32.88.5,1.21.57.34.07.53.08.6.1.06.02.04.05-.08.07-.25.04-.94,0-1.7-.43-.19-.1-.38-.24-.59-.38Z"/><path d="m115.02,23.07c0,.22.02.5.13.78.11.28.34.54.62.73.28.19.61.29.91.41.3.12.62.24.96.35,1.31.47,2.84.74,4,.61,1.16-.1,2.12-.55,2.72-.96.15-.1.29-.19.4-.28.1-.1.2-.18.27-.24.14-.14.22-.21.22-.21.14-.16.19-.26.28-.37.33.1.61.15.8.17.21.01.31.01.31.01.38-.02.63-.14.73-.25.1-.12.06-.19.02-.18-.04-.1-.09,0-.44-.03-.33-.02-.87-.18-1.39-.4-.53-.23-1.06-.49-1.49-.71-.11-.05-.22-.11-.33-.17-.13-.06-.27-.12-.41-.18-.15-.04-.3-.07-.45-.1-.16,0-.32-.02-.48-.01-.44.03-.87.18-1.29.36,0,0-.03,0-.03,0v.02c-.18.08-.36.14-.53.24-.41.22-.78.49-1.14.75h-.04s0,0,0,.02c-.64.45-1.23.89-1.71,1.18l-.12.07c-.19.07-.4.01-.58,0-.05-.01-.09-.02-.14-.03-.41-.12-.8-.23-1.06-.43-.36-.24-.52-.67-.54-1-.03-.35.02-.62.04-.78.02-.16.03-.24-.04-.13-.06.1-.18.34-.2.79Zm7.78.79c-.03-.28-.13-.51-.27-.71.33.13.63.3.76.56.12.26.03.61-.19,1-.23.09-.45.17-.64.25.24-.27.39-.66.34-1.1Zm1.05.49s-.08.04-.12.06c.09-.33.09-.64-.04-.9-.24-.48-.81-.75-1.35-.9.25-.01.48,0,.68.09.37.12.85.48,1.28.68.26.14.49.21.72.3-.34.21-.73.45-1.17.68Zm-3.48.9l.02-.06s-.82-.29-.57-1.63c.17-.1.32-.21.5-.3.22-.12.46-.23.69-.33-.27.27-.44.68-.39,1.15.05.51.34.92.71,1.11-.31.04-.61.06-.95.06Zm.02-.06l-.02.06h0l.02-.06Zm-1.39-.03c-.46-.08-.9-.2-1.33-.32.42-.2.81-.46,1.25-.74.14-.1.3-.18.45-.28-.04.64.09,1.11.3,1.38-.23-.02-.45,0-.67-.04Z"/><path d="m123.7,26.24c.33-.07.8-.13,1.27-.24.46-.1.9-.26,1.13-.44.24-.18.54-.41.74-.53.19-.12.44-.16.38.25,0,0-.04.12-.18.3-.16.16-.46.39-.89.53-.43.14-1.03.21-1.58.25-.55.04-1.04.05-1.35.13-.62.15-.18-.1.48-.25Z"/><path d="m114,328.63s.03-1.09.17-3.06c.16-1.96.4-4.85,1.27-8.29.45-1.71,1.05-3.58,2.02-5.42.48-.92,1.06-1.83,1.71-2.73.65-.91,1.36-1.83,2.14-2.72,3.1-3.57,7.1-7.14,11.99-9.75,1.22-.64,2.54-1.22,3.95-1.68,1.4-.45,2.9-.74,4.44-.75.38,0,.77.03,1.15.06.38.06.77.1,1.14.21.38.08.74.22,1.11.36.18.06.35.16.53.24.18.08.36.17.53.28.71.42,1.43.85,2.15,1.28.69.48,1.39.95,2.09,1.45,2.7,2.05,5.15,4.63,6.74,7.74,1.6,3.11,2.3,6.64,2.58,10.12.16,1.75.22,3.48.36,5.22.14,1.73.36,3.43.63,5.08.54,3.31,1.33,6.44,1.9,9.4,1.23,5.91,1.17,11.2,1.1,15.1-.11,3.9-.27,6.2-.31,7.14-.05.95.02.57.15-.87.12-1.45.3-3.95.38-7.26.05-3.29.09-7.41-.63-11.97-.68-4.56-2.25-9.93-2.75-15.97-.25-3.01-.24-6.18-.79-9.37-.11-.8-.31-1.59-.48-2.39-.24-.78-.43-1.58-.75-2.34-.16-.38-.27-.78-.46-1.15l-.53-1.12c-.17-.38-.41-.72-.61-1.08-.21-.36-.4-.72-.66-1.05-1.88-2.74-4.38-5.01-7.09-6.83-.65-.49-1.38-.87-2.06-1.3-.69-.41-1.39-.85-2.17-1.1-1.53-.57-3.17-.63-4.73-.48-1.56.16-3.05.59-4.45,1.12-1.4.53-2.72,1.18-3.95,1.88-2.48,1.4-4.62,3.01-6.49,4.6-1.86,1.59-3.85,3.56-5.68,5.88-.92,1.17-1.8,2.39-2.58,3.74-.77,1.35-1.37,2.81-1.84,4.29-.94,2.97-1.38,6.02-1.61,8.86-.22,2.84-.22,5.48-.19,7.73.04,2.24.12,4.1.12,5.37,0,.63,0,1.13-.04,1.44-.02.32-.06.45-.03.46.02,0,.11-.14.19-.52.08-.38.14-.98.18-1.82.08-1.68.03-4.29.17-8Z"/><path d="m112.83,331.46c12.58,0,20.02,6.67,24.12,12.47,4.71,6.68,6.11,13.67,6.12,13.75l-.89.17c-.02-.06-1.39-6.9-5.99-13.42-6.15-8.69-14.83-12.72-25.81-11.98l-.06-.91c.86-.06,1.7-.08,2.52-.08Z"/><path d="m111.11,332.82c12.5,0,19.83,6.36,23.84,11.91,4.62,6.39,5.9,12.9,5.95,13.18l-.89.17c-.01-.06-1.3-6.61-5.81-12.84-6.03-8.32-14.65-12.16-25.63-11.41l-.06-.91c.89-.06,1.76-.09,2.61-.09Z"/><path d="m109.37,334.19c12.45,0,19.75,6.12,23.75,11.45,4.63,6.17,5.9,12.46,5.96,12.73l-.9.17c-.01-.06-1.29-6.38-5.81-12.38-6.03-8.02-14.65-11.71-25.63-10.96l-.06-.91c.93-.06,1.83-.09,2.7-.09Z"/><path d="m107.68,335.55c12.35,0,19.49,5.74,23.38,10.76,4.52,5.83,5.68,11.8,5.73,12.05l-.89.17c-.01-.06-1.19-6.03-5.58-11.69-5.88-7.57-14.42-11.03-25.41-10.29l-.06-.91c.97-.07,1.92-.1,2.84-.1Z"/><path d="m106.01,336.91c12.23,0,19.21,5.37,22.99,10.08,4.41,5.5,5.46,11.14,5.51,11.38l-.9.16c-.01-.05-1.07-5.68-5.35-11-5.73-7.12-14.2-10.35-25.18-9.61l-.06-.91c1.03-.07,2.03-.11,3-.11Z"/><path d="m104.36,338.28c12.09,0,18.92,5,22.58,9.39,4.3,5.17,5.25,10.48,5.29,10.71l-.9.15c0-.05-.95-5.33-5.11-10.31-5.5-6.57-14.12-9.66-24.96-8.92l-.06-.91c1.09-.08,2.15-.11,3.17-.11Z"/><path d="m162.88,336.88l.22.74c-10.15,3.3-16.42,19.76-16.48,19.92l-.7-.25c.25-.67,6.44-16.98,16.96-20.41Z"/><path d="m163.38,339.79l.22.73c-8.61,2.88-14.7,16.91-14.75,17.05l-.69-.28c.25-.58,6.26-14.5,15.22-17.5Z"/><path d="m163.59,342.73l-.12.76c-5.89,1.27-12.13,13.98-12.19,14.11l-.67-.31c.25-.53,6.72-13.2,12.98-14.55Z"/><path d="m163.91,345.03l-.05.91c-5.96,2.9-9.71,11.57-9.75,11.66l-.69-.28c.15-.36,4.24-9.25,10.48-12.29Z"/><path d="m163.85,347.3v.88c-5.22,3.23-7.29,9.33-7.31,9.39l-.71-.21c.09-.26,2.56-6.67,8.02-10.06Z"/><path d="m163.76,350.3l-.07.8c-3.25,1.3-5.35,6.45-5.37,6.5l-.7-.25c.09-.22,2.58-5.63,6.14-7.05Z"/><path d="m163.72,351.79l-.03,1.11c-2.24,2.07-3.56,4.52-3.57,4.55l-.67-.31c.06-.12,1.93-3.18,4.28-5.35Z"/><path d="m163.27,354.38l-.02.74c-1.1,1.04-1.41,2.16-1.42,2.17l-.66-.33c.04-.06.91-1.46,2.1-2.58Z"/><path d="m150.22,335.21s.35.29.96.64c.62.3,1.51.71,2.6.79,1.07.12,2.55-.04,3.9-.43,1.36-.37,2.53-1.13,3.14-1.88.32-.37.4-.7.4-.85,0-.1-.03-.14-.06-.1-.02.02-.04.05-.07.09-.02.03-.05.06-.08.11-.25.35-.81.92-1.59,1.21-.75.33-1.88.6-3.07.62-.59.04-1.19-.04-1.74-.11-.56-.1-1.06-.25-1.48-.43-.41-.21-.95-.4-1.47-.54-.53-.15-1.05-.29-1.46-.31-.8-.06-1.16.22.03,1.2Z"/><path d="m147.6,313.62s.1.16.18.48c.08.32.12.8.03,1.39-.16,1.19-.78,2.81-1.4,4.68-.63,1.86-1.36,4.48-1.48,7.01-.06,1.27.05,2.5.31,3.56.26,1.07.68,1.94,1.07,2.55.4.62.76.9.93,1,.2.12.1.02-.08-.18-.19-.21-.49-.56-.78-1.09-.29-.52-.56-1.19-.76-1.97-.18-.79-.29-1.75-.29-2.81.04-.53.03-1.08.12-1.63.04-.28.07-.56.11-.84.06-.28.11-.56.17-.84.48-2.26,1.34-4.43,1.98-6.03.32-.8.7-1.85.85-2.98.07-.57.09-1.17-.06-1.74-.14-.57-.5-1.09-.88-1.38-.79-.58-1.4-.55-1.4-.48-.01.05.12.13.38.3.26.17.69.44.99,1.01Z"/><path d="m139.8,314.16s-.22.15-.28.52c-.07.35-.02.83.19,1.26.11.23.3.5.57.73.28.22.66.37,1.01.38.72.02,1.2-.31,1.55-.37.35-.08.39-.19.21-.18-.16,0-.49.04-.85.08-.35.06-.88.12-1.27-.16-.4-.27-.58-.78-.59-1.17,0-.19-.03-.42-.03-.6,0-.09,0-.16.01-.19,0,0,0-.02,0-.02,0,0,.02,0-.02-.01-.04-.02-.08-.05-.08-.05-.01-.02,0,.02,0,.02,0-.02,0-.03-.02-.12v-.04h0s0,.1,0,.1h0s0-.01,0-.01c0-.01,0-.02,0-.03.01-.05,0-.11-.05-.16-.06-.05-.19-.1-.36.02Z"/><path d="m141.98,313.4s.21,0,.45.04c.13.02.24.06.38.11.14.05.34.12.6.14.25.03.55,0,.85-.07.29-.08.58-.19.85-.3.14-.06.27-.11.41-.2.04-.03.08-.04.14-.11.01-.02.02-.02.04-.06s.04-.07.05-.11c.03-.14-.05-.25-.1-.29-.16-.11-.21-.09-.29-.11-.27-.04-.47-.06-.63-.12-.64-.21-.2.18.49.4.04.02.08.03.13.05.02,0,.04.02.06.03,0,0,.02.01.02.02,0,0,0,0,.01-.01,0,0,.02-.02.03-.02,0,0,0,0,0,0,0,0-.03,0-.04-.01-.02-.03-.02,0-.02,0-.02,0-.03.02-.06.03-.04.02-.1.04-.15.05-.22.06-.47.12-.72.16-.5.09-.99.03-1.33-.18-.17-.1-.48-.2-.81-.16-.33.04-.58.18-.75.29-.32.26-.28.44.39.45Z"/><path d="m149.84,314.3s-.1.14-.2.31c-.12.18-.25.37-.37.61-.1.24-.23.62-.44.96-.21.34-.47.62-.71.66-.46.05-.02.29.51.05.26-.12.55-.39.81-.7.26-.3.48-.65.71-.91.26-.26.37-.86.24-1.17-.06-.16-.14-.24-.23-.22s-.2.18-.33.4Z"/><path d="m141.91,335.62s-.12.04-.3.13c-.2.07-.49.16-.8.29-.17.06-.32.15-.51.21-.19.06-.38.13-.58.21-.1.04-.2.08-.29.13-.11.03-.21.07-.32.11-.22.07-.42.17-.64.26-.88.36-2.12.85-3.45.95-1.31.12-2.6-.1-3.21-.56-.61-.47-.69-.4-.58-.11.15.3.7.85,1.56,1.21.86.37,2.19.55,3.53.48,1.35-.07,2.68-.39,3.74-.64.28-.04.56-.15.86-.29.29-.14.62-.27.88-.48.27-.2.54-.42.77-.62.23-.21.39-.46.53-.66.27-.41.37-.73.2-.85-.17-.12-.62-.05-1.38.24Z"/><path d="m138.27,307.99s.46.11,1.11.34c.32.12.69.27,1.11.45.1.04.21.09.31.13l.17.07c.08.03.15.05.23.08.3.1.64.18,1.07.17.39.01.98-.11,1.46-.51.06-.04.11-.1.16-.15.04-.04.11-.12.12-.14l.07-.1s0-.02.01-.03c0-.02,0-.05,0-.09,0-.04.04-.06.06-.06.02,0,.03,0,.05,0,0,0,.08.02.12.04.38.16.87.31,1.39.27.53-.03,1.01-.31,1.31-.61.15-.16.28-.31.39-.47.09-.14.18-.27.26-.4.31-.44.72-.73,1.07-.82.35-.09.53-.13.58-.18.02-.04.02-.12-.14-.16-.29-.08-1.09-.03-1.84.61-.37.33-.65.83-1.15,1.02-.24.1-.5.12-.78.05-.14-.03-.28-.09-.41-.15-.07-.04-.13-.06-.21-.12l-.25-.16c-.18-.11-.35-.23-.55-.26-.21-.05-.41.06-.54.2-.07.06-.13.15-.2.23-.06.08-.13.19-.18.24l-.08.09-.07.05s-.1.06-.14.08c-.39.15-.91-.01-1.29-.27-.43-.26-1.11-.54-1.81-.64-.71-.12-1.47-.05-2.02.18-.56.21-.87.58-.79.77.17.11.63.08,1.41.28Z"/><path d="m139.43,306.32s.27-.11.72-.26c.22-.08.47-.19.77-.28.14-.05.29-.11.45-.16.16-.05.32-.1.49-.16.67-.23,1.58-.5,2.49-.55.9-.07,1.76.06,2.21.29.45.22.51.23.39.1-.14-.13-.56-.39-1.15-.54-.59-.16-1.47-.22-2.34-.13-.88.08-1.73.32-2.38.46-.64.16-1.6.6-2.05,1.01-.48.38-.54.58.41.23Z"/><path d="m131.82,332.81s.1.03.29.1c.18.08.43.19.74.36.3.17.66.38,1.05.64.2.12.4.27.62.4.11.07.21.14.37.22.15.07.29.16.46.19.66.2,1.45.06,2.11-.24.68-.3,1.29-.74,1.85-1.17.56-.43,1.09-.88,1.58-1.19.06-.04.12-.08.18-.11.06-.03.12-.07.15-.07.05-.02.21.01.31.04.24.06.45.13.62.21.7.32.83.34.59.17-.12-.09-.33-.22-.64-.36-.15-.07-.32-.14-.51-.21-.1-.03-.2-.06-.31-.08-.05,0-.12,0-.18,0-.05.02-.11.05-.16.07-.85.4-1.83,1.29-2.98,1.9-.57.3-1.19.54-1.78.55-.14,0-.29-.02-.42-.04-.13-.03-.26-.08-.38-.12-.11-.06-.21-.13-.31-.19-.1-.06-.21-.15-.31-.22-.78-.6-2.14-1.43-3.27-1.37-.27.01-.53.1-.69.23-.16.12-.21.27-.19.32.05-.02.16-.1.36-.14.2-.05.48-.04.83.08Z"/><path d="m140.37,333.38s-.36.21-.93.54c-.57.33-1.35.77-2.25,1.09-.89.33-2.21.47-3.37-.06-.14-.06-.29-.12-.43-.19-.14-.06-.26-.15-.39-.23-.26-.15-.5-.31-.74-.48-.49-.31-.95-.52-1.3-.68-.35-.15-.59-.19-.69-.19-.12,0-.06.03.08.09.28.11.91.38,1.6.87.18.12.35.27.55.42.21.14.43.3.66.46.26.12.51.27.79.39.14.05.29.1.43.15.14.05.29.1.45.12.61.15,1.25.12,1.83.05.58-.12,1.11-.26,1.55-.44.45-.15.97-.45,1.46-.77.48-.33.91-.71,1.21-.98.3-.29.46-.47.42-.53-.05-.06-.33.02-.94.36Z"/><path d="m133.32,332.59s.1-.03.28-.1c.09-.04.2-.08.32-.13.13-.04.28-.08.44-.14.64-.21,1.54-.44,2.55-.55,1.01-.13,2.41-.14,3.73.13.33.06.65.14.96.22.32.09.61.14.82.28.45.25.54.71.44,1.01-.1.31-.2.47-.22.54-.01.06.02.07.12-.02.09-.09.23-.29.3-.58.08-.29.04-.74-.31-1.07-.16-.17-.4-.28-.66-.38-.25-.09-.52-.18-.8-.26-.56-.18-1.19-.33-1.83-.44-1.28-.23-2.6-.2-3.59-.11-.25.03-.53.08-.82.14-.28.09-.59.17-.88.3-.58.24-1.11.58-1.46.88-.35.3-.54.53-.48.6.07.08.38-.03,1.06-.31Z"/><path d="m142.68,331.28s-.05-.06-.17-.14c-.11-.08-.32-.18-.59-.21-.58-.08-1.34.3-1.84.89-.43.5-1.03,1.16-1.72,1.69-.69.53-1.42.92-1.9,1.01-.48.08-.53.14-.34.18.2.03.67,0,1.23-.19.55-.19,1.29-.59,1.97-1.08.35-.24.67-.52.97-.78.3-.28.56-.52.81-.64.25-.13.56-.27.81-.28.25-.02.46.05.64.14.18.08.31.16.37.08.07-.04.12-.29-.24-.67Z"/><path d="m133.01,331.02s.14-.05.32-.12c.19-.06.42-.15.68-.27.25-.13.59-.33.96-.47.36-.14.73-.22.95-.15.41.15.16-.18-.39-.23-.27-.02-.64.04-1.01.13-.37.09-.73.22-1.04.29-.32.05-.74.37-.87.65-.14.29-.04.38.4.18Z"/><path d="m138.45,331.1s1.29.35.94,2.22l-.45-.08c.27-1.44-.57-1.69-.61-1.7l.12-.44Z"/><path d="m135.14,331.36l.38.26c-.46.65-.59,1.21-.41,1.65.32.77,1.5,1.01,1.51,1.01l-.09.45c-.06-.01-1.44-.29-1.85-1.29-.24-.59-.09-1.29.46-2.08Z"/><path d="m138.73,331.96s.67.67,0,1.34c-.67.67-2.02.93-2.35-.21-.33-1.13,1.68-1.81,2.35-1.13Z"/><path d="m160.2,330.71s-.12,0-.32.04c-.2.04-.5.12-.84.26-.35.14-.74.34-1.16.61-.42.25-.87.65-1.24.81-.66.34-1.78.12-2.8-.3-.52-.21-1.03-.46-1.51-.71-.49-.24-.92-.48-1.39-.64-.08-.02-.17-.02-.25-.01-.07.02-.13.03-.19.04-.11.03-.21.06-.3.09-.18.07-.35.12-.49.17-.73.26-.85.38-.58.32.13-.03.36-.09.66-.18.15-.04.32-.09.5-.14.18-.04.4-.12.59-.07l.14.06c.82.39,1.9,1.14,3.13,1.65.62.25,1.28.45,1.94.43.16,0,.32-.04.48-.06.16-.04.3-.1.45-.14.14-.08.27-.15.4-.22.11-.07.22-.13.32-.2.41-.26.93-.57,1.44-.85.51-.27,1.03-.49,1.37-.53.35-.06.42.04.44-.07.05.01.08-.06-.04-.17-.11-.1-.37-.21-.76-.18Z"/><path d="m151.73,332.57s.28.3.82.72c.53.41,1.35.96,2.45,1.21.55.1,1.22.16,1.89,0l.25-.05.25-.09c.16-.06.34-.11.5-.18.3-.17.63-.3.89-.52.14-.1.28-.2.41-.29.13-.1.24-.22.36-.33.22-.21.45-.41.65-.6.4-.36.82-.59,1.15-.69.33-.1.52-.13.59-.16.05-.02.04-.05-.09-.06-.25-.02-.93.1-1.64.6-.18.12-.36.28-.55.44-.2.16-.4.32-.61.5-.23.14-.47.3-.72.46-.13.06-.27.12-.4.18-.13.06-.27.13-.41.16-.56.2-1.17.22-1.72.18-.55-.09-1.05-.22-1.43-.44-.79-.37-1.88-1.14-2.6-1.57-.36-.21-.64-.32-.67-.26-.03.07.16.3.64.8Z"/><path d="m158.8,330.66s-.08-.07-.24-.19c-.08-.06-.18-.13-.3-.22-.12-.08-.26-.16-.42-.24-.64-.35-1.64-.71-2.81-.69-1.17-.01-2.66.41-3.92,1.01-.32.14-.62.29-.92.44-.28.14-.6.28-.86.5-.26.21-.46.49-.54.79-.08.29-.08.57-.05.79.06.45.21.67.27.76.09.1.07.02.04-.14-.04-.16-.12-.43-.12-.77-.01-.34.1-.77.44-1.05.32-.29.83-.45,1.38-.68.54-.22,1.14-.44,1.75-.6,1.22-.35,2.52-.39,3.4-.15.22.06.46.13.72.21.26.1.53.16.78.28.52.2,1.01.44,1.38.62.71.38,1.1.38.02-.65Z"/><path d="m149.36,330.81s.07-.02.19-.03c.12-.01.28,0,.46.04.36.09.76.4,1.23.82.56.52,1.46.99,2.32,1.29.86.32,1.68.52,2.13.75.46.23.58.19.4.05-.16-.13-.56-.38-1.09-.63-.52-.26-1.28-.55-1.98-.98-.35-.21-.68-.46-.96-.71-.27-.26-.5-.55-.75-.79-.23-.25-.63-.53-1.15-.59-.26-.03-.53,0-.76.08-.23.09-.42.21-.55.34-.27.25-.34.5-.27.56.09.04.31-.11.79-.21Z"/><path d="m158.93,329.12s-.03-.14-.16-.35c-.13-.19-.38-.44-.71-.55-.34-.12-.8-.14-1.22-.12-.42.02-.79.07-1.03,0-.49-.11-.13.15.38.25.26.05.62.06.98.14.36.07.7.21.89.41.2.19.44.44.6.57.15.11.35.14.27-.36Z"/><path d="m153.44,329.96l.16.42-.08-.21.08.21s-.84.37-.39,1.76l-.43.14c-.58-1.82.65-2.32.66-2.32Z"/><path d="m156.76,329.81c.56.63.75,1.22.56,1.73-.4,1.09-2.4,1.36-2.48,1.37l-.06-.45c.5-.07,1.86-.39,2.12-1.07.13-.34-.03-.77-.48-1.27l.34-.3Z"/><path d="m154.02,331.29s-.28.91.62,1.19c.91.28,2.21-.11,1.99-1.27-.23-1.16-2.32-.83-2.61.08Z"/><path d="m150.5,288.22l.41.2c-1.57,3.8-1.23,8.38-1.23,8.42l-.45.04c-.01-.19-.35-4.74,1.27-8.66Z"/><path d="m124.23,286.03c.1.34,2.5,8.3-3.94,17.05-6.22,8.44-6.68,16.92-6.69,17l-.91-.04c.02-.36.47-8.83,6.86-17.5,6.16-8.36,3.83-16.16,3.81-16.24l.87-.27Z"/><path d="m122.87,285.12c.1.33,2.5,8.3-3.95,17.05-6.22,8.44-6.68,16.92-6.68,17.01l-.91-.04c.02-.36.47-8.83,6.86-17.5,6.16-8.36,3.83-16.16,3.81-16.24l.87-.27Z"/><path d="m121.5,284.2c.1.34,2.5,8.3-3.95,17.05-6.22,8.44-6.68,16.92-6.68,17.01l-.91-.04c.01-.35.47-8.82,6.86-17.5,6.16-8.36,3.83-16.16,3.81-16.24l.87-.28Z"/><path d="m120.13,283.29c.11.34,2.51,8.3-3.94,17.05-6.22,8.44-6.68,16.92-6.68,17l-.91-.04c.02-.36.46-8.83,6.86-17.5,6.16-8.36,3.83-16.16,3.81-16.24l.87-.28Z"/><path d="m118.76,282.38c.11.34,2.5,8.3-3.94,17.05-6.22,8.44-6.68,16.92-6.68,17l-.91-.04c.02-.36.46-8.83,6.86-17.51,6.16-8.36,3.83-16.16,3.81-16.24l.87-.27Z"/><path d="m117.39,281.47c.11.33,2.5,8.3-3.94,17.05-6.22,8.44-6.68,16.92-6.68,17.01l-.91-.04c.02-.35.47-8.83,6.86-17.5,6.16-8.36,3.83-16.16,3.81-16.24l.87-.27Z"/><path d="m116.86,286.34c.18.24,1.62,2.58-4.78,11.27-6.23,8.46-6.68,16.92-6.69,17.01l-.91-.04c.02-.36.47-8.83,6.86-17.5,5.93-8.05,4.79-10.17,4.78-10.19l.74-.54Z"/><path d="m115.49,285.43c.19.24,1.62,2.57-4.78,11.27-6.23,8.46-6.68,16.92-6.68,17l-.91-.04c.02-.35.47-8.82,6.86-17.5,5.93-8.04,4.79-10.17,4.78-10.19l.73-.54Z"/><path d="m114.13,284.52c.18.24,1.62,2.58-4.78,11.27-6.23,8.46-6.68,16.92-6.69,17l-.91-.04c.02-.36.47-8.83,6.86-17.5,5.93-8.04,4.79-10.17,4.78-10.19l.74-.54Z"/><path d="m112.76,283.61c.18.24,1.62,2.58-4.78,11.27-6.23,8.45-6.68,16.92-6.69,17l-.91-.04c.02-.36.47-8.83,6.86-17.5,5.93-8.05,4.79-10.17,4.78-10.19l.74-.54Z"/><path d="m153.43,289.36s-32.54-6.84-51.15,14.36l-4.24-10.6s27.13-27.47,66.81-12.42l-11.42,8.66Z" fill="#222b62"/><g clip-path="url(#e)"><path d="m161.33,285.3l.58.16,1-3.55-.58-.16c-1.41-.4-2.88-.75-4.49-1.08l-.59-.12-1,4.88c-1.01-.2-2.04-.38-3.05-.53l.18-1.27c.28.04.56.09.84.13.25.04.5.08.74.12l.58.09.62-3.63-.6-.1c-1.43-.23-2.96-.47-4.54-.63l-.59-.06-.54,4.95c-.98-.1-2.01-.18-3.14-.25l.06-1.28s.04,0,.05,0c.5.02,1.03.05,1.53.1l.61.06.29-3.69-.6-.04c-1.46-.12-3.01-.2-4.61-.23h-.6s-.09,4.97-.09,4.97c-1.09-.01-2.12,0-3.11.04l-.05-1.28s.07,0,.1,0c.49-.02.99-.04,1.47-.04h.62s-.04-3.69-.04-3.69h-.59c-.53,0-1.07.01-1.6.03-.23.01-.46.02-.69.03-.66.01-1.31.06-1.95.11l-.95.07.37,4.96-.52.04-1.29.14c-.43.04-.87.09-1.31.15l-.18-1.27c.45-.06.91-.11,1.36-.16l.82-.09-.39-3.67-.8.08c-.69.07-1.4.14-2.1.26-.26.04-.53.08-.79.11-.49.06-1,.14-1.49.23l-.58.12.84,4.9-1.53.28-1.49.33-.3-1.25,2.13-.48-.74-3.62-2.81.63c-.37.08-.74.17-1.14.28l-1.68.45,1.31,4.8-.5.13-1.02.32c-.24.08-.48.15-.72.23-.24.07-.49.15-.73.23l-.42-1.21c.24-.08.5-.16.75-.24.26-.08.51-.16.76-.24l.56-.18-1.09-3.53-.58.19c-.25.08-.51.16-.76.24-.47.15-.96.3-1.43.48l-2.72.99,1.8,4.66c-.24.1-.48.2-.71.29-.24.1-.47.2-.72.3l-1,.42-.41.2-.54-1.17.43-.21,1.58-.65-1.45-3.4-1.62.68-1.03.48c-.24.11-.48.23-.72.34-.45.21-.89.42-1.33.64l-.54.27,2.25,4.46c-.22.11-.43.23-.65.34-.69.36-1.4.74-2.09,1.15l-.65-1.1c.45-.27.91-.53,1.36-.77l.56-.28-1.78-3.24-.52.26c-.61.31-1.2.67-1.77,1.01l-.26.15c-.23.14-.46.27-.69.41-.42.25-.86.51-1.29.79l-.5.32,2.67,4.21-1.29.86c-.1.07-.2.13-.3.2-.2.13-.4.26-.59.41l-.38.27-.75-1.04.41-.3c.18-.13.37-.26.56-.38.11-.07.22-.14.34-.22l.5-.34-2.08-3.05-.5.34c-.11.07-.22.14-.32.22-.22.14-.43.28-.63.43l-3.24,2.39,3.77,4.86,11.14-7.07,11.75-4.51,12.44-2.14,12.69.22,12.23,2.53.31-1.16-.87-.28h0c-.26-.08-.52-.16-.79-.24l-.21-.06c-.44-.12-.92-.25-1.46-.38l.3-1.25c.56.14,1.05.27,1.51.4Zm-58.76,12.35l-2.34-3.02,2.25-1.66c.13-.1.28-.19.42-.29l.72,1.06c-.15.1-.29.2-.43.3l-1.37,1.01,1.53,2.1-.77.49Zm5.41-3.43l-2.18-3.44c.24-.15.49-.29.74-.44.24-.14.47-.28.7-.42l.25-.15c.39-.23.79-.47,1.18-.69l.62,1.12c-.39.22-.77.45-1.15.67l-.77.46,1.41,2.38-.79.5Zm6.36-3.67l-.84.32-1.73-3.42c.26-.12.51-.24.77-.36.24-.11.48-.23.72-.34l1-.47.5-.21.5,1.19-.48.2-1.54.72,1.1,2.37Zm5.11-1.96l-1.47-3.81,1.58-.57c.45-.16.92-.31,1.37-.46.07-.02.13-.04.2-.06l.38,1.23c-.06.02-.12.04-.18.06-.45.14-.92.28-1.38.45l-.55.21.91,2.63-.87.33Zm6.05-2.19l-1.01-3.7.52-.14c.37-.11.72-.19,1.07-.27l1.62-.36.25,1.26-2.17.49.61,2.56-.89.15Zm7.22-1.24l-.92.16-.69-4.03c.29-.05.57-.08.85-.12.27-.04.54-.08.82-.12.54-.09,1.09-.15,1.64-.21l.14,1.28c-.54.06-1.09.12-1.63.21l-.58.09.38,2.75Zm6.38-.8h-.91s-.28-3.84-.28-3.84c.54-.04,1.1-.08,1.64-.09.24,0,.47-.02.71-.03.31,0,.63-.03.95-.03l.02,1.28c-.31,0-.62.02-.92.04-.23,0-.46.02-.7.03h-.61s.11,2.64.11,2.64Zm6.58-2.66l-.13,2.77-.95-.02.08-4.06c1.14.03,2.26.08,3.33.16l-.1,1.28c-.33-.02-.65-.04-.97-.06-.22-.01-.43-.02-.65-.04l-.61-.04Zm6.67.59l-.36,2.59-.9-.19.42-3.81c1.12.13,2.22.29,3.27.46l-.22,1.27s-.1-.02-.14-.02c-.48-.08-.98-.16-1.47-.22l-.59-.07Zm7.17,1.31l-.59-.14-.65,2.72-.91-.19.82-4.01c1.14.24,2.21.5,3.24.78l-.35,1.23c-.46-.12-.97-.25-1.56-.4Z" fill="#fdd315"/><path d="m159.37,288.68c-.89-.22-1.93-.48-2.98-.69-1.96-.4-3.99-.72-6.04-.95l-.14-.02c-2.49-.28-4.99-.41-7.47-.41-1.65,0-3.3.06-4.93.18h-.05c-4,.28-8.07.97-12.1,2.06h-.52v.14c-3.87,1.09-7.59,2.53-11.05,4.28l-.05.02c-3.61,1.83-7.12,4.06-10.44,6.62l.69.99,10.32-6.54,11.29-4.33,11.97-2.05,12.24.22,11.59,2.39.31-1.16-1.19-.38c-.46-.14-.95-.27-1.44-.4Z" fill="#fdd315"/><path d="m98.18,293.08l11.93-7.56,13.15-5.04,13.87-2.38,14.04.26,13.95,2.94.33-1.15c-.33-.12-.59-.2-.87-.29l-.95-.29c-.6-.18-1.2-.34-1.76-.49-1.03-.26-2.26-.56-3.5-.81-2.28-.47-4.64-.84-7.03-1.1h-.06c-2.85-.32-5.71-.48-8.56-.48-1.9,0-3.79.07-5.66.21h-.05c-4.66.33-9.39,1.14-14.04,2.4l-.09.03c-4.65,1.28-9.12,2.99-13.29,5.1l-.05.02c-4.18,2.12-8.24,4.69-12.05,7.64l.69.98Z" fill="#fdd315"/></g><path d="m100.31,322.88s-7.12,6.17-19.41,5.94c0,0,20.6,17.51,7.81,28.47h43.01l-31.4-34.41Z" fill="#fdd315"/><path d="m101.63,324.45s-1.77,2.53-6.79,2.99c0,0,5.76,1.28,7.67-.96l-2.45,3.96,4.34-1.13s-3.63,4.74-3.17,7.81c0,0,2.42-5.97,5.08-6.01l-4.68-6.67Z"/><path d="m101.14,337.82l-.1-.66c-.38-2.62,2.03-6.3,2.91-7.54l-4.29,1.12,2.14-3.45c-2.38,1.33-6.79.38-7,.33l-1.14-.25,1.16-.11c4.86-.44,6.64-2.89,6.66-2.91l.15-.21,5.03,7.17h-.34c-2.52.04-4.9,5.84-4.92,5.9l-.25.62Zm3.58-8.63l-.18.24s-3.02,3.98-3.17,6.92c.71-1.54,2.53-5,4.61-5.37l-1.25-1.79Zm-2.35-2.82l.29.21-2.21,3.58,4.19-1.09-3.02-4.31c-.48.56-2.11,2.12-5.55,2.71,1.77.24,5.01.42,6.3-1.1Z"/><path d="m108.47,335.85s-1.77,2.54-6.79,2.99c0,0,5.76,1.28,7.67-.96l-2.45,3.96,4.34-1.13s-3.63,4.74-3.17,7.82c0,0,2.42-5.97,5.08-6.01l-4.68-6.68Z"/><path d="m107.98,349.22l-.1-.66c-.39-2.62,2.03-6.3,2.91-7.54l-4.29,1.12,2.14-3.45c-2.39,1.34-6.8.38-7,.33l-1.14-.25,1.16-.1c4.86-.44,6.64-2.89,6.66-2.91l.15-.21,5.02,7.17h-.34c-2.52.04-4.89,5.84-4.92,5.9l-.25.62Zm3.58-8.63l-.18.24s-3.02,3.98-3.17,6.92c.71-1.54,2.53-5.01,4.61-5.37l-1.26-1.79Zm-2.36-2.82l.29.21-2.21,3.58,4.19-1.09-3.02-4.31c-.48.56-2.11,2.12-5.55,2.71,1.76.24,5,.42,6.3-1.1Z"/><path d="m116.22,347.25s-1.77,2.53-6.79,2.99c0,0,5.77,1.28,7.67-.96l-2.45,3.96,4.34-1.13s-3.63,3.25-3.17,6.33c0,0,2.42-4.49,5.08-4.52l-4.68-6.68Z"/><path d="m115.72,359.02l-.08-.54c-.37-2.46,1.74-4.98,2.74-6.01l-4.12,1.07,2.14-3.46c-2.39,1.34-6.8.38-7,.33l-1.14-.25,1.16-.11c4.86-.44,6.64-2.89,6.66-2.92l.15-.21,3.39,4.83.06-.02-.04.04,1.62,2.31h-.34c-2.53.04-4.9,4.39-4.93,4.43l-.26.48Zm3.63-6.98l-.24.22s-3.11,2.82-3.15,5.59c.71-1.15,2.53-3.79,4.61-4.07l-1.22-1.74Zm-2.39-2.87l.29.21-2.21,3.57,4.19-1.09-3.02-4.31c-.48.56-2.11,2.12-5.55,2.71,1.76.24,5,.43,6.3-1.09Z"/><path d="m135.59,357.54s-6.65-12.52-11.61-21.54c-4.96-9.02-11.81-17.84-15.46-26.43-3.65-8.59-10.49-24.55-10.49-24.55l-2.05,4.33,3.8,17.14,31.94,51.62,3.88-.58Z"/><path d="m131.62,358.32l-.06-.1-31.95-51.65v-.03s-3.82-17.2-3.82-17.2l2.25-4.75.16.37c.07.16,6.88,16.06,10.49,24.55,2.19,5.17,5.48,10.31,8.96,15.75,2.22,3.47,4.52,7.07,6.49,10.66,4.91,8.92,11.55,21.42,11.62,21.54l.12.23-4.25.63Zm-31.67-51.89l31.86,51.49,3.5-.52c-.92-1.74-6.95-13.05-11.49-21.31-1.97-3.58-4.26-7.17-6.48-10.64-3.49-5.46-6.78-10.62-8.98-15.81-3.3-7.77-9.28-21.73-10.33-24.18l-1.86,3.91,3.78,17.05Z"/><path d="m133.2,357.77s-9.07-18.06-20.07-34.46c-11-16.39-17.15-33.95-17.15-33.95l-35.06-7.95s36.33,33.53,42.99,44.68c6.66,11.15,22.57,32.03,22.57,32.03l6.72-.35Z" fill="#c32029"/><path d="m126.4,358.31l-.06-.08c-.16-.21-15.99-21.01-22.59-32.05-6.58-11-42.6-44.3-42.96-44.63l-.5-.46,35.83,8.12.04.1c.06.17,6.28,17.72,17.13,33.91,10.87,16.21,19.99,34.3,20.07,34.48l.13.25-7.09.37Zm-64.87-76.56c4.39,4.07,36.36,33.92,42.53,44.26,6.38,10.68,21.44,30.54,22.51,31.94l6.34-.33c-1.13-2.23-9.76-19.03-19.93-34.19-10.47-15.61-16.63-32.48-17.14-33.9l-34.31-7.77Z"/><polygon points="104.35 319.27 131.42 358.47 124.03 358.45 99.08 322.87 104.35 319.27"/><path d="m131.77,358.65l-7.84-.02-.06-.08-25.05-35.73,5.57-3.81.1.15,27.27,39.49Zm-7.65-.38l6.96.02-26.78-38.77-4.97,3.4,24.79,35.35Z"/><path d="m99.11,336.12c-2.22-3.94-6.54-6.14-11.04-5.79-.04,0-.08,0-.12.01,0,0,15.38,14.8,7.59,25.86h0c6.66.23,11-6.91,7.73-12.71l-4.15-7.37Z" fill="#222b62"/><g clip-path="url(#f)"><path d="m247.5,166.59c0,51.32-38.71,92.92-38.71,92.92,0,0-43.82-41.6-43.82-92.92s43.82-92.92,43.82-92.92c0,0,38.71,41.6,38.71,92.92Z" fill="#222b62"/><path d="m265.3,168.9c2.8,51.24-33.57,94.89-33.57,94.89,0,0-46.03-39.14-48.84-90.38-2.8-51.24,38.68-95.18,38.68-95.18,0,0,40.93,39.43,43.73,90.67Z" fill="#c32029"/><path d="m278.85,168.06c2.8,51.24-33.57,94.9-33.57,94.9,0,0-46.03-39.15-48.84-90.39-2.81-51.24,38.68-95.18,38.68-95.18,0,0,40.93,39.42,43.73,90.67Z" fill="#fdd315"/><path d="m285.35,168.06c2.81,51.24-33.57,94.9-33.57,94.9,0,0-46.03-39.15-48.84-90.39-2.81-51.24,38.68-95.18,38.68-95.18,0,0,40.93,39.42,43.73,90.67Z"/><path d="m-2.85,203.37c0-51.32,38.71-92.92,38.71-92.92,0,0,43.82,41.6,43.82,92.92s-43.82,92.92-43.82,92.92c0,0-38.71-41.6-38.71-92.92Z" fill="#222b62"/><path d="m-21.01,201.9c-2.8-51.24,33.57-94.9,33.57-94.9,0,0,46.03,39.14,48.84,90.39,2.8,51.24-38.68,95.18-38.68,95.18,0,0-40.93-39.42-43.73-90.67Z" fill="#c32029"/><path d="m-33.52,201.9C-36.33,150.66.05,107.01.05,107.01c0,0,46.03,39.14,48.84,90.39,2.8,51.24-38.68,95.18-38.68,95.18,0,0-40.93-39.42-43.73-90.67Z" fill="#fdd315"/><path d="m-37.82,202.16c-2.8-51.24,33.57-94.9,33.57-94.9,0,0,46.03,39.14,48.84,90.39,2.8,51.24-38.68,95.18-38.68,95.18,0,0-40.93-39.42-43.73-90.67Z"/></g></g></svg>